<?xml version="1.0" encoding="utf-8"?>
<!-- Generator: Adobe Illustrator 18.1.1, SVG Export Plug-In . SVG Version: 6.00 Build 0)  -->
<svg version="1.1" id="Layer_1" xmlns="http://www.w3.org/2000/svg" xmlns:xlink="http://www.w3.org/1999/xlink" x="0px" y="0px"
	 viewBox="0 0 169 164.9" enable-background="new 0 0 169 164.9" xml:space="preserve">
<g>
	<path fill="#FFF100" d="M3.3,88.9c0.5-4.4,1-8.8,1.5-13.2c-1.1,0.2-2.2,0.3-3.3,0.5c1.6,4,3.2,7.9,4.9,11.8
		c0.2,0.5,0.9,0.8,1.5,0.8c0.6,0,1.1-0.3,1.4-0.8c2.2-3.7,4-7.5,5.4-11.5c-1.1,0-2.1,0-3.2,0c0.8,4.8,1.5,9.7,2.3,14.5
		c1.1-0.3,2.1-0.6,3.2-0.9c0-0.2-0.1-0.4-0.1-0.6c-0.2-0.8-1.2-1.4-2.1-1.2c-0.9,0.3-1.4,1.2-1.2,2.1c0,0.2,0.1,0.4,0.1,0.6
		c0.2,0.8,1.2,1.4,2.1,1.2c0.4-0.1,0.8-0.4,1-0.8c0.2-0.4,0.2-0.8,0.2-1.3c-0.8-4.8-1.5-9.7-2.3-14.5c-0.1-0.3-0.3-0.7-0.6-0.9
		c-0.3-0.2-0.7-0.4-1-0.4c-0.8,0-1.3,0.5-1.6,1.3c-0.2,0.6-0.5,1.3-0.7,1.9c0.1-0.1,0.1-0.3,0.2-0.4c-1.3,3.2-2.8,6.2-4.5,9.2
		c1,0,1.9,0,2.9,0c-0.1-0.1-0.1-0.3-0.2-0.4c0-0.1-0.2-0.4,0,0c-0.1-0.2-0.2-0.5-0.3-0.7c-0.2-0.5-0.4-0.9-0.6-1.4
		C7.8,82.9,7.4,81.9,7,81c-0.8-1.9-1.5-3.8-2.3-5.7c-0.3-0.8-1-1.3-1.8-1.2c-0.3,0.1-0.7,0.2-0.9,0.5c-0.3,0.4-0.4,0.7-0.5,1.2
		c-0.4,3.6-0.8,7.3-1.3,10.9c0-0.1,0-0.3,0.1-0.4c-0.1,0.6-0.1,1.2-0.2,1.9C0,88.6,0,88.9,0.2,89.4c0.2,0.4,0.6,0.7,1,0.8
		c0.4,0.1,0.9,0.1,1.3-0.2C2.8,89.7,3.2,89.4,3.3,88.9L3.3,88.9z"/>
	<path fill="#FFF100" d="M19,77.1c0,4.2,0,8.3,0.1,12.5c0,0.7,0.4,1.3,1,1.5c0.6,0.2,1.4,0.1,1.8-0.4c3.1-3.4,6-6.9,8.8-10.5
		c-0.8,0-1.6,0-2.4,0c0.1,0.1,0.1,0.1,0-0.1c-0.1-0.1-0.2-0.2-0.2-0.4c0.1,0.3,0-0.4,0-0.1c0-0.1,0-0.3,0.1-0.4c0,0,0,0.1,0,0.1
		c1.1,0.1,2.2,0.3,3.3,0.4c0-0.6,0-1.2,0-1.7c0,0.1,0,0.3-0.1,0.4c0.1-0.4,0.1-0.8,0.2-1.2c-1.1-0.3-2.2-0.6-3.2-0.8
		c-0.6,4.5-0.8,9-0.4,13.5c0.1,0.8,0.6,1.5,1.5,1.6c0.8,0.1,1.6-0.4,1.8-1.2c0.1-0.3,0.1-0.7,0.2-1c0.2-0.9-0.3-1.8-1.2-2
		c-0.9-0.2-1.8,0.3-2,1.2c-0.1,0.3-0.1,0.7-0.2,1c1.1,0.1,2.2,0.3,3.3,0.4c-0.3-4-0.2-8.1,0.2-12.1c0,0.1,0,0.3-0.1,0.4
		c0-0.3,0.1-0.6,0.1-0.9c0.1-0.5,0.1-0.9-0.2-1.3c-0.2-0.4-0.6-0.7-1-0.8c-0.9-0.2-1.8,0.3-2,1.2c-0.3,1.1-0.4,2.2-0.3,3.4
		c0.1,0.8,0.6,1.5,1.5,1.6c0.8,0.1,1.6-0.4,1.8-1.2c0.2-0.8,0-1.8-0.7-2.3c-0.3-0.3-0.8-0.5-1.2-0.5c-0.4,0-0.9,0.2-1.2,0.5
		c-2.8,3.6-5.8,7.1-8.8,10.5c1,0.4,1.9,0.8,2.9,1.1c0-4.2,0-8.3-0.1-12.5c0-0.9-0.8-1.7-1.7-1.6C19.8,75.4,19,76.1,19,77.1L19,77.1z
		"/>
	<path fill="#FFF100" d="M36.1,89.1c0.8-1.9,1.5-3.8,2.3-5.7c-0.1,0.1-0.1,0.3-0.2,0.4c1-2.5,2-4.9,3.4-7.2c-1-0.3-2.1-0.5-3.1-0.8
		c0.6,4.4,1.5,8.8,2.9,13c0.3,0.8,1.2,1.4,2.1,1.2c0.8-0.3,1.4-1.2,1.2-2.1c-0.6-2-1.2-4.1-1.7-6.2c-0.2-1-0.4-2.1-0.6-3.1
		c-0.1-0.5-0.2-1-0.3-1.6c0-0.1,0-0.3-0.1-0.4c0,0,0-0.1,0-0.1c0-0.2,0-0.1,0,0.1c-0.1-0.3-0.1-0.6-0.1-0.9c-0.1-0.4-0.1-0.7-0.4-1
		c-0.2-0.3-0.5-0.5-0.9-0.6c-0.7-0.2-1.5,0.1-1.9,0.8c-1.2,2-2.2,4.2-3.1,6.3c-1,2.3-1.9,4.6-2.8,7c-0.1,0.4,0,0.9,0.2,1.3
		c0.2,0.4,0.6,0.7,1,0.8c0.4,0.1,0.9,0.1,1.3-0.2C35.7,89.9,35.9,89.6,36.1,89.1L36.1,89.1z"/>
	<path fill="#FFF100" d="M49.6,89.8c1.2-2.1,2.1-4.2,2.9-6.5c0.4-1.1,0.7-2.1,0.9-3.2c0.1-0.5,0.3-1.1,0.4-1.6
		c0.1-0.4,0.2-0.8,0.3-1.2c-0.1,0.1-0.1,0.3-0.2,0.4c0.1-0.1,0.1-0.2,0.2-0.4c0-0.1,0.1-0.1,0.1-0.1c0.1-0.2-0.3,0.3-0.1,0.1
		c0.1-0.1,0.2-0.2,0,0c-0.3,0.2-0.1,0.1,0,0c-0.3,0.3-0.4,0.1-0.2,0.1c-0.1,0-0.5,0-0.2,0c-0.1,0-0.3,0-0.4-0.1c0,0,0.1,0,0.1,0
		c-0.4-0.4-0.8-0.8-1.2-1.2c0.7,3.6,1.7,7.1,3,10.5c0.4,1.1,0.9,2.1,1.3,3.2c0.2,0.4,0.7,0.7,1,0.8c0.4,0.1,0.9,0,1.3-0.2
		c0.4-0.2,0.7-0.6,0.8-1c0.1-0.5,0-0.8-0.2-1.3c-0.1-0.2-0.2-0.4-0.3-0.6c0,0,0-0.1-0.1-0.1c-0.1-0.2,0.1,0.2,0.1,0.1
		c0-0.1-0.1-0.2-0.1-0.3c-0.2-0.4-0.4-0.9-0.5-1.3c-0.3-0.8-0.6-1.7-0.9-2.5c-0.6-1.7-1.1-3.4-1.5-5.2c-0.2-1-0.5-2-0.7-3
		c-0.1-0.5-0.7-1.1-1.2-1.2c-1.3-0.3-2.4,0.4-3,1.5c-0.5,0.8-0.6,1.7-0.8,2.6c-0.4,2-1,4-1.8,5.9c0.1-0.1,0.1-0.3,0.2-0.4
		c-0.6,1.5-1.3,2.9-2.1,4.3c-0.4,0.8-0.2,1.9,0.6,2.3C48.1,90.8,49.2,90.6,49.6,89.8L49.6,89.8z"/>
	<path fill="#FFF100" d="M61.9,76c-0.3,4.2-0.5,8.4-0.5,12.7c0,0.7,0.4,1.3,1,1.5c0.6,0.2,1.4,0.1,1.8-0.4c1.6-1.7,3.3-3.4,5-5
		c1.7-1.5,3.5-3,4.7-5c0.7-1.2,1.2-2.6,1.1-4c0-0.8-0.6-1.5-1.5-1.6c-0.8-0.1-1.7,0.4-1.8,1.2c-0.8,4.7-1,9.4-0.5,14.1
		c0,0.4,0.2,0.8,0.5,1.2c0.3,0.3,0.8,0.5,1.2,0.5c0.8-0.1,1.7-0.8,1.6-1.7c-0.4-3.8-0.3-7.7,0.2-11.5c0,0.1,0,0.3-0.1,0.4
		c0.1-0.7,0.2-1.5,0.3-2.2c-1.1-0.1-2.2-0.3-3.3-0.4c0,0.3,0,0.5,0,0.8c0-0.1,0-0.3,0.1-0.4c-0.1,0.5-0.2,0.9-0.3,1.3
		c0.1-0.1,0.1-0.3,0.2-0.4c-0.2,0.4-0.4,0.8-0.6,1.1c-0.1,0.1-0.1,0.2-0.2,0.3c0,0.1-0.2,0.3-0.1,0.1c0.2-0.2,0,0.1-0.1,0.1
		c-0.1,0.1-0.2,0.2-0.3,0.3c-0.6,0.7-1.3,1.3-1.9,1.9c-1.4,1.3-2.9,2.6-4.3,4c-0.8,0.8-1.6,1.6-2.3,2.4c1,0.4,1.9,0.8,2.9,1.1
		c0-4.2,0.1-8.5,0.5-12.7c0-0.4-0.2-0.9-0.5-1.2c-0.3-0.3-0.8-0.5-1.2-0.5C62.6,74.4,62,75.1,61.9,76L61.9,76z"/>
	<path fill="#FFF100" d="M86.5,86.8c-0.1,0-0.1,0-0.2,0c0.1,0,0.3,0,0.4,0.1c-0.8-0.1-1.5-0.3-2.2-0.6c0.1,0.1,0.3,0.1,0.4,0.2
		c-0.4-0.1-0.7-0.3-1.1-0.5c-0.1-0.1-0.3-0.2-0.4-0.3c-0.1-0.1-0.7-0.5-0.2-0.1c-0.3-0.2-0.6-0.5-0.8-0.7c-0.1-0.1-0.3-0.3-0.4-0.4
		c-0.1-0.1-0.2-0.3,0.1,0.1c-0.1-0.1-0.1-0.2-0.2-0.2c-0.2-0.3-0.4-0.6-0.6-1c-0.1-0.3,0.1,0.4,0,0.1c0-0.1-0.1-0.2-0.1-0.2
		c-0.1-0.2-0.1-0.4-0.2-0.5c0-0.2-0.1-0.8,0-0.2c0-0.1,0-0.3,0-0.4c0-0.3,0-0.7,0-1c0,0.1,0,0.3-0.1,0.4c0.1-0.5,0.2-1.1,0.4-1.6
		c-0.1,0.1-0.1,0.3-0.2,0.4c0.2-0.5,0.4-0.9,0.7-1.3c0.1-0.2-0.1,0.2-0.1,0.2c0,0,0.1-0.1,0.1-0.1c0.1-0.1,0.2-0.2,0.2-0.3
		c0.1-0.1,0.2-0.2,0.3-0.3c0.1-0.1,0.4-0.3,0.1-0.1c-0.3,0.2,0.1,0,0.1-0.1c0.1-0.1,0.2-0.1,0.3-0.2c0,0,0.3-0.2,0.3-0.2
		c0,0-0.4,0.2-0.2,0.1c0.1,0,0.1,0,0.2-0.1c0.1,0,0.2-0.1,0.4-0.1c0,0,0.1,0,0.1,0c0,0,0.1,0,0.1,0c0.1,0,0.1,0-0.2,0
		c0.3,0,0.7,0,1,0c-0.1,0-0.3,0-0.4-0.1c0.3,0,0.7,0.1,1,0.2c-0.1-0.1-0.3-0.1-0.4-0.2c0.2,0.1,0.3,0.1,0.4,0.2
		c0.1,0,0.1,0.1,0.2,0.1c0.1,0.1,0.2,0.2-0.1-0.1c0.2,0.2,0.4,0.4,0.7,0.6c0.1,0.2-0.2-0.3-0.1-0.1c0.1,0.1,0.1,0.1,0.2,0.2
		c0.1,0.1,0.2,0.3,0.2,0.4c0.1,0.1,0.2,0.3,0.2,0.4c0,0.1,0.1,0.1,0.1,0.2c0.1,0.3-0.1-0.4,0-0.1c0.2,0.6,0.4,1.3,0.6,2
		c0.1,0.4,0-0.4,0,0c0,0.1,0,0.2,0,0.2c0,0.2,0,0.4,0,0.5c0,0.4,0,0.7,0,1.1c0-0.1,0-0.3,0.1-0.4c-0.1,0.6-0.2,1.1-0.4,1.6
		c0.1-0.1,0.1-0.3,0.2-0.4c-0.1,0.2-0.2,0.5-0.3,0.7c-0.1,0.1-0.1,0.2-0.2,0.3c-0.1,0.2,0.2-0.3,0.1-0.1c0,0-0.1,0.1-0.1,0.1
		c-0.1,0.2-0.3,0.3-0.5,0.5c0,0-0.1,0.1-0.1,0.1c-0.1,0.1,0.3-0.2,0.1-0.1c-0.1,0.1-0.2,0.1-0.3,0.2c-0.1,0-0.6,0.3-0.6,0.3
		c0,0,0.4-0.2,0.2-0.1c-0.1,0-0.1,0-0.2,0.1c-0.1,0-0.2,0.1-0.3,0.1c-0.1,0-0.3,0-0.3,0.1c0,0,0.5-0.1,0.1,0c-0.1,0-0.1,0-0.2,0
		c-0.2,0-0.5,0-0.7,0c0.1,0,0.3,0,0.4,0.1c-0.3,0-0.6-0.1-0.9-0.2c-0.4-0.1-0.9,0-1.3,0.2c-0.4,0.2-0.7,0.6-0.8,1
		c-0.1,0.4-0.1,0.9,0.2,1.3c0.3,0.4,0.6,0.6,1,0.8c1.5,0.6,3.3,0.3,4.7-0.5c1.5-0.8,2.6-2.3,3.1-3.9c0.5-1.6,0.4-3.4,0-5.1
		c-0.4-1.5-1.1-3.1-2.3-4.2c-1.5-1.3-3.4-1.8-5.3-1.3c-1.3,0.3-2.5,1.1-3.3,2.2c-0.9,1.1-1.5,2.4-1.7,3.7c-0.1,0.7-0.1,1.4-0.1,2
		c0.1,0.8,0.3,1.6,0.7,2.4c0.7,1.5,1.9,2.7,3.2,3.6c1.4,0.9,3.1,1.4,4.8,1.6c0.4,0,0.9-0.2,1.2-0.5c0.3-0.3,0.5-0.8,0.5-1.2
		c0-0.4-0.2-0.9-0.5-1.2C87.4,87,87,86.9,86.5,86.8L86.5,86.8z"/>
	<path fill="#FFF100" d="M92.6,77.5c-0.2,3.9-0.1,7.9,0,11.8c0,0.9,0.8,1.7,1.7,1.6c0.9-0.1,1.7-0.8,1.6-1.7
		c-0.2-3.9-0.2-7.9,0-11.8c0-0.9-0.8-1.7-1.7-1.6C93.3,75.8,92.7,76.5,92.6,77.5L92.6,77.5z"/>
	<path fill="#FFF100" d="M97.3,81.3c-0.2,0-0.4,0.1-0.7,0.1c-0.4,0.1-0.8,0.2-1.2,0.5c-0.3,0.3-0.5,0.8-0.5,1.2
		c0.1,0.9,0.8,1.6,1.7,1.6c2.2,0.1,4.5,0.1,6.7,0.2c0.9,0,1.7-0.8,1.6-1.7c-0.1-0.9-0.8-1.6-1.7-1.6c-2.2-0.1-4.5-0.1-6.7-0.2
		c0,1.1,0,2.2,0.1,3.3c0.2,0,0.4-0.1,0.7-0.1c0.4-0.1,0.8-0.2,1.2-0.5c0.3-0.3,0.5-0.8,0.5-1.2c0-0.4-0.2-0.9-0.5-1.2
		C98.2,81.5,97.7,81.2,97.3,81.3L97.3,81.3z"/>
	<path fill="#FFF100" d="M102,76c-0.4,4.6-0.3,9.2,0.4,13.7c0.1,0.5,0.2,0.8,0.5,1.2c0.3,0.3,0.8,0.5,1.2,0.5c0.4,0,0.9-0.2,1.2-0.5
		c0.3-0.3,0.5-0.8,0.5-1.2c-0.7-4.5-0.8-9.2-0.4-13.7c0-0.4-0.2-0.9-0.5-1.2c-0.3-0.3-0.8-0.5-1.2-0.5c-0.4,0-0.9,0.2-1.2,0.5
		C102.1,75.1,102,75.5,102,76L102,76z"/>
	<path fill="#FFF100" d="M107.7,77.1c0,3.2,0,6.4,0.1,9.6c0,0.9,0.8,1.7,1.7,1.6c0.9-0.1,1.6-0.8,1.6-1.7c0-3.2,0-6.4-0.1-9.6
		c0-0.9-0.8-1.7-1.7-1.6C108.4,75.5,107.7,76.2,107.7,77.1L107.7,77.1z"/>
	<path fill="#FFF100" d="M110.6,76.8c3.1,0,6.3,0,9.4-0.1c0.9,0,1.7-0.8,1.6-1.7c-0.1-0.9-0.8-1.6-1.7-1.6c-3.1,0-6.3,0-9.4,0.1
		c-0.9,0-1.7,0.8-1.6,1.7C108.9,76.1,109.6,76.8,110.6,76.8L110.6,76.8z"/>
	<path fill="#FFF100" d="M110.5,83c1.1-0.3,2.2-0.5,3.3-0.7c0.3-0.1,0.6-0.1,0.9-0.1c0.4-0.1-0.4,0.1,0,0c0.1,0,0.3,0,0.4-0.1
		c0.6-0.1,1.2-0.1,1.7-0.2c0.9-0.1,1.7-0.8,1.6-1.7c-0.1-0.9-0.8-1.7-1.7-1.6c-2.4,0.2-4.8,0.6-7.2,1.2c-0.8,0.2-1.4,1.2-1.2,2.1
		C108.8,82.7,109.6,83.3,110.5,83L110.5,83z"/>
	<path fill="#FFF100" d="M110.4,89.5c0.2,0,0.3-0.1,0.5-0.1c0,0,0.3,0,0.3,0c0,0-0.4,0.1-0.1,0c0.3,0,0.7-0.1,1-0.1
		c0.7-0.1,1.3-0.1,2-0.1c1.3,0,2.7,0,4,0.2c-0.1,0-0.3,0-0.4-0.1c1,0.1,2,0.3,3,0.5c0.9,0.2,1.8-0.3,2-1.2c0.2-0.9-0.3-1.8-1.2-2
		c-3.9-0.9-8-1-11.9-0.3c-0.4,0.1-0.8,0.4-1,0.8c-0.2,0.4-0.3,0.9-0.2,1.3c0.1,0.4,0.4,0.8,0.8,1C109.5,89.5,109.9,89.5,110.4,89.5
		L110.4,89.5z"/>
	<path fill="#FFF100" d="M124.6,75.4c-0.4,3.8-0.6,7.7-0.4,11.5c0,1.1,0.1,2.2,0.2,3.3c0.1,0.9,0.8,1.7,1.7,1.6
		c0.9-0.1,1.6-0.8,1.6-1.7c0-0.5,0-0.9,0-1.4c0-0.9-0.8-1.7-1.7-1.6c-0.9,0.1-1.6,0.8-1.6,1.7c0,0.5,0,0.9,0,1.4
		c1.1,0,2.2,0,3.3-0.1c-0.3-3.8-0.4-7.7-0.1-11.6c0.1-1.1,0.2-2.2,0.3-3.2c0-0.4-0.2-0.9-0.5-1.2c-0.3-0.3-0.8-0.5-1.2-0.5
		c-0.4,0-0.9,0.2-1.2,0.5C124.7,74.6,124.6,74.9,124.6,75.4L124.6,75.4z"/>
	<path fill="#FFF100" d="M127.7,77.4c0.4,0,0.8,0.1,1.2,0.1c-0.1,0-0.3,0-0.4-0.1c0.8,0.1,1.6,0.3,2.4,0.6c-0.1-0.1-0.3-0.1-0.4-0.2
		c0.2,0.1,0.5,0.2,0.7,0.3c0.1,0.1,0.2,0.1,0.3,0.2c0.1,0,0.1,0.1,0.2,0.1c-0.1,0-0.1-0.1-0.2-0.1c0.2,0.1,0.4,0.3,0.5,0.5
		c0.3,0.3-0.2-0.3,0,0c0.1,0.1,0.1,0.2,0.2,0.2c0,0.1,0.1,0.2,0.1,0.2c0.1,0.1,0.1,0.5,0,0c0.1,0.2,0.1,0.4,0.2,0.6
		c0,0.1,0,0.2,0.1,0.3c-0.1-0.5,0-0.2,0,0c0,0.2,0,0.4,0,0.6c0-0.1,0-0.3,0.1-0.4c0,0.2-0.1,0.5-0.2,0.7c0.1-0.1,0.1-0.3,0.2-0.4
		c-0.1,0.1-0.1,0.2-0.2,0.4c0,0.1-0.1,0.1-0.1,0.2c0.2-0.4,0.2-0.2,0.1-0.1c0,0-0.1,0.1-0.1,0.1c-0.2,0.2,0,0,0.1-0.1
		c-0.2,0.1-0.3,0.2-0.5,0.3c-0.2,0.1,0,0,0.1,0c-0.1,0-0.2,0.1-0.3,0.1c-0.2,0.1-0.3,0.1-0.5,0.1c-0.4,0.1-0.7,0.2-1.1,0.3
		c-0.4,0.1-0.7,0.1-1.1,0.2c-0.2,0,0.4,0,0.1,0c-0.1,0-0.2,0-0.3,0c-0.2,0-0.4,0-0.5,0.1c-0.8,0.1-1.5,0.1-2.3,0.1
		c-0.9,0-1.7,0.8-1.6,1.7c0.1,0.9,0.8,1.6,1.7,1.6c1.6,0,3.2-0.1,4.7-0.5c1.5-0.3,3.2-0.7,4.2-1.9c1-1.2,1.2-2.8,0.8-4.3
		c-0.4-1.5-1.4-2.7-2.8-3.5c-1.6-0.9-3.4-1.1-5.2-1.2c-0.9,0-1.7,0.8-1.6,1.7C126,76.7,126.7,77.3,127.7,77.4L127.7,77.4z"/>
	<path fill="#FFF100" d="M144.3,86.7c-0.2,0-0.3,0-0.5,0C143.9,86.7,144.1,86.7,144.3,86.7c-0.5,0-0.9-0.1-1.3-0.3
		c0.1,0.1,0.3,0.1,0.4,0.2c-0.3-0.1-0.6-0.3-0.8-0.4c-0.1,0-0.1-0.1-0.2-0.1c-0.2-0.2,0.3,0.2,0.1,0.1c-0.1-0.1-0.2-0.2-0.4-0.3
		c-0.1-0.1-0.2-0.2-0.3-0.3c-0.1-0.1-0.1-0.1-0.2-0.2c0-0.1-0.2-0.3,0,0c0.2,0.2,0,0,0,0c0-0.1-0.1-0.1-0.1-0.2
		c-0.1-0.1-0.2-0.3-0.2-0.4c0-0.1-0.1-0.1-0.1-0.2c-0.1-0.2,0-0.3,0,0.1c0-0.1-0.1-0.3-0.2-0.4c-0.1-0.3-0.2-0.7-0.2-1
		c0,0.1,0,0.4,0,0.1c0-0.1,0-0.2,0-0.2c0-0.2,0-0.4,0-0.6c0-0.4,0-0.7,0.1-1.1c0,0.1,0,0.3-0.1,0.4c0.1-0.8,0.3-1.6,0.6-2.4
		c-0.1,0.1-0.1,0.3-0.2,0.4c0.2-0.6,0.5-1.1,0.9-1.6c0-0.1,0.1-0.1,0.1-0.2c0.2-0.2,0,0.1-0.1,0.1c0.1,0,0.2-0.3,0.3-0.4
		c0.2-0.2,0.4-0.4,0.7-0.6c0.1,0,0.1-0.1,0.2-0.1c-0.4,0.3-0.2,0.1-0.1,0.1c0.1-0.1,0.2-0.2,0.3-0.2c0.1-0.1,0.3-0.1,0.4-0.2
		c0.2-0.1-0.1,0-0.1,0.1c0.1,0,0.2-0.1,0.2-0.1c0.1,0,0.3-0.1,0.4-0.1c0.1,0,0.2,0,0.2-0.1c0.3-0.1-0.4,0-0.1,0c0.3,0,0.6,0,0.9,0
		c-0.1,0-0.3,0-0.4-0.1c0.4,0,0.7,0.1,1,0.3c-0.1-0.1-0.3-0.1-0.4-0.2c0.3,0.1,0.6,0.3,0.9,0.5c0.1,0,0.1,0.1,0.2,0.1
		c0.2,0.1-0.3-0.3-0.1-0.1c0.1,0.1,0.2,0.2,0.4,0.3c0.1,0.1,0.2,0.2,0.3,0.4c0,0,0.2,0.3,0,0c-0.2-0.2,0,0,0,0
		c0.1,0.1,0.2,0.3,0.3,0.4c0.1,0.1,0.2,0.3,0.2,0.4c0-0.1-0.1-0.3,0-0.1c0,0.1,0.1,0.1,0.1,0.2c0.1,0.2,0.1,0.3,0.2,0.5
		c0,0.2,0.1,0.3,0.1,0.5c0,0.1,0.1,0.4,0,0.1c0-0.3,0,0,0,0.1c0.1,0.7,0.1,1.4,0,2.1c0-0.1,0-0.3,0.1-0.4c-0.1,0.8-0.3,1.7-0.6,2.4
		c0.1-0.1,0.1-0.3,0.2-0.4c-0.1,0.3-0.2,0.5-0.4,0.8c0,0.1-0.1,0.1-0.1,0.2c-0.1,0.1-0.2,0.2,0.1-0.1c-0.1,0.1-0.2,0.2-0.3,0.3
		c-0.1,0.1-0.1,0.1-0.2,0.2c-0.2,0.2,0.1,0,0.1-0.1c-0.1,0.1-0.2,0.2-0.4,0.2c-0.1,0.1-0.2,0.1-0.4,0.2c0,0-0.3,0.1-0.1,0
		c0.3-0.1,0,0-0.1,0c-0.5,0.2-1.1,0.4-1.7,0.5c-0.2,0-0.3,0.1-0.5,0.1c-0.1,0-0.1,0-0.2,0c-0.3,0.1,0.3,0,0.1,0c-0.3,0-0.6,0-0.9,0
		c0.1,0,0.3,0,0.4,0.1c-0.2,0-0.4-0.1-0.5-0.1c0.1,0.1,0.3,0.1,0.4,0.2c-0.1,0-0.2-0.1-0.3-0.2c-0.1-0.1-0.1-0.1,0.1,0.1
		c0,0-0.1-0.1-0.1-0.1c-0.6-0.6-1.8-0.7-2.4,0c-0.6,0.7-0.6,1.7,0,2.4c1.5,1.5,3.7,1.2,5.5,0.6c0.8-0.3,1.6-0.5,2.3-1
		c0.8-0.5,1.5-1.2,1.9-2.1c0.8-1.5,1.2-3.3,1.2-5.1c0-1.6-0.4-3.4-1.3-4.7c-1-1.4-2.5-2.6-4.2-2.9c-1.6-0.3-3.3,0.1-4.6,1
		c-2.6,1.9-4.1,5.2-4,8.4c0.1,2,0.7,3.8,2,5.3c1.3,1.4,3.1,2.3,5,2.3c0.9,0,1.7-0.8,1.6-1.7C146,87.4,145.2,86.7,144.3,86.7
		L144.3,86.7z"/>
	<path fill="#FFF100" d="M153.4,87.3c-0.3,1.2,0.7,2.3,1.8,2.3c0.6,0,1.1-0.3,1.5-0.7c0.3-0.4,0.4-0.9,0.5-1.4
		c0.1-1.1,0.2-2.1,0.3-3.2c0.2-2.1,0.4-4.3,0.6-6.4c0.1-1.2,0.2-2.4,0.3-3.6c-1.1,0.2-2.2,0.3-3.3,0.5c1,3,2,6,3.1,8.9
		c0.2,0.5,0.4,0.9,0.7,1.3c0.5,0.5,1.4,0.8,2.1,0.5c0.9-0.3,1.4-1.1,1.9-1.8c1-1.3,2-2.6,2.9-3.9c1-1.4,2-2.9,2.9-4.3
		c-1-0.3-2.1-0.5-3.1-0.8c0,4.4,0,8.7-0.1,13.1c0,1.2,0,2.5,0,3.7c0,0.9,0.8,1.7,1.7,1.6c0.9-0.1,1.6-0.8,1.6-1.7
		c0-4.4,0-8.7,0.1-13.1c0-1.2,0-2.5,0-3.7c0-0.7-0.6-1.4-1.3-1.6c-0.7-0.2-1.5,0.1-1.9,0.8c-1,1.6-2.1,3.2-3.2,4.8
		c-0.6,0.8-1.1,1.5-1.7,2.3c-0.2,0.3,0.2-0.3,0,0c-0.1,0.1-0.2,0.2-0.2,0.3c-0.1,0.2-0.3,0.4-0.5,0.6c-0.1,0.2-0.3,0.4-0.4,0.5
		c-0.1,0.1-0.1,0.1-0.2,0.2c-0.1,0.1-0.1,0.1,0.1-0.1c0.6-0.1,0.8-0.2,0.5-0.2c0.1,0,0.3,0,0.4,0.1c0,0,0,0-0.1,0
		c0.1,0.1,0.3,0.1,0.4,0.2c-0.1-0.1-0.1,0,0,0c0.1,0.1,0.2,0.2,0.3,0.3c0,0-0.2-0.3,0,0c0.1,0.3,0-0.1,0-0.1c0-0.1-0.1-0.2-0.1-0.3
		c-0.1-0.4-0.3-0.8-0.4-1.2c-0.3-0.8-0.6-1.6-0.8-2.4c-0.6-1.6-1.1-3.2-1.7-4.8c-0.3-0.8-1-1.3-1.8-1.2c-0.3,0.1-0.7,0.2-0.9,0.5
		c-0.3,0.4-0.4,0.7-0.5,1.2c-0.2,2.2-0.4,4.4-0.6,6.6c-0.2,2.2-0.4,4.4-0.6,6.6c0-0.1,0-0.3,0.1-0.4c0,0.1,0,0.1,0,0.2
		c0.1-0.1,0.1-0.3,0.2-0.4c-0.1,0.3,0,0.1,0.4-0.4c0.3-0.1,0.5-0.2,0.8-0.2c0,0-0.1,0-0.1,0c0.1,0,0.3,0,0.4,0.1c0,0,0,0-0.1,0
		c0.1,0.1,0.3,0.1,0.4,0.2c0.2,0.2,0.3,0.3,0.5,0.5c0.1,0.3,0.2,0.5,0.2,0.8c0,0,0,0,0,0c0,0.1,0,0.3-0.1,0.4c0,0,0,0,0,0
		c0.2-0.8-0.3-1.9-1.2-2C154.5,85.9,153.6,86.4,153.4,87.3L153.4,87.3z"/>
	<path fill="#FFF100" d="M27,63.6c-0.5-1.2-1-2.5-1.3-3.8c-0.1-0.3-0.2-0.6-0.2-0.9c0-0.2-0.1-0.3-0.1-0.5c0,0.1,0,0.3,0,0.1
		c0-0.1,0-0.2,0-0.2c-0.1-0.6-0.1-1.3,0-1.9c0,0.1,0,0.3-0.1,0.4c0.1-0.6,0.2-1.2,0.5-1.8c-0.1,0.1-0.1,0.3-0.2,0.4
		c0.1-0.3,0.3-0.7,0.5-1c0.1-0.2,0.2-0.3,0.3-0.4c0.2-0.2-0.2,0.3-0.1,0.1c0.1-0.1,0.1-0.2,0.2-0.3c0.2-0.3,0.5-0.5,0.8-0.8
		c0.1-0.1,0.1-0.1,0.2-0.2c0.1-0.1-0.2,0.2-0.2,0.1c0,0,0.1-0.1,0.1-0.1c0.2-0.1,0.3-0.2,0.5-0.3c0.3-0.2,0.6-0.4,1-0.5
		c0.1,0,0.2-0.1,0.3-0.1c0,0,0.1-0.1,0.1-0.1c0,0-0.3,0.1-0.2,0.1c0.2-0.1,0.4-0.1,0.6-0.2c0.4-0.1,0.7-0.2,1.1-0.3
		c0.2,0,0.4-0.1,0.5-0.1c0.1,0,0.4-0.1,0.1,0c-0.3,0,0.1,0,0.2,0c0.9-0.1,1.8-0.1,2.7,0c-0.1,0-0.3,0-0.4-0.1
		c1.2,0.1,2.3,0.4,3.4,0.9c-0.1-0.1-0.3-0.1-0.4-0.2c0.7,0.3,1.4,0.6,2.1,1c0.2,0.1,0.3,0.2,0.5,0.3c0.2,0.1,0.4,0.2,0.5,0.3
		c0,0-0.3-0.2-0.2-0.1c0,0,0.1,0.1,0.1,0.1c0.1,0.1,0.1,0.1,0.2,0.2c0.2,0.1,0.3,0.3,0.5,0.4c0.3,0.3,0.6,0.5,0.8,0.8
		c0.1,0.1,0.2,0.3,0.4,0.4c0.1,0.1,0.1,0.1,0.2,0.2c0,0,0.1,0.2,0,0c-0.2-0.2,0,0,0,0c0.5,0.7,0.9,1.4,1.3,2.1
		c0.8,1.5,1.4,3.1,2.1,4.6c0.7,1.6,1.6,3,2.7,4.4c1.3,1.5,3,2.7,4.9,3.2c0.8,0.2,1.8-0.3,2-1.2c0.2-0.9-0.3-1.8-1.2-2
		c-0.3-0.1-0.6-0.2-1-0.3c0.1,0.1,0.3,0.1,0.4,0.2c-0.4-0.2-0.7-0.3-1.1-0.5c-0.2-0.1-0.3-0.2-0.5-0.3c-0.2-0.1,0.2,0.1,0.2,0.1
		c0,0-0.1-0.1-0.1-0.1c-0.1-0.1-0.2-0.1-0.2-0.2c-0.3-0.3-0.6-0.5-0.9-0.8c-0.1-0.2-0.3-0.3-0.4-0.5c-0.1-0.1-0.1-0.1-0.2-0.2
		c-0.1-0.1,0.1,0.2,0.1,0.2c-0.1-0.1-0.1-0.1-0.1-0.2c-1-1.4-1.7-2.9-2.4-4.4c-0.7-1.6-1.4-3.2-2.3-4.7c-1-1.6-2.3-2.9-3.8-4
		c-2.7-2-6.3-3.1-9.7-2.8c-3.4,0.3-6.8,1.9-8.6,4.8c-2.1,3.3-1.3,7.3,0.1,10.7c0.2,0.4,0.3,0.8,0.5,1.2c0.2,0.4,0.4,0.8,0.8,1
		c0.4,0.2,0.9,0.3,1.3,0.2c0.4-0.1,0.8-0.4,1-0.8C27.1,64.5,27.2,64,27,63.6L27,63.6z"/>
	<path fill="#FFF100" d="M49.3,46.7c-0.7-1.7-1.2-3.4-1.5-5.2c0-0.2-0.1-0.4-0.1-0.6c0-0.1,0-0.2-0.1-0.3c0-0.2,0,0.2,0,0.2
		c0-0.1,0-0.1,0-0.2c-0.1-0.4-0.1-0.9-0.2-1.4c-0.1-0.9-0.1-1.8-0.1-2.7c0-1,0.1-2,0.2-3.1c0,0.1,0,0.3-0.1,0.4
		c0.2-1.9,0.6-3.8,1.3-5.6c-0.1,0.1-0.1,0.3-0.2,0.4c0.3-0.7,0.6-1.3,1-2c0.2-0.3,0.4-0.6,0.6-0.9c0-0.1,0.1-0.1,0.1-0.2
		c-0.3,0.4-0.1,0.2,0,0.1c0.1-0.1,0.2-0.3,0.3-0.4c0.2-0.3,0.5-0.5,0.7-0.7c0.1-0.1,0.1-0.1,0.2-0.2c0,0,0.1,0,0.1-0.1
		c0,0-0.3,0.2-0.2,0.1c0.1-0.1,0.3-0.2,0.4-0.3c0.3-0.2,0.6-0.4,0.9-0.5c0,0,0.1,0,0.1,0c0,0-0.4,0.1-0.2,0.1c0.1,0,0.2-0.1,0.2-0.1
		c0.2-0.1,0.4-0.1,0.6-0.2c0.2-0.1,0.4-0.1,0.6-0.1c0.2,0-0.2,0-0.2,0c0.1,0,0.1,0,0.2,0c0.1,0,0.2,0,0.4,0c0.5,0,0.9,0,1.4,0
		c-0.1,0-0.3,0-0.4-0.1c0.9,0.1,1.7,0.3,2.5,0.7c-0.1-0.1-0.3-0.1-0.4-0.2c0.7,0.3,1.4,0.7,2.1,1.1c0.2,0.1,0.3,0.2,0.5,0.3
		c0.1,0.1,0.2,0.1,0.2,0.2c0.3,0.2-0.3-0.3,0,0c0.3,0.2,0.6,0.5,0.9,0.7c0.5,0.5,1,1,1.5,1.5c0.1,0.1,0.2,0.3,0.3,0.4
		c0.1,0.1,0.1,0.1,0.2,0.2c0.2,0.3-0.2-0.3,0-0.1c0.2,0.3,0.4,0.6,0.7,0.9c0.4,0.6,0.7,1.2,1.1,1.8c0.2,0.3,0.3,0.6,0.5,0.9
		c0,0.1,0.1,0.2,0.1,0.2c0.1,0.3-0.2-0.4,0-0.1c0.1,0.2,0.2,0.4,0.2,0.6c0.2,0.6,0.5,1.3,0.6,2c0.1,0.3,0.2,0.7,0.2,1
		c0,0.2,0.1,0.3,0.1,0.5c0,0.1,0,0.2,0,0.3c0.1,0.4,0-0.3,0,0c0.2,1.6,0.2,3.2,0.1,4.7c0-0.1,0-0.3,0.1-0.4c-0.4,3.3-2,6.3-2.8,9.5
		c-0.8,2.9-0.8,6,0.5,8.8c0.7,1.4,1.8,2.7,3.2,3.4c0.8,0.4,1.9,0.2,2.3-0.6c0.4-0.8,0.2-1.9-0.6-2.3c-0.2-0.1-0.3-0.2-0.5-0.3
		c-0.1-0.1-0.2-0.1-0.3-0.2c-0.2-0.2,0.3,0.3,0.1,0.1c-0.3-0.2-0.5-0.5-0.8-0.8c-0.3-0.3,0.2,0.3,0,0c0-0.1-0.1-0.1-0.1-0.2
		c-0.1-0.2-0.2-0.3-0.3-0.5c-0.1-0.2-0.2-0.3-0.3-0.5c-0.2-0.4,0.1,0.3,0,0c0-0.1-0.1-0.2-0.1-0.3c-0.1-0.4-0.2-0.7-0.3-1.1
		c0-0.2-0.1-0.4-0.1-0.6c0-0.1,0-0.1,0,0.2c0-0.1,0-0.1,0-0.2c0-0.1,0-0.2,0-0.3c-0.1-0.8-0.1-1.6,0-2.3c0,0.1,0,0.3-0.1,0.4
		c0.3-2.7,1.5-5.3,2.4-7.8c0.8-2.3,1.2-4.7,1.1-7.1c-0.1-4.6-1.8-9.1-4.8-12.7c-1.5-1.8-3.3-3.4-5.4-4.4c-2.4-1.2-5.1-1.7-7.7-0.9
		c-4.5,1.4-6.8,6-7.7,10.3c-1.1,5-0.8,10.4,0.8,15.3c0.2,0.6,0.4,1.1,0.6,1.7c0.2,0.4,0.4,0.8,0.8,1c0.4,0.2,0.9,0.3,1.3,0.2
		C49,48.5,49.7,47.6,49.3,46.7L49.3,46.7z"/>
	<path fill="#FFF100" d="M85.7,31c0-0.4,0-0.7,0.1-1.1c0,0.1,0,0.3-0.1,0.4c0.2-1.2,0.5-2.4,0.9-3.6c-0.1,0.1-0.1,0.3-0.2,0.4
		c0.4-1,1-2,1.6-3c0.1-0.1,0.2-0.2,0.2-0.3c0.1-0.1,0.3-0.3-0.1,0.1c0,0,0.1-0.1,0.1-0.1c0.2-0.2,0.4-0.5,0.6-0.7
		c0.4-0.4,0.8-0.8,1.2-1.2c0.2-0.2,0.4-0.3,0.6-0.5c0.1-0.1,0.5-0.4,0.1,0c0.1-0.1,0.3-0.2,0.4-0.3c0.5-0.3,0.9-0.6,1.4-0.9
		c0.2-0.1,0.5-0.2,0.7-0.4c0.1-0.1,0.2-0.1,0.4-0.2c0.1,0,0.4-0.1-0.1,0c0.1,0,0.2-0.1,0.2-0.1c0.5-0.2,1.1-0.4,1.6-0.5
		c0.3-0.1,0.6-0.2,1-0.2c0.1,0,0.1,0,0.2,0c0.1,0,0.1,0-0.2,0c0.1,0,0.1,0,0.2,0c0.2,0,0.3,0,0.5-0.1c0.7-0.1,1.4,0,2.2,0
		c-0.1,0-0.3,0-0.4-0.1c0.8,0.1,1.5,0.3,2.3,0.6c-0.1-0.1-0.3-0.1-0.4-0.2c0.5,0.2,1,0.4,1.4,0.7c0.1,0.1,0.4,0.3,0,0
		c0.1,0.1,0.2,0.1,0.3,0.2c0.2,0.2,0.4,0.4,0.6,0.6c0.3,0.3-0.2-0.3,0,0c0.1,0.1,0.2,0.2,0.2,0.3c0.1,0.2,0.3,0.4,0.4,0.7
		c0.1,0.1,0.1,0.2,0.1,0.3c-0.2-0.5,0-0.1,0,0c0.1,0.2,0.2,0.5,0.2,0.7c0.1,0.2,0.1,0.5,0.2,0.7c0,0.1,0,0.2,0.1,0.3
		c0,0.1,0,0.1,0,0.2c0,0.2-0.1-0.4,0-0.1c0.1,0.5,0.1,1.1,0.2,1.6c0.1,1.1,0.1,2.3,0.1,3.5c0,1.5,0,3-0.2,4.4c0-0.1,0-0.3,0.1-0.4
		c-0.2,1.4-0.5,2.9-1,4.2c0.1-0.1,0.1-0.3,0.2-0.4c-0.2,0.5-0.5,1.1-0.8,1.6c-0.1,0.2-0.3,0.4-0.4,0.6c-0.1,0.1-0.1,0.2-0.2,0.3
		c0,0.1-0.1,0.1-0.1,0.2c0.2-0.4,0.1-0.2,0.1-0.1c-0.6,0.8-1.4,1.5-2.2,2.2c-0.2,0.2-0.4,0.3-0.6,0.5c0,0-0.4,0.3-0.2,0.1
		c0.2-0.2,0,0,0,0c-0.1,0.1-0.1,0.1-0.2,0.2c-0.4,0.3-0.8,0.6-1.3,0.9c-0.9,0.6-1.7,1.2-2.6,1.8c-3.5,2.4-7,5.3-7.9,9.7
		c-0.5,2.2-0.2,4.7,1.1,6.6c0.3,0.4,0.6,0.7,1,0.8c0.4,0.1,0.9,0,1.3-0.2c0.7-0.5,1.1-1.5,0.6-2.3c-0.1-0.2-0.2-0.3-0.3-0.5
		c-0.1-0.1-0.1-0.2-0.2-0.3c0,0,0-0.1-0.1-0.1c0,0.1,0.1,0.2,0.1,0.2c-0.2-0.3-0.3-0.8-0.3-1.1c0-0.1,0-0.2-0.1-0.3
		c0.1,0.5,0,0.2,0,0.1c0-0.2,0-0.4,0-0.6c0-0.4,0-0.8,0.1-1.2c0,0.1,0,0.3-0.1,0.4c0.1-0.8,0.3-1.6,0.6-2.4
		c-0.1,0.1-0.1,0.3-0.2,0.4c0.2-0.5,0.4-1,0.7-1.4c0.1-0.2,0.3-0.4,0.4-0.7c0-0.1,0.1-0.1,0.1-0.2c0.2-0.3-0.2,0.2-0.1,0.1
		c0.1-0.1,0.2-0.3,0.3-0.4c0.4-0.5,0.8-0.9,1.3-1.3c0.4-0.4,0.9-0.8,1.4-1.2c-0.4,0.4,0,0,0.1-0.1c0.1-0.1,0.2-0.2,0.3-0.2
		c0.3-0.2,0.5-0.4,0.8-0.6c0.5-0.4,1-0.7,1.6-1.1c1-0.7,2-1.4,3-2.1c2.2-1.6,4.2-3.6,5.4-6.1c1.3-2.7,1.6-5.7,1.7-8.7
		c0-1.3,0-2.7,0-4c0-1.2-0.1-2.4-0.4-3.6c-0.5-2.5-1.9-4.8-4.1-6.1c-2.3-1.3-5.1-1.5-7.6-1.1c-2.1,0.4-4.2,1.3-6,2.5
		c-3.6,2.6-6.4,6.6-7.1,11c-0.1,0.6-0.2,1.3-0.2,1.9c0,0.9,0.8,1.7,1.7,1.6C85,32.7,85.7,32,85.7,31L85.7,31z"/>
	<path fill="#FFF100" d="M119.5,42.9c0.6-0.5,1.3-0.9,2-1.2c0.1-0.1,0.5-0.2,0,0c0.1,0,0.2-0.1,0.3-0.1c0.2-0.1,0.3-0.1,0.5-0.2
		c0.4-0.1,0.7-0.2,1.1-0.3c0.2,0,0.4-0.1,0.5-0.1c0.1,0,0.2,0,0.3-0.1c0.4-0.1-0.3,0,0,0c0.4,0,0.8-0.1,1.2-0.1c0.8,0,1.6,0,2.3,0.1
		c-0.1,0-0.3,0-0.4-0.1c1.2,0.2,2.4,0.5,3.5,0.9c-0.1-0.1-0.3-0.1-0.4-0.2c0.6,0.3,1.2,0.6,1.8,0.9c0.3,0.2,0.6,0.4,0.8,0.6
		c0.1,0,0.1,0.1,0.2,0.1c-0.5-0.3-0.2-0.1-0.1,0c0.1,0.1,0.3,0.2,0.4,0.3c0.5,0.4,1,0.9,1.4,1.5c0.2,0.2-0.3-0.3,0-0.1
		c0.1,0.1,0.1,0.2,0.2,0.2c0.1,0.2,0.3,0.4,0.4,0.6c0.1,0.2,0.2,0.3,0.3,0.5c0,0.1,0.1,0.2,0.1,0.3c0,0,0,0.1,0.1,0.1
		c-0.1-0.1-0.1-0.3,0-0.1c0.1,0.2,0.2,0.4,0.2,0.6c0,0.1,0.1,0.2,0.1,0.3c0,0.1,0,0.1,0,0.2c0,0.2,0-0.1,0-0.1c0,0.2,0,0.5,0,0.7
		c0,0.3,0,0.5,0,0.8c0-0.1,0-0.3,0.1-0.4c-0.1,0.7-0.3,1.4-0.5,2.1c0.1-0.1,0.1-0.3,0.2-0.4c-0.2,0.6-0.5,1.2-0.9,1.7
		c-0.1,0.1-0.2,0.2-0.3,0.4c0,0-0.1,0.1-0.1,0.1c0.3-0.4,0.1-0.2,0.1-0.1c-0.2,0.2-0.4,0.5-0.6,0.7c-0.4,0.4-0.8,0.9-1.3,1.2
		c0,0,0.3-0.3,0.1-0.1c-0.1,0-0.1,0.1-0.2,0.1c-0.1,0.1-0.2,0.2-0.3,0.2c-0.3,0.2-0.5,0.3-0.8,0.5c-0.5,0.3-1,0.6-1.6,0.8
		c-0.3,0.1,0.3-0.1,0.1,0c-0.1,0-0.1,0.1-0.2,0.1c-0.1,0.1-0.3,0.1-0.4,0.2c-0.3,0.1-0.6,0.2-0.9,0.3c-0.6,0.2-1.3,0.4-2,0.5
		c-0.3,0.1-0.6,0.1-0.9,0.2c0.4-0.1,0.1,0,0,0c-0.1,0-0.1,0-0.2,0c-0.2,0-0.4,0-0.6,0.1c-2.8,0.3-5.6,0.1-8.4-0.1
		c-1.4-0.1-2.7-0.1-4.1,0c-1.5,0.2-2.9,0.5-4.3,1.2c-2.6,1.2-4.8,3.3-6.4,5.7c-0.5,0.7-0.2,1.9,0.6,2.3c0.8,0.4,1.8,0.2,2.3-0.6
		c0.1-0.2,0.3-0.5,0.5-0.7c0.1-0.1,0.1-0.2,0.2-0.3c-0.3,0.5,0,0,0.1-0.1c0.3-0.4,0.7-0.8,1.1-1.2c0.2-0.2,0.4-0.3,0.6-0.5
		c0.1-0.1,0.2-0.2,0.3-0.3c0.1-0.1,0.3-0.2-0.1,0.1c0.1-0.1,0.1-0.1,0.2-0.2c0.4-0.3,0.9-0.6,1.4-0.9c0.2-0.1,0.4-0.2,0.7-0.3
		c0.1-0.1,0.2-0.1,0.4-0.2c0,0-0.4,0.2-0.1,0.1c0.1,0,0.2-0.1,0.2-0.1c0.5-0.2,1-0.3,1.5-0.5c0.2,0,0.3-0.1,0.5-0.1
		c0.1,0,0.1,0,0.2,0c0.2,0-0.4,0.1-0.1,0c0.3,0,0.6-0.1,0.9-0.1c0.6,0,1.3-0.1,1.9,0c2.6,0.1,5.1,0.3,7.6,0.3
		c2.6-0.1,5.2-0.4,7.6-1.3c2.2-0.8,4.4-2.1,6-3.8c1.8-1.9,3.2-4.5,3.2-7.2c0-2.6-1.4-5-3.2-6.7c-1.5-1.5-3.4-2.6-5.4-3.3
		c-3.9-1.3-8.4-1.1-12,1c-0.4,0.2-0.8,0.5-1.2,0.8c-0.4,0.3-0.7,0.6-0.8,1c-0.1,0.4,0,0.9,0.2,1.3C117.6,43,118.7,43.5,119.5,42.9
		L119.5,42.9z"/>
	<path fill="#FFF100" d="M46.7,119.8c-0.4,0.2-0.9,0.4-1.3,0.6c-0.1,0.1-0.1,0,0.2-0.1c-0.1,0-0.1,0.1-0.2,0.1
		c-0.1,0.1-0.2,0.1-0.4,0.1c-0.2,0.1-0.4,0.2-0.6,0.2c-0.9,0.3-1.8,0.6-2.7,0.8c-0.2,0-0.4,0.1-0.7,0.1c-0.1,0-0.2,0-0.3,0.1
		c-0.4,0.1,0.3,0,0,0c-0.5,0.1-0.9,0.1-1.4,0.1c-0.9,0.1-1.9,0-2.8-0.1c0.1,0,0.3,0,0.4,0.1c-1.2-0.2-2.4-0.5-3.5-0.9
		c0.1,0.1,0.3,0.1,0.4,0.2c-0.8-0.3-1.6-0.7-2.3-1.2c-0.2-0.1-0.4-0.2-0.5-0.4c0,0,0.3,0.3,0.1,0.1c0,0-0.1-0.1-0.1-0.1
		c-0.1-0.1-0.2-0.2-0.3-0.2c-0.3-0.3-0.6-0.6-0.9-0.9c-0.1-0.1-0.3-0.3-0.4-0.5c-0.2-0.2,0.2,0.3,0,0c-0.1-0.1-0.1-0.2-0.2-0.3
		c-0.2-0.3-0.4-0.7-0.6-1c0-0.1-0.1-0.2-0.1-0.3c0,0-0.1-0.1-0.1-0.2c0,0,0.1,0.3,0.1,0.2c-0.1-0.2-0.2-0.4-0.2-0.6
		c-0.1-0.4-0.2-0.8-0.3-1.2c0-0.1,0-0.2-0.1-0.3c0-0.1,0-0.2,0,0c0,0.3,0,0,0,0c0-0.2,0-0.4-0.1-0.6c0-0.5,0-0.9,0-1.4
		c0,0.1,0,0.3-0.1,0.4c0.1-0.7,0.3-1.5,0.5-2.2c-0.1,0.1-0.1,0.3-0.2,0.4c0.2-0.4,0.4-0.8,0.6-1.2c0.1-0.1,0.1-0.2,0.2-0.3
		c0,0,0.1-0.1,0.1-0.1c0.2-0.2-0.1,0.1-0.1,0.1c0.1-0.2,0.3-0.4,0.5-0.6c0.2-0.2,0.3-0.3,0.5-0.5c0.1-0.1,0.2-0.1,0.2-0.2
		c0.1-0.1,0.5-0.4,0.1-0.1c0.4-0.3,0.8-0.5,1.2-0.8c0.4-0.2,0.8-0.5,1.3-0.6c0,0-0.4,0.2-0.1,0.1c0,0,0.1,0,0.1-0.1
		c0.1,0,0.2-0.1,0.3-0.1c0.2-0.1,0.5-0.2,0.7-0.2c0.5-0.2,1-0.3,1.5-0.4c0.3-0.1,0.5-0.1,0.8-0.2c0.1,0,0.2,0,0.4-0.1
		c0.3,0-0.1,0-0.1,0c0.1,0,0.2,0,0.3,0c1.2-0.2,2.4-0.2,3.6,0c-0.1,0-0.3,0-0.4-0.1c4.5,0.5,8.5,3.4,13.1,2.9
		c2.3-0.3,4.4-1.1,6.3-2.2c1.8-1,3.5-2.3,5-3.7c1.7-1.6,3.2-3.5,4.4-5.5c0.5-0.7,0.2-1.9-0.6-2.3c-0.8-0.4-1.8-0.2-2.3,0.6
		c-0.3,0.6-0.7,1.1-1.1,1.6c-0.1,0.1-0.2,0.2-0.3,0.3c-0.2,0.3,0.2-0.3,0,0c0,0.1-0.1,0.1-0.1,0.2c-0.2,0.3-0.4,0.5-0.6,0.8
		c-0.8,1-1.8,1.9-2.8,2.8c-0.2,0.2-0.5,0.4-0.7,0.6c-0.2,0.1,0.3-0.3,0.1-0.1c-0.1,0-0.1,0.1-0.2,0.1c-0.2,0.1-0.3,0.2-0.5,0.3
		c-0.5,0.4-1.1,0.7-1.6,1.1c-0.6,0.3-1.1,0.7-1.7,0.9c-0.1,0.1-0.3,0.1-0.4,0.2c-0.1,0-0.6,0.3-0.2,0.1c-0.3,0.1-0.6,0.2-0.9,0.4
		c-0.4,0.1-0.8,0.2-1.1,0.3c-0.2,0-0.3,0.1-0.5,0.1c-0.1,0-0.2,0-0.3,0.1c0.1,0,0.2,0,0.2,0c-0.1,0-0.1,0-0.2,0
		c-0.8,0.1-1.6,0.1-2.4,0c0.1,0,0.3,0,0.4,0.1c-2.1-0.3-4.1-1.1-6.1-1.7c-2.1-0.7-4.3-1.2-6.5-1.2c-2.1,0-4.3,0.4-6.2,1.2
		c-1.9,0.7-3.7,1.8-5.1,3.3c-0.7,0.7-1.2,1.5-1.6,2.4c-0.4,1-0.7,2-0.8,3.1c-0.2,2,0.2,3.9,1,5.7c1.6,3.7,5.4,6.1,9.2,6.9
		c4.2,0.9,8.4,0.1,12.3-1.6c0.5-0.2,0.9-0.4,1.3-0.6c0.8-0.4,1.1-1.6,0.6-2.3C48.5,119.6,47.6,119.4,46.7,119.8L46.7,119.8z"/>
	<path fill="#FFF100" d="M85.9,133.2c-0.1,0.5-0.3,0.9-0.5,1.3c0.1-0.1,0.1-0.3,0.2-0.4c-0.6,1.4-1.3,2.8-2.2,4
		c-0.1,0.2-0.2,0.3-0.3,0.5c0.3-0.4,0.1-0.1,0,0c-0.1,0.1-0.1,0.2-0.2,0.2c-0.2,0.3-0.5,0.6-0.7,0.9c-0.5,0.6-1.1,1.1-1.6,1.6
		c-0.3,0.3-0.6,0.5-0.9,0.7c0.4-0.4,0,0-0.1,0.1c-0.2,0.1-0.4,0.3-0.6,0.4c-0.6,0.4-1.3,0.8-2,1.2c-0.3,0.2-0.7,0.3-1,0.5
		c-0.1,0-0.1,0.1-0.2,0.1c0.5-0.2,0.1-0.1,0,0c-0.2,0.1-0.4,0.2-0.6,0.2c-0.7,0.3-1.4,0.5-2.2,0.7c-0.4,0.1-0.8,0.2-1.2,0.2
		c0.5-0.1,0.2,0,0.1,0c-0.1,0-0.3,0-0.4,0c-0.2,0-0.4,0-0.7,0.1c-0.9,0-1.7,0-2.6-0.1c0.1,0,0.3,0,0.4,0.1c-1.1-0.1-2.1-0.4-3.1-0.8
		c0.1,0.1,0.3,0.1,0.4,0.2c-0.8-0.3-1.5-0.7-2.2-1.2c-0.2-0.1-0.3-0.2-0.5-0.3c-0.1-0.1,0.2,0.1,0.2,0.1c0,0-0.1-0.1-0.1-0.1
		c-0.1-0.1-0.2-0.1-0.3-0.2c-0.3-0.3-0.6-0.5-0.9-0.8c-0.1-0.1-0.3-0.3-0.4-0.4c-0.1-0.1-0.1-0.2-0.2-0.2c-0.1-0.1,0.1,0.2,0.1,0.2
		c0,0-0.1-0.1-0.1-0.2c-0.2-0.3-0.5-0.7-0.7-1c-0.1-0.2-0.2-0.3-0.3-0.5c0-0.1-0.1-0.2-0.1-0.2c0.2,0.5,0.1,0.1,0,0
		c-0.1-0.4-0.3-0.8-0.4-1.2c0-0.1,0-0.2-0.1-0.3c0-0.1,0-0.1,0-0.2c-0.1-0.4,0,0.3,0,0.1c0-0.3-0.1-0.5-0.1-0.8c0-0.6,0-1.1,0.1-1.7
		c0,0.1,0,0.3-0.1,0.4c0.2-1.5,0.6-2.9,1.2-4.3c-0.1,0.1-0.1,0.3-0.2,0.4c0.6-1.5,1.4-3,2.3-4.3c0.1-0.2,0.2-0.3,0.3-0.5
		c0.1-0.1,0.3-0.3,0,0c0.1-0.1,0.1-0.2,0.2-0.2c0.2-0.3,0.5-0.6,0.8-0.9c0.6-0.6,1.2-1.2,1.8-1.7c0.2-0.2-0.1,0.1-0.1,0.1
		c0.1,0,0.2-0.1,0.2-0.2c0.2-0.1,0.3-0.2,0.5-0.4c0.4-0.2,0.7-0.5,1.1-0.7c0.7-0.4,1.4-0.8,2.1-1.2c1.4-0.8,2.9-1.5,4.2-2.4
		c4.9-3.3,8.5-8.6,9.9-14.4c0.8-3.3,0.8-6.7,0.1-10c-0.2-0.9-1.2-1.4-2.1-1.2c-0.9,0.3-1.4,1.1-1.2,2.1c0.1,0.3,0.1,0.6,0.2,0.8
		c0,0.1,0,0.4,0.1,0.4c0,0-0.1-0.4,0-0.2c0,0.1,0,0.2,0,0.3c0.1,0.6,0.1,1.1,0.1,1.7c0,1.1,0,2.3-0.1,3.4c0-0.1,0-0.3,0.1-0.4
		c-0.2,1.9-0.7,3.8-1.5,5.6c0.1-0.1,0.1-0.3,0.2-0.4c-0.5,1.1-1,2.2-1.6,3.2c-0.3,0.5-0.6,1-1,1.5c-0.1,0.1-0.2,0.2-0.3,0.3
		c-0.2,0.2,0.1-0.1,0.1-0.1c0,0.1-0.1,0.1-0.2,0.2c-0.2,0.2-0.4,0.5-0.6,0.7c-0.8,0.9-1.6,1.8-2.6,2.5c-0.1,0.1-0.2,0.2-0.3,0.3
		c-0.1,0.1-0.3,0.2,0.1-0.1c-0.1,0-0.1,0.1-0.2,0.1c-0.2,0.2-0.5,0.4-0.7,0.5c-0.6,0.4-1.1,0.7-1.7,1.1c-2.6,1.5-5.2,2.6-7.5,4.5
		c-2.2,1.8-3.9,4.3-5.1,6.9c-1.3,2.7-2.3,5.8-1.9,8.9c0.3,2.7,1.7,5.2,3.8,7c2,1.7,4.5,2.9,7.2,3.2c2.9,0.4,5.8,0,8.5-1.1
		c5.3-2,9.7-6.2,11.9-11.4c0.3-0.7,0.6-1.4,0.8-2.1c0.3-0.8-0.4-1.9-1.2-2C87,131.8,86.2,132.3,85.9,133.2L85.9,133.2z"/>
	<path fill="#FFF100" d="M119.9,121.9c0.1,0.1,0.2,0.2,0.2,0.3c0.1,0.1,0.2,0.4,0,0c0.1,0.2,0.3,0.3,0.4,0.5
		c0.2,0.3,0.5,0.7,0.7,1.1c0.2,0.3,0.4,0.7,0.5,1c0.1,0.3-0.2-0.4,0,0c0,0.1,0.1,0.2,0.1,0.3c0.1,0.2,0.1,0.4,0.2,0.6
		c0.1,0.4,0.2,0.8,0.3,1.2c0,0.2,0.1,0.4,0.1,0.6c0.1,0.3-0.1-0.4,0,0c0,0.1,0,0.2,0,0.3c0.1,0.8,0.1,1.6,0,2.5c0-0.1,0-0.3,0.1-0.4
		c-0.1,0.9-0.4,1.9-0.7,2.8c0.1-0.1,0.1-0.3,0.2-0.4c-0.2,0.5-0.4,0.9-0.7,1.4c-0.1,0.2-0.2,0.4-0.4,0.6c-0.1,0.1-0.1,0.2-0.2,0.3
		c0,0.1-0.1,0.1-0.1,0.2c-0.2,0.3,0.1-0.1,0.1-0.1c0,0-0.4,0.5-0.5,0.6c-0.2,0.2-0.4,0.4-0.6,0.6c-0.4,0.4-0.7,0.7-1.1,1
		c-0.2,0.2,0.1-0.1,0.1-0.1c-0.1,0-0.1,0.1-0.2,0.1c-0.1,0.1-0.2,0.1-0.3,0.2c-0.2,0.2-0.5,0.3-0.7,0.5c-0.4,0.3-0.9,0.5-1.4,0.7
		c-0.3,0.1,0.3-0.1,0.1,0c-0.1,0-0.1,0-0.2,0.1c-0.1,0.1-0.3,0.1-0.4,0.1c-0.3,0.1-0.5,0.2-0.8,0.3c-0.5,0.1-1,0.3-1.5,0.3
		c-0.3,0.1,0.3,0,0.1,0c-0.1,0-0.2,0-0.2,0c-0.2,0-0.3,0-0.5,0c-0.3,0-0.6,0-0.9,0c-0.6,0-1.2,0-1.9-0.1c0.1,0,0.3,0,0.4,0.1
		c-1.2-0.1-2.3-0.4-3.4-0.9c0.1,0.1,0.3,0.1,0.4,0.2c-0.9-0.4-1.7-0.8-2.5-1.4c0,0-0.1-0.1-0.1-0.1c0,0,0.3,0.2,0.2,0.1
		c-0.1-0.1-0.2-0.1-0.3-0.2c-0.2-0.2-0.4-0.3-0.5-0.5c-0.1-0.1-0.3-0.3-0.4-0.5c-0.1-0.1-0.2-0.2-0.2-0.3c0,0-0.1-0.1-0.1-0.1
		c0.1,0.1,0.2,0.3,0.1,0.1c-0.3-0.4-0.5-0.8-0.8-1.2c-0.1-0.2-0.2-0.4-0.3-0.6c-0.1-0.1-0.2-0.5,0,0c0-0.1-0.1-0.2-0.1-0.3
		c-0.2-0.4-0.3-0.9-0.4-1.3c-0.1-0.2-0.1-0.5-0.1-0.7c0-0.1,0-0.2-0.1-0.3c0-0.2,0.1,0.4,0,0.2c0-0.1,0-0.1,0-0.2
		c-0.1-1.1-0.1-2.2,0-3.3c0,0.1,0,0.3-0.1,0.4c0.2-1.9,0.8-3.7,1.5-5.5c-0.1,0.1-0.1,0.3-0.2,0.4c1.5-3.8,4-7.3,4.5-11.4
		c0.4-3.4-1.2-6.6-3.1-9.2c-1.2-1.5-2.4-3-3.8-4.4c-0.6-0.6-1.8-0.6-2.4,0c-0.6,0.7-0.6,1.7,0,2.4c0.7,0.7,1.3,1.4,1.9,2.1
		c0.3,0.3,0.6,0.7,0.9,1.1c0.1,0.1,0.2,0.2,0.2,0.3c0,0,0.1,0.1,0.1,0.1c0,0-0.2-0.3-0.1-0.2c0.1,0.2,0.3,0.4,0.4,0.6
		c0.5,0.7,1,1.5,1.5,2.3c0.1,0.2,0.2,0.4,0.3,0.6c0,0,0,0.1,0.1,0.1c0.1,0.2-0.1-0.3-0.1-0.2c0,0.1,0.1,0.2,0.1,0.4
		c0.2,0.4,0.3,0.8,0.4,1.2c0.1,0.2,0.1,0.5,0.1,0.7c0,0.1,0,0.3,0,0c0-0.3,0,0,0,0c0,0.1,0,0.2,0,0.3c0,0.6,0,1.2,0,1.8
		c0-0.1,0-0.3,0.1-0.4c-0.1,1.2-0.5,2.3-1,3.4c0.1-0.1,0.1-0.3,0.2-0.4c-0.9,2.3-2.2,4.4-3.2,6.7c-1,2.4-1.8,4.9-2,7.6
		c-0.1,2,0.2,4.1,1,6c0.5,1.1,1.1,2.1,1.8,3.1c0.7,0.9,1.5,1.6,2.4,2.2c1.7,1.2,3.8,2,5.8,2.3c2.2,0.3,4.5,0.3,6.7-0.4
		c2.1-0.6,4-1.8,5.7-3.2c1.6-1.4,2.8-3.2,3.5-5.2c1.5-4,0.7-8.6-1.7-12.1c-0.3-0.5-0.7-1-1.1-1.4c-0.6-0.7-1.8-0.6-2.4,0
		C119.2,120.3,119.3,121.2,119.9,121.9L119.9,121.9z"/>
	<path fill="#FFF100" d="M118,98.5C117.6,98.2,117.9,98.5,118,98.5c0.2,0.1,0.3,0.2,0.4,0.3c0.2,0.2,0.4,0.4,0.7,0.5
		c0.4,0.4,0.8,0.7,1.2,1.1c0.8,0.7,1.5,1.5,2.1,2.3c0.1,0.1,0.2,0.2,0.2,0.3c0,0.1,0.1,0.1,0.1,0.2c0.2,0.2-0.1-0.1-0.1-0.1
		c0.2,0.2,0.3,0.4,0.5,0.7c0.3,0.4,0.6,0.9,0.9,1.3c0.5,0.9,1,1.7,1.5,2.6c0.9,1.8,1.7,3.7,2.8,5.4c1.3,1.9,3,3.5,5.1,4.5
		c2.2,1.1,4.6,1.7,7,1.9c2.4,0.2,4.8-0.2,6.8-1.6c1.9-1.3,3.2-3.1,4.5-5c1.3-2,2.3-4.4,2.2-6.9c-0.3-4.1-3.3-7.5-6.2-10
		c-0.4-0.3-0.7-0.6-1.1-0.9c-0.4-0.3-0.7-0.5-1.2-0.5c-0.4,0-0.9,0.2-1.2,0.5c-0.6,0.6-0.7,1.8,0,2.4c1.4,1.2,2.8,2.4,4,3.8
		c0.1,0.2,0.3,0.3,0.4,0.5c0.1,0.2-0.2-0.3-0.1-0.1c0,0,0.1,0.1,0.1,0.1c0.1,0.1,0.2,0.2,0.2,0.3c0.3,0.4,0.5,0.7,0.7,1.1
		c0.2,0.3,0.5,0.7,0.6,1.1c0,0-0.2-0.4-0.1-0.2c0,0,0,0.1,0,0.1c0,0.1,0.1,0.2,0.1,0.3c0.1,0.2,0.1,0.4,0.2,0.6
		c0.1,0.2,0.1,0.5,0.2,0.7c0,0,0,0.1,0,0.1c0,0.3,0-0.1,0-0.2c0,0.1,0,0.2,0,0.4c0,0.5,0,0.9,0,1.4c0-0.1,0-0.3,0.1-0.4
		c-0.1,0.7-0.3,1.5-0.6,2.1c0.1-0.1,0.1-0.3,0.2-0.4c-0.4,1-1,2-1.6,2.9c-0.3,0.4-0.6,0.8-0.9,1.2c-0.2,0.3,0.2-0.2,0,0
		c-0.1,0.1-0.1,0.2-0.2,0.2c-0.2,0.2-0.3,0.4-0.5,0.6c-0.3,0.3-0.6,0.7-1,1c-0.1,0.1-0.2,0.1-0.2,0.2c-0.1,0.1-0.4,0.3,0,0
		c-0.2,0.1-0.4,0.3-0.6,0.4c-0.2,0.1-0.4,0.2-0.6,0.3c-0.1,0-0.2,0.1-0.3,0.1c-0.2,0.1,0.2-0.1,0.2-0.1c-0.1,0-0.1,0.1-0.2,0.1
		c-0.5,0.2-1,0.3-1.5,0.4c0,0,0.4,0,0.2,0c-0.1,0-0.2,0-0.3,0c-0.1,0-0.3,0-0.4,0c-0.3,0-0.6,0-0.9,0c-0.6,0-1.2,0-1.8-0.1
		c0.1,0,0.3,0,0.4,0.1c-1.5-0.2-2.9-0.5-4.3-1.1c0.1,0.1,0.3,0.1,0.4,0.2c-0.8-0.3-1.6-0.7-2.3-1.2c-0.2-0.1-0.3-0.2-0.5-0.4
		c0,0-0.1-0.1-0.1-0.1c-0.1-0.1,0.2,0.1,0.2,0.1c-0.1-0.1-0.2-0.2-0.3-0.2c-0.3-0.3-0.6-0.5-0.9-0.8c-0.1-0.1-0.3-0.3-0.4-0.5
		c-0.1-0.1-0.1-0.1-0.2-0.2c-0.2-0.3,0.2,0.3,0,0c-0.2-0.3-0.5-0.7-0.7-1c-0.4-0.7-0.8-1.4-1.2-2.1c-0.7-1.5-1.4-3-2.2-4.4
		c-0.9-1.6-2-3.1-3.2-4.4c-1.4-1.6-3-3-4.6-4.3c-0.3-0.2-0.9-0.3-1.3-0.2c-0.4,0.1-0.8,0.4-1,0.8c-0.2,0.4-0.3,0.9-0.2,1.3
		C117.4,97.9,117.6,98.2,118,98.5L118,98.5z"/>
	<path fill="#FFF100" d="M9.9,62.1c0.4-1.4,0.8-2.7,1.4-4c-0.1,0.1-0.1,0.3-0.2,0.4c0.3-0.8,0.7-1.5,1-2.3c0.4-0.8,0.2-1.8-0.6-2.3
		c-0.8-0.4-1.9-0.2-2.3,0.6c-1,2.1-1.9,4.4-2.5,6.7c-0.2,0.8,0.3,1.9,1.2,2C8.8,63.5,9.7,63,9.9,62.1L9.9,62.1z"/>
	<path fill="#FFF100" d="M5.4,59.3c0.8,0,1.5,0.1,2.3,0.1c-0.1,0-0.3,0-0.4-0.1c1.7,0.2,3.3,0.6,4.9,1.2c0.4,0.1,0.9,0,1.3-0.2
		c0.4-0.2,0.7-0.6,0.8-1c0.1-0.4,0.1-0.9-0.2-1.3c-0.3-0.4-0.6-0.6-1-0.8C10.6,56.4,8,56,5.4,56c-0.9,0-1.7,0.8-1.6,1.7
		C3.8,58.6,4.5,59.3,5.4,59.3L5.4,59.3z"/>
	<path fill="#FFF100" d="M7,107.5c-0.2,0.2-0.5,0.4-0.7,0.6c-0.3,0.3-0.5,0.8-0.5,1.2c0,0.4,0.1,0.7,0.4,1c0.5,0.6,1.4,0.9,2.2,0.4
		c1.4-0.8,2.7-1.6,4.2-2.3c0.7-0.3,1.4-0.7,2.1-1c0.1,0,0.2-0.1,0.2-0.1c0,0,0.1,0,0.1-0.1c0.1,0,0.1,0-0.1,0.1c0,0,0.5-0.2,0.5-0.2
		c0.4-0.2,0.8-0.3,1.1-0.5c0.4-0.2,0.8-0.4,1-0.8c0.2-0.4,0.3-0.9,0.2-1.3c-0.3-0.8-1.2-1.5-2.1-1.2c-3.1,1.2-6.1,2.7-9,4.4
		c0.7,0.9,1.4,1.7,2,2.6c0.2-0.2,0.5-0.4,0.7-0.6c0.7-0.6,0.6-1.8,0-2.4C8.6,106.8,7.7,106.9,7,107.5L7,107.5z"/>
	<path fill="#FFF100" d="M8.2,104.2c1.6,2.3,3.2,4.5,4.8,6.8c0.3,0.4,0.6,0.7,1,0.8c0.4,0.1,0.9,0,1.3-0.2c0.7-0.5,1.1-1.5,0.6-2.3
		c-1.6-2.3-3.2-4.5-4.8-6.8c-0.3-0.4-0.6-0.7-1-0.8c-0.4-0.1-0.9,0-1.3,0.2C8.1,102.3,7.7,103.4,8.2,104.2L8.2,104.2z"/>
	<path fill="#FFF100" d="M160.2,108.7c1.5-2.4,3-4.8,4.6-7.2c0.5-0.7,0.2-1.9-0.6-2.3c-0.8-0.4-1.8-0.2-2.3,0.6
		c-1.5,2.4-3,4.8-4.6,7.2c-0.5,0.7-0.2,1.9,0.6,2.3C158.7,109.7,159.7,109.4,160.2,108.7L160.2,108.7z"/>
	<path fill="#FFF100" d="M157.3,101.7c3,1.1,5.9,2.2,8.9,3.3c0.4,0.1,0.9,0,1.3-0.2c0.4-0.2,0.7-0.6,0.8-1c0.1-0.4,0.1-0.9-0.2-1.3
		c-0.3-0.4-0.6-0.6-1-0.8c-3-1.1-5.9-2.2-8.9-3.3c-0.4-0.1-0.9,0-1.3,0.2c-0.4,0.2-0.7,0.6-0.8,1c-0.1,0.4-0.1,0.9,0.2,1.3
		C156.5,101.3,156.8,101.5,157.3,101.7L157.3,101.7z"/>
	<path fill="#FFF100" d="M154.3,62.3c2.1-0.6,4.3-1.3,6.4-1.9c0.8-0.2,1.4-1.2,1.2-2.1c-0.3-0.9-1.2-1.4-2.1-1.2
		c-2.1,0.6-4.3,1.3-6.4,1.9c-0.8,0.2-1.4,1.2-1.2,2.1C152.5,62,153.4,62.6,154.3,62.3L154.3,62.3z"/>
	<path fill="#FFF100" d="M154.7,56.5c0.6,2.1,1.1,4.3,1.7,6.4c0.2,0.8,1.2,1.4,2.1,1.2c0.9-0.3,1.4-1.2,1.2-2.1
		c-0.6-2.1-1.1-4.3-1.7-6.4c-0.2-0.8-1.2-1.4-2.1-1.2C155,54.8,154.5,55.6,154.7,56.5L154.7,56.5z"/>
	<path fill="#FFF100" d="M12.6,40.6c-0.3,1,0.4,1.8,1.1,2.3c0.7,0.4,1.5,0.8,2.2,1.2c1.5,0.8,3,1.7,4.6,2.5
		c-0.2-0.4-0.3-0.8-0.5-1.2c0-0.1,0.1-0.2,0.3-0.3c0.1-0.2,0.3-0.2,0.6-0.2c-0.6-0.1-1.2,0.2-1.4,0.8c-0.1,0.6,0.2,1.2,0.8,1.4
		c0.8,0.2,1.6-0.3,1.9-1.1c0.1-0.5-0.1-1-0.5-1.2c-1.4-0.7-2.7-1.5-4.1-2.2c-0.7-0.4-1.3-0.7-2-1.1c-0.2-0.1-0.3-0.2-0.5-0.3
		C15,41,14.9,41,14.9,41c0,0-0.2-0.1-0.1,0c0.1,0.1,0,0-0.1-0.1c0,0,0,0-0.1-0.1c-0.1-0.1-0.1-0.1,0,0c0.1,0.1,0.1,0.1,0,0
		c0,0,0,0.1,0.1,0.1c0,0.1,0,0.4,0,0.2c0.1-0.6-0.2-1.2-0.8-1.4C13.3,39.7,12.7,40,12.6,40.6L12.6,40.6z"/>
	<path fill="#FFF100" d="M19.2,43.8c0.3-2.5,0.6-5,0.9-7.5c0-0.3,0-0.6-0.1-0.8c-0.1-0.2-0.4-0.5-0.7-0.5c-0.5-0.1-1.3,0.2-1.4,0.8
		c-0.3,2.5-0.6,5-0.9,7.5c0,0.3,0,0.6,0.1,0.8c0.1,0.2,0.4,0.5,0.7,0.5C18.3,44.7,19.1,44.4,19.2,43.8L19.2,43.8z"/>
	<path fill="#FFF100" d="M19,42.4c0.1-0.1,0.3-0.1,0.4-0.2c0.1,0,0.2-0.1,0.3-0.1c0.1,0,0.1,0,0,0c0.3-0.1,0.6-0.3,1-0.4
		c0.6-0.2,1.3-0.4,1.9-0.5c0.3-0.1,0.6-0.1,1-0.2c-0.2,0,0,0,0.1,0c0.1,0,0.2,0,0.2,0c0.2,0,0.3,0,0.5-0.1c0.7-0.1,1.4-0.1,2.1-0.1
		c0.6,0,1.1-0.6,1.1-1.1c0-0.6-0.5-1.1-1.1-1.1c-3-0.1-5.9,0.6-8.6,1.9c-0.5,0.3-0.7,1-0.4,1.5C17.8,42.6,18.4,42.7,19,42.4L19,42.4
		z"/>
	<path fill="#FFF100" d="M23.6,33c2-2.7,4-5.4,6.1-8.1c0.4-0.5,0.1-1.3-0.4-1.5c-0.6-0.3-1.1-0.1-1.5,0.4c-2,2.7-4,5.4-6.1,8.1
		c-0.4,0.5-0.1,1.3,0.4,1.5C22.6,33.8,23.2,33.5,23.6,33L23.6,33z"/>
	<path fill="#FFF100" d="M25.3,31.3c1.6,0.9,3.2,1.9,4.7,2.9c0.5,0.3,1.3,0.1,1.5-0.4c0.3-0.6,0.1-1.2-0.4-1.5
		c-1.5-1.1-3.1-2-4.7-2.9c-0.5-0.3-1.2-0.1-1.5,0.4C24.6,30.3,24.8,31,25.3,31.3L25.3,31.3z"/>
	<path fill="#FFF100" d="M37.6,24.6c-0.2,0.1-0.4,0.1-0.7,0.1c0.2,0,0,0-0.1,0c-0.1,0-0.3,0-0.4,0c-0.2,0-0.4,0-0.7,0
		c-0.1,0-0.2,0,0,0c0,0-0.1,0-0.1,0c-0.1,0-0.2,0-0.4-0.1c-0.1,0-0.2-0.1-0.3-0.1c-0.1,0-0.3-0.1-0.1,0c-0.2-0.1-0.4-0.2-0.6-0.3
		c-0.1-0.1,0.1,0.1,0,0c0,0-0.1-0.1-0.1-0.1c-0.1-0.1-0.1-0.1-0.2-0.2c0,0-0.1-0.2-0.2-0.2c0,0,0.1,0.2,0.1,0.1
		c0-0.1-0.1-0.1-0.1-0.2c0-0.1-0.1-0.1-0.1-0.2c0,0-0.2-0.3-0.1-0.2c0.1,0.1,0-0.1-0.1-0.2c0-0.1-0.1-0.2-0.1-0.3
		c0-0.1,0-0.2-0.1-0.3c0-0.1,0,0.1,0,0.1c0,0,0-0.1,0-0.2c0-0.2,0-0.4,0-0.6c0,0,0-0.3,0-0.2c0,0.2,0-0.1,0-0.2
		c0-0.2,0.1-0.4,0.2-0.6c0-0.1,0,0.1,0,0.1c0,0,0.1-0.1,0.1-0.1c0-0.1,0.1-0.1,0.1-0.2c0-0.1,0.1-0.2,0.2-0.2c0,0,0.1-0.1,0.1-0.1
		c-0.1,0.1-0.1,0.1,0,0.1c0,0,0,0,0.1-0.1c0.1-0.1,0.3-0.3,0.4-0.4c0,0,0.1-0.1,0.1-0.1c0,0-0.2,0.2,0,0c0.1-0.1,0.2-0.1,0.2-0.2
		c0.2-0.1,0.3-0.2,0.5-0.3c0.1-0.1-0.1,0-0.1,0c0.1,0,0.1,0,0.2-0.1c0.1,0,0.2-0.1,0.3-0.1c0.1,0,0.2,0,0.3-0.1c0,0,0.3,0,0.1,0
		c-0.2,0,0.1,0,0.2,0c0.1,0,0.2,0,0.3,0c0.1,0,0.2,0,0.3,0c0,0,0.1,0,0.1,0c0,0-0.2,0,0,0c0.2,0,0.4,0.1,0.6,0.1
		c0,0,0.3,0.1,0.2,0.1c-0.1-0.1,0.1,0.1,0.2,0.1c0.2,0.1,0.4,0.2,0.6,0.3c0.1,0,0.3,0.2,0.1,0.1c0.1,0.1,0.1,0.1,0.2,0.2
		c0.2,0.1,0.3,0.3,0.5,0.5c0.1,0.1,0.2,0.3,0.1,0.1c0.1,0.1,0.1,0.2,0.2,0.3c0.1,0.2,0.2,0.4,0.3,0.6c0,0.1,0.1,0.2,0,0.1
		c0,0.1,0.1,0.2,0.1,0.3c0.1,0.2,0.1,0.5,0.2,0.7c0,0,0,0.2,0,0c0-0.1,0,0.1,0,0.1c0,0.1,0,0.3,0,0.4c0,0.1,0,0.3,0,0.4
		c0,0,0-0.2,0-0.1c0,0.1,0,0.2,0,0.2c0,0.1-0.1,0.2-0.1,0.4c0,0,0,0.1,0,0.1c0,0.2,0.1-0.2,0,0c-0.1,0.1-0.1,0.2-0.2,0.3
		c0,0,0,0.1-0.1,0.1c0,0,0,0,0,0.1c0,0.1,0,0,0-0.1c0,0-0.2,0.2-0.2,0.2c0,0-0.1,0.1-0.1,0.1c0,0-0.2,0.1,0,0c0.1-0.1,0,0-0.1,0
		c0,0-0.1,0.1-0.1,0.1c-0.1,0.1-0.2,0.1-0.3,0.2c-0.1,0.1,0.2-0.1,0,0c-0.1,0-0.1,0-0.2,0.1c-0.1,0-0.2,0.1-0.3,0.1
		c-0.1,0,0.1,0,0.1,0c0,0-0.2,0-0.2,0c-0.1,0-0.5,0-0.2,0c-0.6-0.1-1.2,0.2-1.4,0.8c-0.1,0.5,0.2,1.3,0.8,1.4c1.2,0.2,2.4-0.2,3.3-1
		c0.9-0.8,1.4-2,1.5-3.2c0.2-2.3-1.3-4.6-3.3-5.7c-2-1.1-4.5-0.8-6.3,0.6c-1.6,1.3-2.2,3.7-1.4,5.7c0.5,1.3,1.5,2.2,2.8,2.7
		c1.3,0.5,2.7,0.4,4,0.1c0.6-0.2,1-0.8,0.8-1.4C38.8,24.8,38.2,24.4,37.6,24.6L37.6,24.6z"/>
	<path fill="#FFF100" d="M50.1,18c0.9-1.9,1.7-3.8,2.6-5.7c0.4-0.9,0.8-1.9,1.3-2.8C54.1,9,54.3,8.5,54.5,8c0.1-0.2,0.2-0.4,0.3-0.6
		c0-0.1,0.2-0.3,0,0c0.1-0.1,0.1-0.1-0.1,0c-0.2,0.1-0.2,0.1-0.1,0c0.6-0.1,0.9-0.8,0.8-1.4c-0.2-0.6-0.8-0.9-1.4-0.8
		c-1.1,0.3-1.5,1.5-1.9,2.4c-0.5,1-0.9,2-1.4,3c-0.9,2-1.8,4-2.7,6c-0.2,0.5-0.2,1.2,0.4,1.5C49.1,18.6,49.8,18.5,50.1,18L50.1,18z"
		/>
	<path fill="#FFF100" d="M46.1,11.4c1.9,0.8,3.7,1.7,5.6,2.5c0.8,0.4,1.7,0.7,2.5,1.1c0.2,0.1,0.3,0.2,0.5,0.3c0,0,0.2,0.1,0.2,0.1
		c-0.1-0.1-0.1-0.1,0,0c0,0,0,0,0.1,0.1c0.1,0.1,0.2,0.1,0.2,0.2c0.2,0.2-0.1-0.2,0,0c0,0.1,0.1,0.1,0.1,0.2c0.1,0.1,0,0.1,0,0
		c0,0.1,0,0.1,0,0.2c0.2,0.6,0.8,1,1.4,0.8c0.6-0.2,0.9-0.8,0.8-1.4c-0.6-1.9-2.7-2.6-4.4-3.3c-2-0.9-4-1.8-5.9-2.7
		c-0.5-0.2-1.2-0.2-1.5,0.4C45.4,10.4,45.5,11.2,46.1,11.4L46.1,11.4z"/>
	<path fill="#FFF100" d="M62.6,10.3c-0.5,0-1,0.1-1.4,0.1c-0.2,0-0.4,0-0.7,0c0,0-0.2,0-0.1,0c0.1,0-0.1,0-0.1,0
		c-0.1,0-0.3-0.1-0.4-0.1c-0.1,0-0.2-0.1-0.3-0.1c0,0-0.1,0-0.1,0c-0.1,0,0.1,0,0.1,0c0,0-0.2-0.1-0.2-0.1C59.2,10,59.1,9.9,59,9.8
		c0,0-0.2-0.1-0.2-0.1c0,0,0.2,0.1,0.1,0c0,0-0.1-0.1-0.1-0.1c-0.1-0.1-0.1-0.1-0.2-0.2c0,0-0.1-0.1-0.1-0.1c0,0-0.1-0.2,0,0
		c0.1,0.1-0.1-0.1-0.1-0.2c0,0-0.1-0.2-0.1-0.2c0,0,0.1,0.2,0,0.1c0,0,0-0.1,0-0.1c0,0-0.1-0.3-0.1-0.2c0,0.1,0-0.1,0-0.2
		c0-0.1,0-0.1,0-0.2c0-0.2,0-0.1,0,0c0-0.1,0-0.2,0.1-0.3c0,0,0-0.1,0-0.1c0-0.2-0.1,0.1,0,0c0.1-0.2,0.2-0.3,0.3-0.5
		c0,0,0-0.1,0.1-0.1c0.1-0.2,0,0,0,0c0,0,0.2-0.2,0.2-0.2c0.1-0.1,0.2-0.2,0.4-0.3c0,0,0.1-0.1,0.1-0.1c0,0-0.2,0.1-0.1,0
		c0.1-0.1,0.2-0.1,0.3-0.2c0.1-0.1,0.3-0.2,0.4-0.2c0,0,0.1-0.1,0.1-0.1c0,0-0.2,0.1-0.1,0c0.1,0,0.2-0.1,0.3-0.1
		c0.2-0.1,0.3-0.1,0.5-0.1c0,0,0.3,0,0.1,0c-0.1,0,0.1,0,0.2,0c0.2,0,0.4,0,0.5,0c0,0,0.3,0,0.1,0c-0.2,0,0.1,0,0.2,0
		c0.2,0,0.3,0.1,0.5,0.1c0.1,0-0.1,0-0.1,0c0,0,0.1,0,0.1,0.1c0.1,0,0.2,0.1,0.3,0.1c0.1,0.1,0.3,0.2,0.4,0.3c0,0,0.1,0.1,0,0
		c-0.1-0.1,0,0,0,0c0.1,0.1,0.1,0.1,0.2,0.2c0.1,0.1,0.2,0.2,0.3,0.4c0.1,0.2-0.1-0.1,0,0C63.9,7.4,64,7.5,64,7.6
		c0.1,0.1,0.2,0.3,0.2,0.4c0.1,0.2-0.1-0.2,0,0c0,0.1,0.1,0.2,0.1,0.3c0.1,0.2,0.1,0.3,0.1,0.5c0,0.2,0-0.2,0,0c0,0.1,0,0.2,0,0.3
		c0,0.1,0,0.2,0,0.3c0,0,0,0.1,0,0.1c0,0.2,0,0,0,0c0.1,0-0.1,0.5-0.1,0.6c0,0-0.1,0.2,0,0c0-0.1,0,0,0,0.1
		c-0.1,0.1-0.1,0.2-0.2,0.3c0,0,0,0.1-0.1,0.1c0.1,0,0.1-0.1,0,0c0,0-0.1,0.1-0.1,0.1c0,0-0.2,0.1,0,0.1c0.1-0.1,0,0,0,0
		c0,0-0.1,0.1-0.1,0.1c0,0-0.1,0,0,0c0.2,0,0,0-0.1,0c0,0-0.1,0.1,0,0c0.1-0.1,0,0,0,0c0,0-0.3,0-0.3,0c0,0,0.2,0.1,0.1,0
		c0,0-0.1,0-0.1,0c0,0-0.1,0-0.1,0c0,0,0.3,0.1,0,0c0,0-0.1-0.1-0.1-0.1c0,0,0.2,0.2,0.1,0c0,0-0.1-0.1,0,0c0.1,0.1,0-0.1,0-0.1
		c-0.3-0.5-1-0.7-1.5-0.4c-0.5,0.3-0.7,1-0.4,1.5c0.6,1.1,1.9,1.4,3,1.2c1.2-0.3,1.9-1.3,2.3-2.4c0.6-1.9-0.2-4.1-1.7-5.5
		c-1.5-1.4-3.7-1.8-5.7-1c-2,0.8-3.9,3-3.1,5.3c0.4,1.1,1.3,2,2.3,2.5c1.3,0.6,2.8,0.6,4.2,0.5c0.6,0,1.1-0.5,1.1-1.1
		C63.7,10.8,63.2,10.3,62.6,10.3L62.6,10.3z"/>
	<path fill="#FFF100" d="M69.5,3.7c0-0.1,0-0.1,0-0.2c-0.7,0.1-1.5,0.2-2.2,0.3c0.2,1,0.4,2,0.7,3c0.2,0.5,0.3,1,0.5,1.5
		c0.2,0.6,0.5,1.2,1.2,1.4c0.7,0.3,1.3,0,1.9-0.2c0.5-0.2,1.1-0.4,1.6-0.6c1.1-0.4,2.2-0.8,3.2-1.2c0.5-0.2,1-0.8,0.8-1.4
		c-0.2-0.5-0.8-1-1.4-0.8c-1,0.3-1.9,0.7-2.9,1c-0.5,0.2-1,0.3-1.4,0.5c-0.3,0.1-0.5,0.2-0.8,0.3c-0.1,0-0.2,0.1-0.3,0.1
		c-0.1,0-0.1,0-0.2,0.1c-0.1,0-0.1,0,0,0c0.1,0,0.2,0,0.4,0.1c0.1,0,0.1,0.1,0.2,0.2c0,0-0.1-0.2-0.1-0.2c0.1,0.1,0.1,0.1,0,0.1
		c0,0,0-0.1-0.1-0.1c0-0.1-0.1-0.2-0.1-0.3c-0.2-0.4-0.3-0.9-0.4-1.3c-0.3-0.9-0.5-1.8-0.6-2.7c-0.1-0.5-0.7-0.9-1.2-0.8
		c-0.5,0.1-1,0.6-1,1.1c0,0.1,0,0.1,0,0.2c0.1,0.6,0.5,1.1,1.1,1.1C68.9,4.8,69.5,4.3,69.5,3.7L69.5,3.7z"/>
	<path fill="#FFF100" d="M74,1.5c-0.5,2.9-0.1,5.7,1,8.3c0.2,0.5,1.1,0.7,1.5,0.4c0.6-0.4,0.6-1,0.4-1.5c0.1,0.1,0,0,0-0.1
		c0-0.1,0-0.1-0.1-0.2c-0.1-0.1-0.1-0.3-0.2-0.4c-0.1-0.3-0.2-0.6-0.3-0.9c-0.1-0.3-0.1-0.6-0.2-0.9c0-0.1-0.1-0.3-0.1-0.4
		c-0.1-0.3,0,0.1,0-0.1c0-0.1,0-0.2,0-0.2C76,4.9,76,4.3,76,3.7c0-0.3,0-0.6,0-0.9c0-0.1,0-0.1,0-0.2c0-0.1,0-0.2,0,0
		c0-0.2,0-0.3,0.1-0.5c0.1-0.6-0.2-1.2-0.8-1.4C74.8,0.5,74.1,0.8,74,1.5L74,1.5z"/>
	<path fill="#FFF100" d="M80.2,1.7c0.1,2.2,0.3,4.4,0.7,6.6C81,8.8,81.8,9.2,82.3,9c0.6-0.2,0.9-0.8,0.8-1.4c-0.3-1.9-0.5-3.9-0.6-6
		c0-0.6-0.5-1.1-1.1-1.1C80.7,0.6,80.2,1.1,80.2,1.7L80.2,1.7z"/>
	<path fill="#FFF100" d="M82,2.2c1.9,0.4,3.7,0.8,5.6,1.2c0.6,0.1,1.2-0.2,1.4-0.8c0.1-0.6-0.2-1.2-0.8-1.4
		c-1.9-0.4-3.7-0.8-5.6-1.2c-0.6-0.1-1.2,0.2-1.4,0.8C81.1,1.4,81.4,2.1,82,2.2L82,2.2z"/>
	<path fill="#FFF100" d="M82.8,6.3c0,0,0.3,0,0.2,0c-0.1,0,0.2,0,0.2,0c0.2,0,0.4,0,0.5-0.1c0.4,0,0.8-0.1,1.1-0.1
		c0.7,0,1.5,0,2.2,0c0.6,0,1.1-0.6,1.1-1.1c0-0.6-0.5-1.1-1.1-1.1c-1.6-0.1-3.3,0-4.9,0.3c-0.6,0.1-0.9,0.8-0.8,1.4
		C81.7,6.1,82.2,6.4,82.8,6.3L82.8,6.3z"/>
	<path fill="#FFF100" d="M82.1,10.1c2-0.3,4-0.5,6-0.8c0.6-0.1,1.1-0.5,1.1-1.1c0-0.5-0.5-1.2-1.1-1.1c-2,0.3-4,0.5-6,0.8
		C81.5,8,80.9,8.4,81,9C81,9.6,81.5,10.2,82.1,10.1L82.1,10.1z"/>
	<path fill="#FFF100" d="M92.5,3.4c0.1,0,0.2,0,0.3-0.1c0,0,0.1,0,0.1,0c-0.1,0-0.1,0,0,0c0.2,0,0.4,0,0.6-0.1
		c0.4,0,0.8-0.1,1.2-0.1c0.8,0,1.5,0,2.3,0.1c0.1,0,0.2,0,0.1,0c0.1,0,0.2,0,0.3,0c0.2,0,0.3,0.1,0.5,0.1c0.4,0.1,0.8,0.1,1.1,0.2
		c0.4,0.1,0.8,0.2,1.1,0.3c0,0,0.2,0.1,0.1,0c-0.1,0-0.1,0,0,0c0,0-0.1,0-0.1-0.1c-0.2-0.4-0.2-0.9,0.4-1.1c-0.6,0.1-1,0.8-0.8,1.4
		c0.2,0.6,0.8,0.9,1.4,0.8c0.7-0.2,1.1-0.8,1.1-1.5c0-0.8-0.6-1.3-1.3-1.6C100,1.5,99,1.3,98.1,1.2c-2.1-0.3-4.2-0.3-6.2,0.1
		c-0.6,0.1-0.9,0.8-0.8,1.4C91.3,3.2,91.9,3.5,92.5,3.4L92.5,3.4z"/>
	<path fill="#FFF100" d="M95.2,3c-0.2,2.7-0.5,5.5-0.7,8.2c-0.1,0.6,0.6,1.1,1.1,1.1c0.7,0,1-0.5,1.1-1.1C97,8.5,97.2,5.7,97.4,3
		c0.1-0.6-0.6-1.1-1.1-1.1C95.7,1.9,95.3,2.4,95.2,3L95.2,3z"/>
	<path fill="#FFF100" d="M116.1,8.2c-0.1-0.8-0.4-1.4-1-1.9c-0.7-0.5-1.4-0.8-2.3-0.9c-0.8-0.1-1.6,0-2.3,0.1
		c-0.8,0.2-1.5,0.7-1.9,1.4c-1.6,2.2-1.1,5.5,0.9,7.3c1.2,1,2.7,1.6,4.2,1.4c0.6,0,1.1-0.5,1.1-1.1c0-0.6-0.5-1.1-1.1-1.1
		c-0.2,0-0.5,0-0.7,0c-0.1,0-0.1,0-0.2,0c0.2,0,0.1,0,0,0c-0.1,0-0.3-0.1-0.4-0.1c-0.1,0-0.2-0.1-0.3-0.1c-0.1,0-0.1,0-0.2-0.1
		c-0.2-0.1,0.2,0.1,0,0c-0.2-0.1-0.4-0.2-0.7-0.4c-0.1,0-0.3-0.2-0.1-0.1c-0.1-0.1-0.2-0.1-0.3-0.2c-0.1-0.1-0.2-0.2-0.2-0.2
		c0,0-0.1-0.1-0.1-0.1c-0.2-0.2,0.1,0.2,0-0.1c-0.1-0.2-0.3-0.4-0.4-0.6c0-0.1,0-0.1-0.1-0.2c0,0,0.1,0.2,0,0c0-0.1-0.1-0.2-0.1-0.3
		c0-0.1-0.1-0.2-0.1-0.3c0-0.1,0-0.1,0-0.2c0,0.2,0,0.1,0,0c0-0.3,0-0.5,0-0.8c0,0,0-0.2,0-0.2c0,0,0,0.3,0,0c0-0.1,0-0.2,0.1-0.3
		c0-0.1,0.1-0.2,0.1-0.3c0-0.1,0-0.1,0.1-0.2c0.1-0.2-0.1,0.1,0,0c0.1-0.2,0.2-0.4,0.3-0.6c0-0.1,0.1-0.1,0.1-0.2c-0.1,0.2,0,0,0,0
		c0,0,0.1-0.1,0.1-0.1c0,0,0.2-0.2,0.1-0.1c0.1,0,0.1-0.1,0.2-0.1c0.1,0,0.2,0,0,0c0.1,0,0.4-0.1,0.2-0.1c0.3,0,0.6,0,0.9-0.1
		c0.3,0,0.7,0,1,0c-0.1,0-0.2,0,0,0c0.1,0,0.2,0,0.3,0.1c0.1,0,0.1,0,0.2,0.1c0.1,0-0.2-0.1,0,0c0,0,0.1,0.1,0.1,0.1
		c0,0,0.2,0.1,0.1,0c-0.1-0.1,0,0,0,0c0.1,0,0.1,0.1,0.1,0.1c0.2,0.2,0,0,0,0c0,0,0.1,0.2,0.1,0.2c0,0-0.1-0.3,0,0
		c0,0.1,0.1,0.3,0,0c0.1,0.6,0.5,1.1,1.1,1.1C115.6,9.3,116.2,8.8,116.1,8.2L116.1,8.2z"/>
	<path fill="#FFF100" d="M121,10.8c0.3,0.1,0.7,0.2,1,0.4c0.1,0,0.2,0.1,0.3,0.1c0,0,0.1,0,0.1,0c-0.1,0-0.1,0,0,0
		c0.2,0.1,0.3,0.1,0.5,0.2c0.7,0.3,1.3,0.6,2,1c1.3,0.7,2.6,1.5,3.7,2.4c0.5,0.4,1.3,0.1,1.5-0.4c0.3-0.6,0.1-1.1-0.4-1.5
		c-2.5-1.9-5.2-3.3-8.2-4.3c-0.6-0.2-1.2,0.2-1.4,0.8C120.1,10.1,120.5,10.6,121,10.8L121,10.8z"/>
	<path fill="#FFF100" d="M120.4,17.4c1.5-1.7,3.1-3.4,4.6-5c0.4-0.4,0.5-1.2,0-1.6c-0.4-0.4-1.2-0.5-1.6,0c-1.5,1.7-3.1,3.4-4.6,5
		c-0.4,0.4-0.5,1.2,0,1.6C119.2,17.8,120,17.9,120.4,17.4L120.4,17.4z"/>
	<path fill="#FFF100" d="M127.1,22.6c0.2-0.1,0.4-0.2,0.6-0.3c-0.1,0.1,0,0,0.1,0c0.1,0,0.2-0.1,0.3-0.1c0.4-0.1,0.7-0.3,1.1-0.4
		c0.7-0.3,1.5-0.5,2.2-0.8c1.5-0.5,3-0.8,4.6-1.1c-0.5-0.4-0.9-0.9-1.4-1.3c-0.4,1.3-0.8,2.6-1.3,3.8c-0.1,0.1-0.1,0.3-0.2,0.4
		c0,0.1-0.1,0.2-0.1,0.3c-0.1,0.2,0.1-0.1,0,0c-0.1,0.3-0.2,0.6-0.4,0.9c-0.3,0.6-0.6,1.3-0.9,1.9c-0.3,0.5-0.1,1.2,0.4,1.5
		c0.5,0.3,1.2,0.1,1.5-0.4c0.1-0.2,0.2-0.4,0.3-0.6c0.3-0.5,0.1-1.2-0.4-1.5c-0.5-0.3-1.2-0.1-1.5,0.4c-0.1,0.2-0.2,0.4-0.3,0.6
		c0.6,0.4,1.3,0.7,1.9,1.1c1.2-2.5,2.3-5.2,3-7.9c0.1-0.4,0-0.8-0.3-1.1c-0.3-0.3-0.7-0.4-1.1-0.3c-3.2,0.6-6.4,1.6-9.4,2.9
		c-0.5,0.2-0.7,1.1-0.4,1.5C126,22.8,126.6,22.9,127.1,22.6L127.1,22.6z"/>
	<path fill="#FFF100" d="M130.1,21.9c1,1.3,2.3,2.2,3.9,2.6c0.6,0.1,1.2-0.2,1.4-0.8c0.1-0.6-0.2-1.2-0.8-1.4
		c-0.1,0-0.3-0.1-0.4-0.1c-0.1,0-0.2-0.1-0.2-0.1c-0.1,0-0.1,0,0,0c-0.3-0.1-0.6-0.3-0.8-0.4c-0.1,0-0.1-0.1-0.2-0.1
		c0,0-0.2-0.2,0,0c-0.1-0.1-0.2-0.2-0.3-0.3c-0.1-0.1-0.2-0.2-0.3-0.3c0,0-0.1-0.1-0.1-0.1c0,0-0.2-0.3-0.1-0.1
		c-0.2-0.2-0.4-0.4-0.7-0.5c-0.3-0.1-0.6,0-0.8,0.1C130,20.7,129.7,21.4,130.1,21.9L130.1,21.9z"/>
	<path fill="#FFF100" d="M139.8,25.5c0.3,0.2,0.6,0.4,0.9,0.6c0,0,0.2,0.2,0.1,0.1c-0.1-0.1,0.1,0.1,0.1,0.1
		c0.1,0.1,0.3,0.2,0.4,0.3c0.5,0.5,1.1,0.9,1.6,1.4c0.2,0.2,0.5,0.5,0.7,0.8c0.1,0.1,0.2,0.2,0.3,0.4c0.1,0.1,0.1,0.2,0.2,0.2
		c0,0,0.2,0.2,0.1,0.1c-0.1-0.1,0.1,0.1,0.1,0.1c0.1,0.1,0.1,0.2,0.2,0.2c0.1,0.1,0.2,0.3,0.3,0.4c0.2,0.3,0.4,0.6,0.6,0.9
		c0.3,0.5,1,0.7,1.5,0.4c0.5-0.3,0.7-1,0.4-1.5c-1.6-2.6-3.8-4.8-6.3-6.5c-0.5-0.3-1.3-0.1-1.5,0.4
		C139.1,24.5,139.3,25.1,139.8,25.5L139.8,25.5z"/>
	<path fill="#FFF100" d="M137.6,32.5C137.4,32.6,137.6,32.4,137.6,32.5c0.2-0.1,0.2-0.2,0.3-0.2c0.1-0.1,0.3-0.2,0.4-0.3
		c0.3-0.2,0.6-0.4,0.9-0.6c0.6-0.4,1.2-0.8,1.9-1.1c0.6-0.3,1.3-0.7,1.9-1c0,0,0.3-0.1,0.1-0.1c-0.1,0.1,0.1-0.1,0.1-0.1
		c0.2-0.1,0.4-0.2,0.6-0.2c0.3-0.1,0.7-0.3,1-0.4c0.5-0.2,1-0.8,0.8-1.4c-0.2-0.5-0.8-1-1.4-0.8c-3,1-5.8,2.6-8.3,4.5
		c-0.5,0.4-0.4,1.2,0,1.6C136.5,32.9,137.1,32.9,137.6,32.5L137.6,32.5z"/>
	<path fill="#FFF100" d="M144.3,39.6c2.8-1.8,5.5-3.5,8.3-5.3c0.5-0.3,0.7-1,0.4-1.5c-0.3-0.5-1-0.7-1.5-0.4
		c-2.8,1.8-5.5,3.5-8.3,5.3c-0.5,0.3-0.7,1-0.4,1.5C143.1,39.7,143.8,39.9,144.3,39.6L144.3,39.6z"/>
	<path fill="#FFF100" d="M142.8,40.2c1,0.8,2.1,1.5,3.1,2.3c1,0.8,2.1,1.6,3.3,1.8c1.3,0.2,2.6-0.3,3.3-1.4c0.3-0.6,0.4-1.3,0.2-1.9
		c-0.2-0.6-0.5-1.1-0.9-1.6c-0.9-1.1-1.8-2.1-2.8-3.2c-0.4-0.4-1.2-0.4-1.6,0c-0.4,0.5-0.4,1.1,0,1.6c0.7,0.8,1.5,1.7,2.2,2.5
		c0.2,0.2,0.3,0.4,0.5,0.6c0.1,0.1,0.2,0.2,0,0c0.1,0.1,0.1,0.2,0.2,0.3c0.1,0.1,0.1,0.2,0.2,0.3c-0.1-0.2,0,0,0,0.1
		c0.1,0.2,0,0,0,0c0,0,0,0.1,0,0.1c0,0.1-0.1,0.2,0,0.1c0.1-0.1,0,0,0,0c0,0.1,0.1-0.2,0-0.1c0,0,0,0.1-0.1,0.1c-0.1,0.1,0,0,0,0
		c0,0-0.1,0.1-0.1,0.1c0,0-0.1,0.2,0,0c0.1-0.1,0,0,0,0c0,0-0.3,0.2-0.3,0.2c0,0,0.3-0.1,0,0c0,0-0.1,0-0.1,0c0,0-0.1,0-0.1,0
		c-0.2,0.1,0,0,0,0c0,0-0.3,0-0.3,0c0,0-0.1,0-0.1,0c0.2,0,0,0-0.1,0c-0.1,0-0.2-0.1-0.4-0.1c0,0-0.2-0.1-0.1,0
		c0.1,0.1-0.1,0-0.1-0.1c-0.2-0.1-0.5-0.3-0.7-0.4c-0.4-0.3-0.9-0.6-1.3-0.9c-1-0.8-2.1-1.5-3.1-2.3c-0.5-0.3-1.3-0.1-1.5,0.4
		C142.1,39.3,142.3,39.9,142.8,40.2L142.8,40.2z"/>
	<path fill="#FFF100" d="M14.8,124.9C14.8,124.9,14.8,125,14.8,124.9c0.1-0.1,0.2-0.2,0.4-0.4c0,0,0,0,0,0c0.2-0.1,0.4-0.1,0.5-0.2
		c0.2,0.1,0.4,0.2,0.6,0.3c0.1,0.2,0.2,0.3,0.3,0.5c0,0,0,0,0,0c0,0.2,0,0.4,0,0.6c-0.2,0.3-0.3,0.4-0.1,0.2c0,0,0.1-0.1,0.1-0.1
		c0.1,0,0.1-0.1,0.2-0.1c0.2-0.1,0.3-0.3,0.5-0.4c0.1-0.1,0.3-0.2,0.4-0.3c0.1-0.1,0.1-0.1,0.2-0.2c0,0,0.3-0.2,0.1-0.1
		c0.6-0.5,1.2-0.9,1.8-1.3c1.2-0.9,2.5-1.7,3.8-2.4c0.5-0.3,0.7-1,0.4-1.5c-0.3-0.5-1-0.7-1.5-0.4c-1.7,1-3.3,2-4.8,3.2
		c-0.8,0.6-1.6,1.2-2.4,1.9c-0.2,0.2-0.5,0.4-0.6,0.6c-0.2,0.4-0.2,0.9,0,1.2c0.5,0.8,1.7,0.9,2.1,0c0.3-0.5,0.1-1.2-0.4-1.5
		C15.8,124.3,15.1,124.4,14.8,124.9L14.8,124.9z"/>
	<path fill="#FFF100" d="M18,124.7C18.2,124.8,17.7,124.6,18,124.7c0.2,0.1,0.2,0.1,0.3,0.2c0.1,0.1,0.3,0.2,0.4,0.3
		c-0.2-0.2,0,0,0,0c0.1,0.1,0.1,0.1,0.2,0.2c0.1,0.1,0.1,0.1,0.2,0.2c0,0,0.2,0.2,0.1,0.1c-0.1-0.1,0.1,0.1,0.1,0.2
		c0,0.1,0.1,0.1,0.1,0.2c0.1,0.1,0.2,0.3,0.2,0.4c-0.1-0.3,0,0,0,0.1c0,0.1,0.1,0.2,0.1,0.2c0,0.1,0,0.2,0.1,0.3c0,0,0,0.1,0,0.1
		c0,0.1,0,0.1,0,0c0,0,0,0.4,0,0.5c0,0.1,0,0.2,0,0.2c0,0.2,0-0.2,0,0.1c-0.1,0.4-0.2,0.8-0.3,1.2c-0.2,0.9-0.4,1.8-0.1,2.8
		c0.2,0.6,0.8,1,1.4,0.8c0.6-0.2,1-0.8,0.8-1.4c0-0.1-0.1-0.4-0.1-0.2c0-0.1,0-0.2,0-0.3c0-0.1,0-0.2,0-0.4c0,0.2,0,0,0-0.1
		c0.1-0.4,0.2-0.9,0.3-1.3c0.2-0.9,0.3-1.8,0.1-2.7c-0.4-1.8-1.7-3.2-3.4-3.8c-0.5-0.2-1.2,0.3-1.4,0.8C17,124,17.4,124.5,18,124.7
		L18,124.7z"/>
	<path fill="#FFF100" d="M20.8,127.3c1.6,0.6,3.4,1,5.1,1.2c0.6,0.1,1.1-0.6,1.1-1.1c0-0.7-0.5-1-1.1-1.1c-0.6-0.1-1.4-0.2-2.2-0.4
		c-0.8-0.2-1.6-0.4-2.3-0.7c-0.5-0.2-1.2,0.3-1.4,0.8C19.8,126.5,20.2,127,20.8,127.3L20.8,127.3z"/>
	<path fill="#FFF100" d="M27.3,131.6c0.5,0.3,1,0.7,1.5,1c0.3,0.2,0.5,0.4,0.8,0.6c0.1,0.1,0.2,0.2,0.4,0.3c0.1,0,0.1,0.1,0.2,0.1
		c0,0,0.2,0.2,0.2,0.1c-0.1-0.1,0.1,0.1,0.1,0.1c0.1,0,0.1,0.1,0.2,0.1c0.1,0.1,0.2,0.2,0.4,0.3c0.2,0.2,0.5,0.4,0.7,0.6
		c0.5,0.4,1,0.8,1.4,1.2c0.4,0.4,1.2,0.5,1.6,0c0.4-0.4,0.5-1.2,0-1.6c-2-1.7-4.1-3.3-6.2-4.8c-0.5-0.3-1.3-0.1-1.5,0.4
		C26.6,130.7,26.8,131.3,27.3,131.6L27.3,131.6z"/>
	<path fill="#FFF100" d="M25.8,139.9c0.8-0.9,1.7-1.7,2.7-2.5c0.1-0.1,0.2-0.2,0.3-0.3c0.1-0.1,0.1-0.1,0.2-0.2c0.1-0.1-0.1,0.1,0,0
		c0.2-0.2,0.5-0.4,0.7-0.5c0.5-0.4,1-0.7,1.6-1c0.5-0.3,0.7-1,0.4-1.5c-0.3-0.5-1-0.7-1.5-0.4c-2.2,1.4-4.2,3-5.9,4.9
		c-0.4,0.4-0.4,1.2,0,1.6C24.7,140.3,25.4,140.4,25.8,139.9L25.8,139.9z"/>
	<path fill="#FFF100" d="M39.3,145.9c-0.5-0.1-1-0.2-1.5-0.3c-0.2-0.1-0.5-0.1-0.7-0.2c-0.1,0,0,0,0,0c-0.1,0-0.1,0-0.2-0.1
		c-0.1-0.1-0.2-0.1-0.3-0.2c-0.1,0-0.2-0.1-0.2-0.1c-0.1-0.1-0.3-0.2-0.1-0.1c-0.2-0.1-0.3-0.3-0.4-0.4c0,0-0.1-0.2,0,0
		c0,0-0.1-0.1-0.1-0.1c0-0.1-0.1-0.1-0.1-0.2c0,0-0.1-0.2,0-0.1c0.1,0.1,0,0,0,0c0-0.1-0.1-0.2-0.1-0.3c0,0,0,0.2,0,0
		c0,0,0-0.1,0-0.1c0-0.1,0-0.2,0-0.3c0-0.1,0,0,0,0.1c0,0,0-0.1,0-0.1c0-0.1,0.1-0.2,0.1-0.4c0-0.1,0,0,0,0c0-0.1,0.1-0.1,0.1-0.2
		c0-0.1,0.1-0.2,0.1-0.3c0.1-0.1,0.1-0.2,0.2-0.3c0.1-0.1,0,0,0,0c0,0,0.1-0.1,0.1-0.1c0.1-0.1,0.3-0.3,0.4-0.4c0.2-0.1-0.1,0.1,0,0
		c0.1-0.1,0.2-0.1,0.3-0.2c0.2-0.1,0.3-0.2,0.5-0.3c0.1-0.1-0.1,0-0.1,0c0,0,0.1,0,0.2-0.1c0.1,0,0.2-0.1,0.3-0.1
		c0.2-0.1,0.3-0.1,0.5-0.1c0.2,0,0,0,0,0c0,0,0.1,0,0.1,0c0.1,0,0.2,0,0.3,0c0.2,0,0.4,0,0.5,0c0,0-0.2,0-0.1,0c0,0,0.1,0,0.1,0
		c0.1,0,0.2,0,0.3,0.1c0.1,0,0.2,0.1,0.3,0.1c0,0,0.1,0,0.1,0c0,0-0.2-0.1-0.1,0c0.2,0.1,0.3,0.2,0.5,0.3c0,0,0.2,0.1,0,0
		c-0.1-0.1,0,0,0,0c0.1,0.1,0.1,0.1,0.2,0.2c0.1,0.1,0.1,0.1,0.2,0.2c0,0,0.1,0.1,0.1,0.1c0,0,0.2,0.2,0.1,0.1
		c-0.1-0.1,0.1,0.1,0.1,0.1c0.1,0.1,0.1,0.2,0.1,0.2c0,0.1,0.1,0.1,0.1,0.2c0,0,0.1,0.1,0.1,0.1c0-0.1-0.1-0.2,0,0
		c0.1,0.2,0.1,0.3,0.2,0.5c0,0,0,0.3,0.1,0.3c0,0,0-0.2,0-0.1c0,0.1,0,0.1,0,0.2c0,0.2,0,0.3,0,0.5c0,0,0,0.1,0,0.1c0,0,0-0.2,0-0.1
		c0,0.1,0,0.2-0.1,0.3c0,0.1-0.1,0.2-0.1,0.3c-0.1,0.2,0.1-0.2,0,0c0,0.1-0.2,0.4-0.3,0.5c0,0,0.2-0.2,0,0c0,0-0.1,0.1-0.1,0.1
		c-0.1,0.1-0.1,0.1-0.2,0.2c0,0-0.2,0.2-0.1,0.1c0.1-0.1-0.1,0.1-0.2,0.1c-0.1,0.1-0.2,0.1-0.3,0.2c0,0-0.1,0-0.1,0.1
		c-0.1,0.1,0,0,0,0c-0.1,0.1-0.4,0.2-0.6,0.2c0,0-0.3,0.1-0.2,0c0.2,0-0.1,0-0.2,0c-0.1,0-0.2,0-0.3,0c0,0-0.1,0-0.1,0
		c-0.2,0,0.1,0,0.1,0c0,0.1-0.5-0.1-0.6-0.1c-0.1,0-0.1-0.1,0,0c0.1,0.1,0,0,0,0c-0.1-0.1-0.2-0.1-0.3-0.2c-0.5-0.3-1.3-0.1-1.5,0.4
		c-0.3,0.6-0.1,1.2,0.4,1.5c1.7,1.1,4.1,0.7,5.6-0.7c1.6-1.5,1.7-3.9,0.7-5.7c-0.5-0.9-1.3-1.7-2.2-2.1c-1-0.5-2.1-0.6-3.2-0.4
		c-2.2,0.4-4.1,2.1-4.4,4.4c-0.2,1.4,0.6,2.6,1.6,3.4c1.1,0.9,2.5,1.2,3.9,1.4c0.6,0.1,1.2-0.2,1.4-0.8
		C40.2,146.7,39.9,146,39.3,145.9L39.3,145.9z"/>
	<path fill="#FFF100" d="M45.8,155.5c0.9-0.5,1.8-0.9,2.7-1.4c0.2-0.1,0.4-0.2,0.7-0.3c0.1,0,0.2-0.1,0.3-0.1c0,0,0.4-0.2,0.2-0.1
		c0.5-0.2,0.9-0.4,1.4-0.6c1.9-0.7,3.8-1.3,5.7-1.9c0.6-0.1,1-0.8,0.8-1.4c-0.2-0.6-0.8-0.9-1.4-0.8c-4,1-7.9,2.6-11.5,4.5
		c-0.5,0.3-0.7,1-0.4,1.5C44.6,155.7,45.2,155.8,45.8,155.5L45.8,155.5z"/>
	<path fill="#FFF100" d="M49.2,148.2c1.5,2.9,3.2,5.7,5.1,8.4c0.3,0.5,1,0.7,1.5,0.4c0.5-0.3,0.7-1,0.4-1.5
		c-1.9-2.7-3.6-5.5-5.1-8.4c-0.3-0.5-1-0.7-1.5-0.4C49,147,48.9,147.6,49.2,148.2L49.2,148.2z"/>
	<path fill="#FFF100" d="M63.1,158c-0.1-0.1-0.2-0.2-0.4-0.4c-0.1-0.2,0.1,0.1,0,0c-0.1-0.1-0.1-0.2-0.2-0.3
		c-0.1-0.1-0.2-0.3-0.2-0.5c0.1,0.2,0,0,0-0.1c0-0.1-0.1-0.2-0.1-0.3c0-0.2-0.1-0.3-0.1-0.5c0-0.1,0,0.1,0,0.1c0,0,0-0.1,0-0.1
		c0-0.1,0-0.2,0-0.3c0-0.2,0-0.3,0-0.5c0-0.1,0,0.1,0,0.1c0,0,0-0.1,0-0.1c0-0.1,0-0.2,0.1-0.3c0,0,0.1-0.5,0.1-0.5
		c0,0-0.1,0.2,0,0.1c0-0.1,0-0.1,0.1-0.2c0-0.1,0.1-0.2,0.1-0.3c0-0.1,0.1-0.1,0.1-0.2c0.1-0.1,0.2-0.2,0-0.1
		c0.1-0.1,0.2-0.3,0.4-0.4c0,0,0.2-0.2,0.1-0.1c-0.1,0.1,0,0,0,0c0,0,0.1-0.1,0.1-0.1c0.1,0,0.1-0.1,0.2-0.1c0,0,0.1,0,0.1-0.1
		c0.1-0.1-0.2,0.1,0,0c0.2,0,0.3-0.1,0.5-0.1c0.1,0-0.1,0-0.1,0c0,0,0.1,0,0.1,0c0.1,0,0.2,0,0.3,0c0,0,0.2,0,0.2,0
		c0,0-0.3-0.1-0.1,0c0,0,0.1,0,0.1,0c0.1,0,0.4,0.1,0.5,0.1c0,0-0.2-0.1-0.1,0c0,0,0.1,0,0.1,0c0.1,0,0.1,0.1,0.2,0.1
		c0.1,0,0.1,0.1,0.2,0.1c0,0,0.1,0,0.1,0.1c0.1,0.1-0.1-0.1,0,0c0.1,0.1,0.3,0.2,0.4,0.3c0,0,0.1,0.1,0.2,0.2c0,0-0.1-0.2-0.1-0.1
		c0,0,0.1,0.1,0.1,0.1c0.1,0.1,0.1,0.3,0.2,0.4c0.1,0.1,0-0.1,0-0.1c0,0,0,0.1,0,0.1c0,0.1,0.1,0.2,0.1,0.3c0,0.1,0,0.1,0,0.2
		c0,0,0,0.2,0,0c0-0.1,0,0.1,0,0.1c0,0.1,0,0.5,0,0.5c0,0,0-0.2,0-0.1c0,0,0,0.1,0,0.1c0,0.1,0,0.2-0.1,0.2c0,0.1,0,0.2-0.1,0.2
		c0,0,0,0.1,0,0.1c0,0,0,0.1,0,0.1c0,0.1,0,0.1,0-0.1c0,0-0.2,0.4-0.2,0.5c0,0.1-0.1,0.1-0.1,0.2c0,0,0,0.1-0.1,0.1
		c-0.1,0.1,0.1-0.1,0,0c-0.1,0.1-0.2,0.3-0.3,0.4c-0.1,0.1-0.1,0.1-0.2,0.2c0,0-0.2,0.1-0.1,0c0.1-0.1,0,0-0.1,0
		c-0.2,0.1-0.3,0.2-0.5,0.3c-0.1,0.1,0,0,0.1,0c-0.1,0-0.1,0-0.2,0.1c-0.1,0-0.2,0.1-0.3,0.1c-0.1,0-0.2,0.1-0.3,0.1
		c0,0-0.1,0-0.1,0c-0.2,0,0.3,0,0,0c-0.2,0-0.4,0-0.6,0c-0.1,0-0.2,0-0.3,0c0,0-0.1,0-0.1,0c0,0,0.2,0,0,0c-0.2,0-0.4-0.1-0.6-0.1
		c-0.1,0-0.2-0.1-0.3-0.1c0,0-0.1,0-0.1,0c-0.2-0.1,0.2,0.1,0,0c-0.2-0.1-0.4-0.2-0.6-0.3c-0.5-0.3-1.2-0.1-1.5,0.4
		c-0.3,0.5-0.1,1.2,0.4,1.5c1.8,1.1,4,1.2,5.9,0.3c1.7-0.9,2.9-2.9,2.7-4.9c-0.2-1.9-1.6-3.6-3.6-4c-2.1-0.4-4.1,0.8-4.9,2.7
		c-0.9,2.1-0.5,4.7,1.2,6.3c0.4,0.4,1.2,0.4,1.6,0C63.5,159.1,63.5,158.4,63.1,158L63.1,158z"/>
	<path fill="#FFF100" d="M70.4,154.5c-0.1,2.1-0.1,4.5,1.6,5.9c0.9,0.8,2,1,3.2,0.9c1.2-0.2,2.3-0.4,3.5-0.7
		c0.6-0.1,0.9-0.8,0.8-1.4c-0.2-0.6-0.8-0.9-1.4-0.8c-1,0.2-2,0.4-3,0.6c-0.3,0.1,0.2,0-0.1,0c-0.1,0-0.2,0-0.4,0
		c-0.1,0-0.2,0-0.4,0c-0.3,0,0.2,0.1-0.1,0c-0.1,0-0.2-0.1-0.3-0.1c-0.1,0-0.1,0,0.1,0c-0.1,0-0.1,0-0.2-0.1c-0.1,0-0.1-0.1-0.2-0.1
		c-0.2-0.1,0.1,0.1-0.1-0.1c-0.1-0.1-0.1-0.1-0.2-0.2c0,0-0.2-0.3-0.1,0c-0.1-0.2-0.2-0.3-0.3-0.5c0-0.1-0.1-0.3,0-0.1
		c0-0.1-0.1-0.2-0.1-0.2c-0.1-0.2-0.1-0.4-0.2-0.7c-0.1-0.3,0,0.1,0-0.1c0-0.1,0-0.3,0-0.4c0-0.2,0-0.4,0-0.6c0-0.5,0-1,0.1-1.4
		c0-0.6-0.6-1.1-1.1-1.1C70.8,153.4,70.4,153.8,70.4,154.5L70.4,154.5z"/>
	<path fill="#FFF100" d="M76.2,155.3c-0.6,2.9-0.5,5.9,0.4,8.8c0.2,0.6,0.8,1,1.4,0.8c0.6-0.2,1-0.8,0.8-1.4c-0.2-0.7-0.4-1.3-0.5-2
		c0-0.1,0-0.1,0-0.2c0,0,0-0.3,0-0.2c0,0.1,0-0.1,0-0.2c0-0.1,0-0.2,0-0.3c0-0.3-0.1-0.7-0.1-1c0-0.7,0-1.3,0-2c0-0.2,0-0.3,0-0.5
		c0-0.1,0-0.1,0,0c0-0.1,0-0.2,0-0.3c0-0.3,0.1-0.7,0.2-1c0.1-0.6-0.2-1.2-0.8-1.4C77,154.4,76.4,154.7,76.2,155.3L76.2,155.3z"/>
	<path fill="#FFF100" d="M82.5,155.5c-0.2,1.3-0.3,2.7-0.2,4.1c0,0.7,0.1,1.4,0.3,2c0.1,0.4,0.4,0.8,0.8,1c0.5,0.3,1.2,0.2,1.6-0.2
		c0.4-0.4,0.5-1.1,0-1.6c-0.4-0.4-1.2-0.5-1.6,0c0,0,0.1-0.1,0.1-0.1c0.2-0.1,0.4-0.1,0.5-0.2c0.4,0,0.5,0.2,0.7,0.4
		c0,0.1,0,0.1,0,0c0-0.1,0-0.1,0-0.2c-0.1-0.3,0,0.2,0-0.1c0-0.1,0-0.2,0-0.3c-0.1-0.5-0.1-1-0.1-1.5c0-0.5,0-0.9,0-1.4
		c0-0.2,0-0.5,0.1-0.7c0-0.3,0,0.1,0-0.1c0-0.1,0-0.3,0.1-0.4c0.1-0.6-0.2-1.2-0.8-1.4C83.4,154.6,82.6,154.9,82.5,155.5L82.5,155.5
		z"/>
	<path fill="#FFF100" d="M83.7,156.7c0.4-0.1,0.9-0.2,1.3-0.3c0,0,0.3,0,0.1,0c0.1,0,0.2,0,0.4,0c0.2,0,0.4,0,0.7-0.1
		c0.5,0,0.9,0,1.4,0c0.2,0,0.4,0,0.6,0c0.1,0,0.2,0,0.3,0c0,0,0.5,0.1,0.2,0c-0.3-0.3-0.5-0.5-0.8-0.8c0.1,0.2,0-0.2,0,0
		c0-0.1,0.1-0.4,0-0.2c-0.3,0.5-0.1,1.3,0.4,1.5c0.6,0.3,1.2,0.1,1.5-0.4c0.3-0.4,0.4-1.1,0.2-1.6c-0.1-0.3-0.4-0.7-0.8-0.8
		c-2.1-0.3-4.1-0.1-6.2,0.4c-0.6,0.1-1,0.8-0.8,1.4C82.6,156.5,83.1,156.9,83.7,156.7L83.7,156.7z"/>
	<path fill="#FFF100" d="M83.3,160.9c1.6-0.2,3.2-0.5,4.8-0.7c0.6-0.1,1.1-0.5,1.1-1.1c0-0.5-0.5-1.2-1.1-1.1
		c-1.6,0.2-3.2,0.5-4.8,0.7c-0.6,0.1-1.1,0.5-1.1,1.1C82.2,160.4,82.6,161,83.3,160.9L83.3,160.9z"/>
	<path fill="#FFF100" d="M83.8,164.4c2.5-0.4,5-0.9,7.4-1.3c0.6-0.1,0.9-0.8,0.8-1.4c-0.2-0.6-0.8-0.9-1.4-0.8
		c-2.5,0.4-5,0.9-7.4,1.3c-0.6,0.1-0.9,0.8-0.8,1.4C82.6,164.2,83.2,164.5,83.8,164.4L83.8,164.4z"/>
	<path fill="#FFF100" d="M92.2,157.1c2.8-1,5.7-1.9,8.6-2.6c0.6-0.1,1-0.8,0.8-1.4c-0.2-0.6-0.8-0.9-1.4-0.8
		c-2.9,0.7-5.8,1.6-8.6,2.6c-0.5,0.2-1,0.8-0.8,1.4C91,156.9,91.6,157.3,92.2,157.1L92.2,157.1z"/>
	<path fill="#FFF100" d="M95.1,156.7c0.4,1.8,1.2,3.6,2.3,5.1c0.3,0.5,1,0.7,1.5,0.4c0.5-0.3,0.7-1,0.4-1.5
		c-0.5-0.7-0.9-1.5-1.3-2.3c0,0,0-0.1-0.1-0.1c0,0.1,0,0.1,0,0c0-0.1-0.1-0.2-0.1-0.3c-0.1-0.2-0.1-0.4-0.2-0.6
		c-0.1-0.4-0.3-0.8-0.4-1.3c-0.1-0.6-0.8-1-1.4-0.8C95.3,155.6,95,156.1,95.1,156.7L95.1,156.7z"/>
	<path fill="#FFF100" d="M114.4,149.1c-1.2,0.2-2.5,0.6-3.5,1.3c-1.2,0.9-2,2.2-2,3.7c0,2.7,2.7,4.3,5.1,4.4c1.5,0,3-0.5,4.5-0.9
		c0.5-0.2,1-0.8,0.8-1.4c-0.2-0.5-0.8-1-1.4-0.8c-0.6,0.2-1.1,0.4-1.7,0.5c-0.3,0.1-0.5,0.1-0.8,0.2c-0.1,0-0.3,0.1-0.4,0.1
		c0,0,0.2,0,0,0c-0.1,0-0.2,0-0.3,0c-0.3,0-0.5,0-0.8,0c-0.1,0-0.1,0-0.2,0c0,0-0.3,0-0.1,0c0.1,0,0,0-0.1,0c-0.1,0-0.1,0-0.2,0
		c-0.2,0-0.4-0.1-0.6-0.2c-0.2-0.1,0,0,0.1,0c0,0-0.1,0-0.1-0.1c-0.1-0.1-0.2-0.1-0.4-0.2c-0.1-0.1-0.2-0.1-0.3-0.2
		c-0.1,0-0.2-0.1,0,0c0,0-0.1-0.1-0.1-0.1c-0.1-0.1-0.2-0.1-0.2-0.2c0,0-0.1-0.1-0.1-0.1c0,0-0.2-0.2-0.1-0.1
		c0.1,0.1-0.1-0.1-0.1-0.1c-0.1-0.1-0.1-0.2-0.2-0.3c-0.1-0.2,0,0,0,0.1c0,0,0-0.1-0.1-0.1c0-0.1-0.1-0.3-0.1-0.4c0,0,0,0.3,0,0
		c0-0.1,0-0.1,0-0.2c0-0.1,0-0.4,0-0.2c0-0.1,0-0.2,0.1-0.4c0-0.1,0-0.1,0.1-0.2c0.1-0.2-0.1,0.1,0,0c0.1-0.2,0.2-0.4,0.4-0.6
		c0.1-0.1-0.1,0.1,0,0c0,0,0.1-0.1,0.1-0.1c0.1-0.1,0.2-0.2,0.3-0.3c0,0,0.1-0.1,0.1-0.1c-0.2,0.2,0.1,0,0.1,0
		c0.1-0.1,0.2-0.2,0.4-0.2c0.1-0.1,0.3-0.1,0.4-0.2c0.2-0.1,0,0,0,0c0.1,0,0.2-0.1,0.3-0.1c0.6-0.2,1.2-0.3,1.8-0.4
		c0.6-0.1,0.9-0.9,0.8-1.4C115.6,149.3,115,149,114.4,149.1L114.4,149.1z"/>
	<path fill="#FFF100" d="M119,149.4c1.2-0.7,2.3-1.5,3.5-2.2c0.6-0.4,1.1-0.7,1.7-1.1c0.3-0.2,0.5-0.3,0.8-0.5
		c0.1,0,0.1-0.1,0.2-0.1c-0.1,0-0.1,0,0,0c0.2,0-0.1,0,0,0c0.1,0,0.1,0,0,0c-0.1,0-0.3-0.1-0.4-0.2c0.5,0.4,1.1,0.5,1.6,0
		c0.4-0.4,0.5-1.2,0-1.6c-0.4-0.3-0.8-0.5-1.3-0.5c-0.4,0-0.8,0.2-1.2,0.4c-0.7,0.4-1.3,0.8-2,1.2c-1.3,0.8-2.7,1.7-4,2.5
		c-0.5,0.3-0.7,1-0.4,1.5C117.7,149.5,118.4,149.8,119,149.4L119,149.4z"/>
	<path fill="#FFF100" d="M120.4,148.4c0.8,0.7,1.6,1.5,2.3,2.3c0.2,0.2,0.3,0.4,0.5,0.6c0.1,0.1,0.1,0.1,0,0c0,0.1,0.1,0.1,0.1,0.2
		c0.1,0.1,0.2,0.2,0.2,0.3c0.3,0.4,0.6,0.9,0.9,1.4c0.3,0.5,1,0.7,1.5,0.4c0.5-0.3,0.7-1,0.4-1.5c-1.2-1.9-2.7-3.7-4.4-5.2
		c-0.4-0.4-1.2-0.5-1.6,0C120,147.2,119.9,148,120.4,148.4L120.4,148.4z"/>
	<path fill="#FFF100" d="M132.2,148.7c0-2.6-0.2-5.3-0.4-7.9c-0.2,0.3-0.4,0.7-0.5,1c0.2-0.1-0.2,0.1,0,0c0.2-0.1-0.2,0,0,0
		c0.1,0,0.2,0,0.2,0c-0.2,0-0.2,0,0,0c0,0,0.1,0,0.1,0c0.1,0,0.4,0.1,0.5,0.2c-0.2-0.1,0,0,0,0c0.1,0,0.2,0.1,0.2,0.1
		c0.8,0.4,1.6,0.8,2.5,1.2c1.7,0.8,3.3,1.7,5,2.5c0.5,0.3,1.2,0.1,1.5-0.4c0.3-0.5,0.1-1.2-0.4-1.5c-1.8-0.9-3.6-1.8-5.4-2.7
		c-0.8-0.4-1.7-0.9-2.5-1.3c-1-0.4-1.9-0.6-2.9-0.1c-0.3,0.2-0.6,0.6-0.5,1c0.3,2.6,0.4,5.3,0.4,7.9c0,0.6,0.5,1.1,1.1,1.1
		C131.7,149.8,132.2,149.3,132.2,148.7L132.2,148.7z"/>
	<path fill="#FFF100" d="M132.9,145.7c0.2-0.1,0.3-0.3,0.5-0.4c0.1-0.1,0.2-0.1,0.2-0.2c0,0,0.2-0.2,0.1-0.1c0.3-0.3,0.7-0.5,1-0.7
		c0.7-0.4,1.4-0.8,2.2-1.2c0.5-0.2,0.7-1.1,0.4-1.5c-0.4-0.6-1-0.6-1.5-0.4c-1.6,0.7-3.1,1.7-4.5,2.9c-0.4,0.4-0.4,1.2,0,1.6
		C131.7,146.1,132.4,146.1,132.9,145.7L132.9,145.7z"/>
	<path fill="#FFF100" d="M136.4,136.6c2.5-2,4.8-4.2,7-6.5c0.4-0.4,0.5-1.2,0-1.6c-0.4-0.4-1.2-0.5-1.6,0c-2.1,2.4-4.5,4.5-7,6.5
		c-0.5,0.4-0.4,1.2,0,1.6C135.3,137,135.9,137,136.4,136.6L136.4,136.6z"/>
	<path fill="#FFF100" d="M138.3,134.4c0.9,0.4,1.8,0.9,2.7,1.5c0.4,0.3,0.9,0.5,1.3,0.8c0.2,0.1,0.4,0.3,0.6,0.4
		c0,0,0.1,0.1,0.1,0.1c-0.1-0.1-0.1-0.1,0,0c0.1,0.1,0.2,0.2,0.3,0.3c0.5,0.4,1.1,0.5,1.6,0c0.4-0.4,0.5-1.2,0-1.6
		c-1.7-1.4-3.6-2.6-5.6-3.5c-0.5-0.2-1.2-0.2-1.5,0.4C137.7,133.4,137.8,134.2,138.3,134.4L138.3,134.4z"/>
	<path fill="#FFF100" d="M143.1,126.5c0.6,0.4,1.2,0.9,1.8,1.4c0,0,0.1,0.1,0,0c0.1,0.1,0.1,0.1,0.2,0.2c0.1,0.1,0.3,0.2,0.4,0.3
		c0.3,0.2,0.6,0.5,0.9,0.7c1.2,0.9,2.3,1.9,3.4,2.9c0.4,0.4,1.2,0.5,1.6,0c0.4-0.4,0.5-1.2,0-1.6c-2.4-2-4.8-4-7.3-5.8
		c-0.5-0.3-1.3-0.1-1.5,0.4C142.3,125.6,142.5,126.2,143.1,126.5L143.1,126.5z"/>
	<path fill="#FFF100" d="M148.1,129c0.2-0.3,0.3-0.5,0.5-0.8c0.1-0.1,0.1-0.2,0.2-0.3c-0.2,0.2,0,0,0.1-0.1c0.1-0.1,0.1-0.1,0.2-0.2
		c0.4-0.4,0.8-0.9,1.2-1.3c0.1-0.1,0.2-0.2,0.4-0.3c0.2-0.2-0.1,0.1,0,0c0.1,0,0.1-0.1,0.2-0.1c0.2-0.2,0.5-0.4,0.8-0.5
		c0.2-0.1,0.5-0.3,0.7-0.4c0.1-0.1,0.3-0.1,0.4-0.2c0.1,0,0.1-0.1,0.2-0.1c0.1-0.1,0.1-0.1,0,0c0,0,0.1,0,0.1-0.1
		c0.1-0.1,0.3-0.1,0.4-0.1c0,0,0.3-0.1,0.1,0c-0.2,0,0.1,0,0.1,0c-0.2-0.1-0.1,0-0.1,0c-0.1,0-0.1,0-0.2-0.1c0.1,0,0.1,0,0,0
		c-0.2-0.1,0,0,0,0c-0.1-0.1-0.1-0.2-0.1-0.1c0,0,0,0.1,0,0.1c-0.1-0.1-0.1-0.2,0-0.1c0,0,0,0.1,0,0.2c0,0,0-0.3,0-0.1
		c0,0.1,0,0.1,0,0.2c0,0.1,0,0.1,0,0.2c0,0.2,0-0.1,0-0.1c0,0-0.1,0.4-0.1,0.4c0,0.1-0.1,0.2-0.1,0.3c-0.1,0.3,0.1-0.2,0,0.1
		c0,0.1-0.1,0.1-0.1,0.2c-0.1,0.3-0.3,0.6-0.4,0.9c-0.1,0.3-0.3,0.5-0.5,0.8c-0.1,0.1-0.2,0.2-0.2,0.4c0,0.1-0.1,0.1-0.1,0.2
		c0,0-0.2,0.3-0.1,0.1c-0.4,0.5-0.9,1.1-1.4,1.5c-0.1,0.1-0.3,0.2-0.4,0.4c-0.1,0.1-0.1,0.1-0.2,0.2c0,0-0.3,0.2-0.2,0.1
		c0.1-0.1-0.1,0.1-0.1,0.1c-0.1,0.1-0.2,0.1-0.2,0.2c-0.2,0.1-0.3,0.2-0.5,0.3c-0.5,0.3-0.7,1-0.4,1.5c0.3,0.5,1,0.7,1.5,0.4
		c1.3-0.8,2.4-1.8,3.3-3c0.5-0.6,0.9-1.2,1.3-1.9c0.4-0.6,0.7-1.3,0.9-2.1c0.2-0.6,0.2-1.4,0-2c-0.3-0.8-1-1.4-2-1.4
		c-0.8,0-1.6,0.4-2.3,0.8c-0.6,0.3-1.2,0.7-1.8,1.1c-1.3,1-2.5,2.3-3.3,3.7c-0.3,0.5-0.1,1.2,0.4,1.5
		C147.1,129.7,147.8,129.5,148.1,129L148.1,129z"/>
</g>
</svg>
