<?xml version="1.0" encoding="utf-8"?>
<!-- Generator: Adobe Illustrator 19.2.0, SVG Export Plug-In . SVG Version: 6.00 Build 0)  -->
<svg version="1.1" id="Layer_1" xmlns="http://www.w3.org/2000/svg" xmlns:xlink="http://www.w3.org/1999/xlink" x="0px" y="0px"
	 viewBox="0 0 323.606 354.807" style="enable-background:new 0 0 323.606 354.807;" xml:space="preserve">
<metadata><?xpacket begin="﻿" id="W5M0MpCehiHzreSzNTczkc9d"?>
<x:xmpmeta xmlns:x="adobe:ns:meta/" x:xmptk="Adobe XMP Core 5.6-c111 79.158366, 2015/09/25-01:12:00        ">
   <rdf:RDF xmlns:rdf="http://www.w3.org/1999/02/22-rdf-syntax-ns#">
      <rdf:Description rdf:about=""/>
   </rdf:RDF>
</x:xmpmeta>
                                                                                                    
                                                                                                    
                                                                                                    
                                                                                                    
                                                                                                    
                                                                                                    
                                                                                                    
                                                                                                    
                                                                                                    
                                                                                                    
                                                                                                    
                                                                                                    
                                                                                                    
                                                                                                    
                                                                                                    
                                                                                                    
                                                                                                    
                                                                                                    
                                                                                                    
                                                                                                    
                           
<?xpacket end="w"?></metadata>
<g>
	<polygon style="fill:#002E4F;" points="161.395,59.28 232.84,88.873 262.433,160.318 232.84,231.763 161.395,261.356 
		89.95,231.763 60.357,160.318 89.95,88.873 	"/>
	<g>
		<g>
			<g>
				<polygon style="fill:#09476D;" points="207.147,91.831 203.201,87.885 244.714,74.116 248.66,78.062 				"/>
				<polygon style="fill:#09476D;" points="194.569,133.508 190.624,129.563 232.137,115.793 236.083,119.739 				"/>
				<polygon style="fill:#09476D;" points="231.541,116.225 235.487,120.171 249.256,78.658 245.31,74.712 				"/>
				
					<rect x="180.369" y="127.513" transform="matrix(0.7071 0.7071 -0.7071 0.7071 153.413 -88.1427)" style="fill:#09476D;" width="5.47" height="27.204"/>
			</g>
		</g>
		<g>
			<g>
				<polygon style="fill:#09476D;" points="240.245,144.081 240.245,138.501 279.336,158.119 279.336,163.699 				"/>
				<polygon style="fill:#09476D;" points="201.881,164.659 201.881,159.078 240.972,178.696 240.972,184.276 				"/>
				<polygon style="fill:#09476D;" points="240.245,178.58 240.245,184.16 279.336,164.542 279.336,158.962 				"/>
				
					<rect x="185.661" y="148.328" transform="matrix(-1.343389e-10 1 -1 -1.343389e-10 350.3255 -26.4661)" style="fill:#09476D;" width="5.47" height="27.204"/>
			</g>
		</g>
		<g>
			<g>
				<polygon style="fill:#09476D;" points="226.703,204.433 230.648,200.487 244.418,242 240.472,245.946 				"/>
				<polygon style="fill:#09476D;" points="185.025,191.855 188.971,187.91 202.74,229.423 198.794,233.368 				"/>
				<polygon style="fill:#09476D;" points="202.309,228.827 198.363,232.772 239.876,246.542 243.822,242.596 				"/>
				
					<rect x="174.684" y="166.788" transform="matrix(-0.7071 0.7071 -0.7071 -0.7071 430.4282 182.491)" style="fill:#09476D;" width="5.47" height="27.204"/>
			</g>
		</g>
		<g>
			<g>
				<polygon style="fill:#09476D;" points="174.452,237.531 180.032,237.531 160.414,276.622 154.834,276.622 				"/>
				<polygon style="fill:#09476D;" points="153.875,199.167 159.455,199.167 139.837,238.258 134.257,238.258 				"/>
				<polygon style="fill:#09476D;" points="139.953,237.531 134.373,237.531 153.991,276.622 159.571,276.622 				"/>
				
					<rect x="153.869" y="172.08" transform="matrix(-1 -8.978075e-11 8.978075e-11 -1 313.2075 371.3634)" style="fill:#09476D;" width="5.47" height="27.204"/>
			</g>
		</g>
		<g>
			<g>
				<polygon style="fill:#09476D;" points="114.101,223.989 118.047,227.934 76.534,241.704 72.588,237.758 				"/>
				<polygon style="fill:#09476D;" points="126.678,182.311 130.624,186.257 89.111,200.026 85.165,196.08 				"/>
				<polygon style="fill:#09476D;" points="89.707,199.594 85.761,195.649 71.992,237.162 75.938,241.108 				"/>
				
					<rect x="135.408" y="161.103" transform="matrix(-0.7071 -0.7071 0.7071 -0.7071 112.2905 395.922)" style="fill:#09476D;" width="5.47" height="27.204"/>
			</g>
		</g>
		<g>
			<g>
				<polygon style="fill:#09476D;" points="81.002,171.738 81.002,177.318 41.912,157.7 41.912,152.12 				"/>
				<polygon style="fill:#09476D;" points="119.366,151.161 119.366,156.741 80.276,137.123 80.276,131.543 				"/>
				<polygon style="fill:#09476D;" points="81.002,137.239 81.002,131.659 41.912,151.277 41.912,156.857 				"/>
				
					<rect x="130.117" y="140.288" transform="matrix(4.489038e-11 -1 1 4.489038e-11 -21.0379 286.7414)" style="fill:#09476D;" width="5.47" height="27.204"/>
			</g>
		</g>
		<g>
			<g>
				<polygon style="fill:#09476D;" points="94.545,111.387 90.599,115.333 76.83,73.819 80.776,69.874 				"/>
				<polygon style="fill:#09476D;" points="136.222,123.964 132.277,127.91 118.507,86.397 122.453,82.451 				"/>
				<polygon style="fill:#09476D;" points="118.939,86.993 122.885,83.047 81.372,69.278 77.426,73.223 				"/>
				
					<rect x="141.093" y="121.828" transform="matrix(0.7071 -0.7071 0.7071 0.7071 -53.6365 141.3685)" style="fill:#09476D;" width="5.47" height="27.204"/>
			</g>
		</g>
		<g>
			<g>
				<polygon style="fill:#09476D;" points="146.796,78.288 141.215,78.288 160.833,39.198 166.413,39.198 				"/>
				<polygon style="fill:#09476D;" points="167.373,116.652 161.792,116.652 181.41,77.562 186.991,77.562 				"/>
				<polygon style="fill:#09476D;" points="181.294,78.288 186.874,78.288 167.256,39.198 161.676,39.198 				"/>
				<rect x="161.909" y="116.536" style="fill:#09476D;" width="5.47" height="27.204"/>
			</g>
		</g>
	</g>
	<g>
		<g>
			<path style="fill:#FFFFFF;" d="M146.873,313.814h-7.889v-15.47H125.02l5.441,5.406c1.686,1.675,2.191,4.178,1.285,6.376
				c-0.906,2.198-3.028,3.618-5.405,3.618H95.25v-7.889h26.137l-5.441-5.406c-1.686-1.676-2.19-4.179-1.284-6.376
				c0.906-2.198,3.028-3.618,5.405-3.618h33.934v7.889h-7.128V313.814z M139.815,312.984h6.228v-15.47h7.128v-6.228h-33.103
				c-2.04,0-3.86,1.218-4.637,3.104c-0.778,1.886-0.345,4.033,1.102,5.471l6.869,6.826H96.08v6.228h30.26
				c2.04,0,3.86-1.219,4.637-3.104c0.778-1.886,0.345-4.033-1.102-5.47l-6.869-6.826h16.809V312.984z"/>
			<path style="fill:#FFFFFF;" d="M222.44,338.986h-7.889v-7.872h-7.058v7.872h-19.332c-6.397,0-11.601-5.216-11.601-11.627
				c0-6.495,5.204-11.78,11.601-11.78h8.398v7.889h-8.398c-2.012,0-3.712,1.782-3.712,3.891c0,2.082,1.7,3.842,3.712,3.842h11.443
				v-15.622h7.889v9.307h7.058v-9.307h7.889V338.986z M215.381,338.155h6.228v-21.746h-6.228v9.307h-8.719v-9.307h-6.228v15.622
				h-12.273c-2.462,0-4.542-2.14-4.542-4.672c0-2.559,2.08-4.721,4.542-4.721h7.568v-6.228h-7.568
				c-5.939,0-10.77,4.912-10.77,10.949c0,5.953,4.832,10.797,10.77,10.797h18.501v-7.872h8.719V338.155z"/>
			<path style="fill:#FFFFFF;" d="M177.801,313.811h-8.287l-1.38-4.287h-7.714l-1.38,4.287h-8.287l7.517-23.355h12.014
				L177.801,313.811z M170.119,312.98h6.543l-6.983-21.694h-10.804l-6.983,21.694h6.543l1.38-4.287h8.924L170.119,312.98z
				 M167.269,304.126h-5.984l2.992-9.296L167.269,304.126z M162.424,303.296h3.705l-1.852-5.755L162.424,303.296z"/>
			<path style="fill:#FFFFFF;" d="M152.369,339.055h-8.289l-1.347-4.308h-7.773l-1.348,4.308h-8.289l7.516-23.476h12.015
				L152.369,339.055z M144.69,338.225h6.541l-6.984-21.815h-10.803l-6.984,21.815h6.541l1.348-4.308h8.994L144.69,338.225z
				 M141.87,329.35h-6.048l3.024-9.396L141.87,329.35z M136.961,328.519h3.769l-1.885-5.855L136.961,328.519z"/>
			<path style="fill:#FFFFFF;" d="M186.871,313.776h-7.889v-23.321h14.324c2.48,0,4.745,0.918,6.376,2.584
				c1.513,1.546,2.32,3.62,2.273,5.84c-0.054,2.541-1.315,5.115-3.29,6.838h24.328v7.889h-26.591c-1.178,0-2.312-0.496-3.113-1.361
				l-4.155-4.49h-2.264V313.776z M179.812,312.946h6.228v-6.02h3.457l4.401,4.757c0.643,0.695,1.556,1.094,2.503,1.094h25.761
				v-6.228h-24.782l-0.516-0.537l0.413-0.275c2.28-1.52,3.79-4.218,3.846-6.874c0.043-1.995-0.68-3.857-2.036-5.242
				c-1.473-1.505-3.527-2.334-5.782-2.334h-13.494V312.946z M192.96,301.528h-6.92v-4.014h6.92c1.107,0,2.007,0.9,2.007,2.007
				C194.967,300.627,194.067,301.528,192.96,301.528z M186.871,300.697h6.09c0.649,0,1.176-0.528,1.176-1.176
				c0-0.649-0.528-1.176-1.176-1.176h-6.09V300.697z"/>
			<path style="fill:#FFFFFF;" d="M179.293,339.055h-9.877l-5.586-7.006h-2.702v7.006h-7.889v-23.476h14.324
				c2.48,0,4.745,0.918,6.376,2.584c1.513,1.546,2.32,3.62,2.273,5.84c-0.056,2.63-1.399,5.048-3.616,6.556L179.293,339.055z
				 M169.816,338.225h7.766l-6.212-7.88l0.402-0.243c2.207-1.334,3.557-3.62,3.61-6.116l0,0c0.043-1.995-0.68-3.857-2.036-5.242
				c-1.473-1.505-3.527-2.334-5.782-2.334H154.07v21.815h6.228v-7.006h3.932L169.816,338.225z M167.218,326.651h-6.92v-4.014h6.92
				c1.107,0,2.007,0.9,2.007,2.007C169.225,325.751,168.324,326.651,167.218,326.651z M161.128,325.821h6.09
				c0.649,0,1.176-0.528,1.176-1.176s-0.528-1.176-1.176-1.176h-6.09V325.821z"/>
			<path style="fill:#FFFFFF;" d="M124.245,339.055h-7.889v-8.968l-3.344,5.126l-5.264,0.105l-4.263-5.981v9.718h-7.889v-23.476
				h7.331l7.296,9.723l6.773-9.723h7.249V339.055z M117.186,338.225h6.228v-21.815h-5.985l-7.181,10.31l-7.736-10.31h-6.085v21.815
				h6.228v-11.483l5.515,7.738l4.386-0.087l4.63-7.097V338.225z"/>
		</g>
		<g>
			<path style="fill:#FFFFFF;" d="M125.504,348.014l-0.003,1.715l0.656,0.001c0.783,0.001,1.542-0.02,1.899-0.043l-0.003,1.462
				c-0.357-0.023-1.116-0.048-1.899-0.049l-0.656-0.002l-0.004,2.049l0.84,0.002c0.794,0.001,1.623-0.008,1.968-0.031l-0.003,1.462
				c-0.345-0.023-1.174-0.048-1.968-0.049l-2.555-0.004c0.024-0.633,0.049-1.542,0.049-2.06l0.007-3.776
				c0.001-0.794-0.02-1.703-0.042-2.049l2.463,0.004c0.783,0.002,1.611-0.032,1.968-0.054l-0.003,1.473
				c-0.356-0.035-1.185-0.048-1.968-0.049L125.504,348.014z"/>
			<path style="fill:#FFFFFF;" d="M132.105,352.481c-0.001,0.783,0.009,1.703,0.042,2.06l-1.761-0.003
				c0.035-0.357,0.06-1.278,0.061-2.06l0.007-3.868c0.001-0.783-0.02-1.612-0.054-1.957l2.463,0.004
				c1.784,0.003,2.807,1.076,2.804,2.549c-0.003,1.485-1.052,2.519-2.824,2.516l-0.737-0.001L132.105,352.481z M132.109,350.466
				l0.553,0.001c0.84,0.002,1.336-0.654,1.337-1.276c0.001-0.633-0.458-1.278-1.333-1.28l-0.553-0.001L132.109,350.466z"/>
			<path style="fill:#FFFFFF;" d="M139.325,352.493c-0.001,0.783,0.02,1.703,0.042,2.06l-1.75-0.003
				c0.024-0.357,0.048-1.278,0.05-2.06l0.007-3.764c0.001-0.783-0.02-1.715-0.043-2.061l1.75,0.003
				c-0.023,0.346-0.048,1.278-0.049,2.061L139.325,352.493z"/>
			<path style="fill:#FFFFFF;" d="M146.083,352.309c-0.003,1.473-1.155,2.438-2.755,2.436c-0.806-0.002-1.278-0.175-1.933-0.245
				l0.003-1.922c0.379,0.508,1.242,0.866,1.955,0.867c0.61,0.001,0.968-0.378,0.969-0.908c0.002-1.301-2.622-1.42-2.618-3.676
				c0.003-1.462,1.017-2.358,2.629-2.355c0.61,0.001,1.001,0.163,1.519,0.198l-0.003,1.784c-0.287-0.472-0.908-0.704-1.507-0.705
				c-0.564-0.001-0.921,0.298-0.922,0.828C143.417,349.829,146.087,350.029,146.083,352.309z"/>
			<path style="fill:#FFFFFF;" d="M152.069,346.54c2.394,0.005,4.199,1.838,4.195,4.094c-0.004,2.256-1.814,4.084-4.208,4.079
				c-2.371-0.004-4.187-1.837-4.183-4.094C147.876,348.363,149.698,346.536,152.069,346.54z M152.058,353.309
				c1.416,0.003,2.523-1.193,2.525-2.678c0.003-1.485-1.1-2.684-2.516-2.686c-1.416-0.002-2.511,1.193-2.514,2.678
				C149.55,352.107,150.642,353.307,152.058,353.309z"/>
			<path style="fill:#FFFFFF;" d="M158.332,354.586c0.035-0.357,0.06-1.278,0.061-2.06l0.007-3.764
				c0.001-0.783-0.02-1.715-0.054-2.061l2.751,0.005c2.175,0.004,3.957,1.769,3.953,3.944c-0.004,2.176-1.791,3.945-3.967,3.941
				L158.332,354.586z M160.061,353.23l0.898,0.001c1.347,0.002,2.419-1.182,2.422-2.586c0.003-1.393-1.066-2.58-2.424-2.582
				l-0.886-0.001L160.061,353.23z"/>
			<path style="fill:#FFFFFF;" d="M168.855,348.088l-0.003,1.715l0.656,0.002c0.783,0.001,1.542-0.02,1.899-0.043l-0.003,1.462
				c-0.357-0.023-1.117-0.048-1.899-0.049l-0.656-0.002l-0.004,2.049l0.84,0.001c0.794,0.002,1.623-0.008,1.969-0.031l-0.003,1.462
				c-0.345-0.023-1.174-0.048-1.968-0.049l-2.555-0.004c0.024-0.633,0.048-1.542,0.049-2.06l0.007-3.776
				c0.001-0.794-0.02-1.703-0.043-2.049l2.463,0.004c0.783,0.002,1.612-0.032,1.969-0.054l-0.003,1.473
				c-0.357-0.035-1.186-0.048-1.968-0.049L168.855,348.088z"/>
			<path style="fill:#FFFFFF;" d="M180.063,351.733l1.583-3.68c0.185-0.449,0.404-0.944,0.52-1.312l1.749,0.003
				c-0.277,0.46-0.6,1.127-0.877,1.737l-2.911,6.326l-0.277,0l-2.901-6.336c-0.275-0.611-0.597-1.279-0.872-1.74l1.888,0.003
				c0.103,0.38,0.298,0.864,0.493,1.302L180.063,351.733z"/>
			<path style="fill:#FFFFFF;" d="M187.166,352.575c-0.002,0.783,0.02,1.704,0.043,2.061l-1.75-0.003
				c0.024-0.357,0.048-1.278,0.049-2.06l0.006-3.764c0.002-0.783-0.02-1.715-0.042-2.061l1.75,0.003
				c-0.024,0.346-0.048,1.278-0.05,2.06L187.166,352.575z"/>
			<path style="fill:#FFFFFF;" d="M191.369,352.582c-0.002,0.783,0.02,1.703,0.043,2.06l-1.75-0.003
				c0.024-0.357,0.048-1.278,0.049-2.06l0.006-3.764c0.002-0.783-0.02-1.715-0.042-2.061l1.75,0.003
				c-0.024,0.346-0.048,1.278-0.05,2.061L191.369,352.582z"/>
			<path style="fill:#FFFFFF;" d="M195.572,352.589c-0.002,0.783,0.02,1.703,0.043,2.06l-1.75-0.003
				c0.024-0.357,0.048-1.278,0.049-2.06l0.006-3.764c0.002-0.783-0.02-1.715-0.042-2.061l1.75,0.003
				c-0.024,0.346-0.048,1.278-0.05,2.061L195.572,352.589z"/>
		</g>
		<rect x="95.877" y="350.699" style="fill:#FFFFFF;" width="22.705" height="0.899"/>
		<rect x="202.432" y="350.699" style="fill:#FFFFFF;" width="19.333" height="0.899"/>
	</g>
	<g>
		<path style="fill:#FFFFFF;" d="M54.007,256.311l-8.353,6.651c-1.808,1.44-4.288,3.458-5.022,4.173l-3.134-3.936
			c-2.711-3.405-2.087-6.77,0.199-8.591c1.808-1.441,4.055-1.404,5.391-0.599c-1.098-2.69-0.401-5.635,2.018-7.563
			c2.98-2.372,7.264-1.959,10.357,1.924l3.409,4.283C57.986,253.229,55.816,254.87,54.007,256.311z M46.227,258.986l-1.631-2.048
			c-1.186-1.489-3.294-1.679-4.943-0.366c-1.702,1.356-1.793,3.644-0.331,5.479l1.186,1.49L46.227,258.986z M46.128,255.587
			l1.695,2.128l7.474-5.951l-1.461-1.836c-1.929-2.419-4.836-3.016-7.044-1.258C44.504,250.491,44.349,253.353,46.128,255.587z"/>
		<path style="fill:#FFFFFF;" d="M24.978,234.97l17.865,2.855c2.177,0.419,3.888,0.717,6.008,0.973l0.344,0.587
			c-1.771,0.879-3.313,1.743-4.545,2.465l-10.943,6.409c-1.614,0.945-3.91,2.408-5.166,3.222l-1.546-2.641
			c1.266-0.662,3.647-1.979,5.319-2.958l10.18-5.963l-17.916-2.942c-2.62-0.436-3.715-0.623-5.817-0.849l-0.377-0.645
			c1.618-0.869,4.117-2.253,5.878-3.285l10.62-6.219c1.555-0.91,3.398-2.069,4.185-2.608l1.529,2.611
			c-0.856,0.422-2.767,1.464-4.293,2.357L24.978,234.97z"/>
		<path style="fill:#FFFFFF;" d="M23.037,213.313l0.535,1.506c6.327,2.259,11.062,3.496,13.168,3.937l1.265,3.555
			c-2.441-1.079-8.57-2.579-14.809-4.797c-3.868,6.467-6.472,10.101-7.382,11.904l-1.186-3.33c1.07-1.356,3.146-3.936,7.084-10.716
			l-0.502-1.409l-3.941,1.403c-2.178,0.776-4.761,1.732-5.698,2.138l-1.004-2.818c0.984-0.278,3.601-1.138,5.779-1.914l3.94-1.402
			l-0.535-1.506c-6.461-2.536-9.982-3.302-12.285-3.89l-1.163-3.267c2.722,1.16,7.644,2.512,13.212,4.571
			c4.222-7.098,7.05-10.306,8.477-13.088l1.29,3.619c-1.727,2.347-3.994,5.103-7.727,11.341l0.558,1.569l4.709-1.677
			c2.178-0.775,4.717-1.752,5.687-2.169l1.003,2.818c-1.015,0.289-3.589,1.17-5.767,1.945L23.037,213.313z"/>
		<path style="fill:#FFFFFF;" d="M17.144,185.751l-11.687-3.542c-0.828-0.207-1.907-0.476-2.673-0.521l-0.529-3.187
			c1.141,0.431,2.348,0.851,3.443,1.22l18.35,5.676c1.369,0.358,2.174,0.639,3.092,0.762l0.523,3.153
			c-1.191-0.526-2.03-0.8-3.013-1.12l-4.527-1.523l-11.489,9.076c-0.885,0.698-2.07,1.654-3.088,2.581l-0.569-3.422
			c0.633-0.346,1.623-1.028,2.478-1.687L17.144,185.751z"/>
		<path style="fill:#FFFFFF;" d="M20.345,142.637c2.424-0.148,3.861-0.28,5.474-0.538l-0.164,3.225
			c-1.086-0.055-2.348-0.017-4.633,0.071l-12.486,0.52l16.963,8.491l-0.035,0.678l-17.699,6.621l12.046,2.112
			c1.991,0.339,3.578,0.591,4.867,0.69l-0.151,2.955c-1.074-0.294-3.636-0.799-6.097-1.265L1,162.859l0.036-0.713l19.836-7.806
			l-18.934-9.884l0.04-0.781L20.345,142.637z"/>
		<path style="fill:#FFFFFF;" d="M12.798,119.005l10.907,14.438c1.279,1.811,2.307,3.212,3.657,4.865l-0.158,0.661
			c-1.886-0.592-3.598-1.038-4.986-1.371l-12.333-2.961c-1.819-0.436-4.488-0.972-5.959-1.255l0.714-2.976
			c1.372,0.4,4.002,1.101,5.888,1.553l11.473,2.754l-10.885-14.538c-1.587-2.129-2.247-3.022-3.606-4.643l0.174-0.727
			c1.769,0.495,4.532,1.227,6.515,1.704l11.97,2.873c1.752,0.42,3.885,0.862,4.826,1.018l-0.706,2.942
			c-0.91-0.288-3.01-0.863-4.729-1.275L12.798,119.005z"/>
		<path style="fill:#FFFFFF;" d="M18.707,101.571c3.485,3.639,7.452,7.628,11.07,11.213c1.043,1.028,2.037,1.998,2.958,2.791
			l-1.251,2.977c-0.938-1.279-2.413-2.857-3.816-4.257L13.376,99.516l0.237-0.564l20.558-0.139c2.008-0.042,4.168-0.093,5.751-0.35
			l-1.408,3.353c-1.135-0.108-2.738-0.154-4.523-0.204C28.884,101.569,23.889,101.61,18.707,101.571z"/>
		<path style="fill:#FFFFFF;" d="M30.108,79.459c2.865,4.148,6.148,8.716,9.154,12.831c0.866,1.181,1.694,2.297,2.477,3.226
			l-1.708,2.742c-0.723-1.412-1.929-3.205-3.092-4.81L25.17,76.583l0.323-0.519l20.325,3.125c1.99,0.278,4.132,0.57,5.736,0.568
			l-1.924,3.088c-1.103-0.286-2.679-0.587-4.435-0.919C40.159,81.072,35.221,80.32,30.108,79.459z"/>
		<path style="fill:#FFFFFF;" d="M49.662,54.437l2.994,17.843c0.297,2.197,0.56,3.913,0.994,6.004l-0.447,0.513
			c-1.398-1.397-2.709-2.584-3.786-3.521l-9.566-8.327c-1.41-1.228-3.529-2.936-4.702-3.868l2.009-2.308
			c1.032,0.989,3.039,2.826,4.5,4.099l8.899,7.746l-2.927-17.919c-0.422-2.622-0.594-3.718-1.05-5.783l0.491-0.564
			c1.34,1.257,3.449,3.183,4.988,4.523l9.284,8.081c1.359,1.183,3.045,2.561,3.808,3.134l-1.988,2.282
			c-0.673-0.676-2.269-2.156-3.604-3.317L49.662,54.437z"/>
		<path style="fill:#FFFFFF;" d="M61.947,35.615c5.252-4.211,12.773-3.31,16.92,1.863c4.169,5.2,3.411,12.736-1.843,16.947
			c-5.252,4.211-12.773,3.31-16.941-1.89C55.936,47.362,56.693,39.825,61.947,35.615z M75.536,52.567
			c3.979-3.19,4.488-9.133,1.129-13.325c-3.339-4.165-9.25-4.961-13.23-1.771c-3.979,3.19-4.488,9.132-1.149,13.298
			C65.645,54.962,71.557,55.757,75.536,52.567z"/>
		<path style="fill:#FFFFFF;" d="M85.06,31.563l11.172-6.069l-1.688-3.107c-0.925-1.702-2.223-4.092-2.994-5.298l2.628-1.428
			c0.656,1.347,1.893,3.769,2.786,5.411l5.874,10.813c0.844,1.553,1.942,3.432,2.457,4.236l-2.628,1.428
			c-0.396-0.869-1.403-2.797-2.264-4.38l-3.084-5.675l-11.171,6.069l3.1,5.705c0.844,1.553,1.943,3.433,2.457,4.236l-2.629,1.428
			c-0.394-0.869-1.403-2.797-2.263-4.38l-5.859-10.782c-1.153-2.121-2.496-4.524-2.994-5.298l2.628-1.428
			c0.379,0.839,1.634,3.291,2.786,5.412L85.06,31.563z"/>
		<path style="fill:#FFFFFF;" d="M104.983,13.748l2.593,6.944l2.517-0.939c2.166-0.809,3.97-1.519,4.934-1.952l0.88,2.357
			c-1.011,0.305-2.838,0.951-5.005,1.76l-2.516,0.94l3.14,8.409l2.803-1.047c2.198-0.821,4.415-1.686,5.348-2.106l0.88,2.357
			c-0.979,0.293-3.221,1.094-5.418,1.915l-5.511,2.059c-0.59-1.776-1.467-4.316-2.001-5.75l-3.903-10.448
			c-0.821-2.198-1.824-4.691-2.244-5.622l5.256-1.963c2.198-0.821,4.371-1.705,5.335-2.138l0.892,2.389
			c-1.023,0.273-3.233,1.062-5.431,1.883L104.983,13.748z"/>
		<path style="fill:#FFFFFF;" d="M124.955,22.834c0.562,2.242,1.289,4.864,1.612,5.869l-2.902,0.728
			c-0.19-1.039-0.819-3.685-1.38-5.927l-2.868-11.442c-0.562-2.242-1.099-4.245-1.412-5.218l5.045-1.264
			c4.682-1.173,8.155,1.075,9.138,5c0.983,3.924-1.315,7.619-5.766,8.734l-2.209,0.554L124.955,22.834z M123.698,17.822l2.012-0.504
			c2.968-0.743,4.375-3.655,3.764-6.095c-0.637-2.539-3.005-4.293-6.203-3.492l-1.978,0.496L123.698,17.822z"/>
		<path style="fill:#FFFFFF;" d="M148.085,0.852c6.703-0.622,12.485,4.27,13.098,10.872c0.617,6.635-4.166,12.509-10.869,13.131
			c-6.704,0.622-12.484-4.27-13.1-10.906C136.6,7.347,141.383,1.474,148.085,0.852z M150.094,22.485
			c5.078-0.472,8.775-5.151,8.279-10.501c-0.493-5.315-4.989-9.234-10.068-8.763c-5.078,0.472-8.776,5.152-8.283,10.467
			C140.52,19.037,145.016,22.957,150.094,22.485z"/>
		<path style="fill:#FFFFFF;" d="M189.31,20.33c0.027,2.429,0.087,3.87,0.264,5.494l-3.213-0.325
			c0.11-1.082,0.135-2.344,0.162-4.631l0.103-12.496l-9.327,16.517l-0.675-0.069l-5.729-18.006l-2.711,11.924
			c-0.439,1.972-0.769,3.544-0.932,4.826l-2.942-0.298c0.346-1.058,0.979-3.592,1.566-6.026L170.08,0l0.711,0.072l6.804,20.2
			l10.817-18.416l0.778,0.079L189.31,20.33z"/>
		<path style="fill:#FFFFFF;" d="M210.852,30.169c2.319,0.781,4.566,0.928,6.439,0.159l-1.02,3.029
			c-2.097-0.06-3.934-0.141-6.383-0.965c-6.702-2.256-10.067-9.093-7.952-15.375c2.127-6.315,8.941-9.724,15.643-7.467
			c2.61,0.879,3.918,2.001,5.463,2.951L222,15.594c-1.091-1.766-2.862-2.9-5.052-3.638c-5.155-1.736-10.645,0.935-12.338,5.962
			C202.918,22.943,205.665,28.423,210.852,30.169z"/>
		<path style="fill:#FFFFFF;" d="M239.934,20.027c2.087,1.071,4.31,2.175,5.28,2.596l-1.15,2.238
			c-0.906-0.542-3.084-1.735-5.171-2.807l-2.117-1.087c-0.605,1.104-1.397,2.646-2.033,3.887l-4.814,9.377
			c-1.055,2.057-2.267,4.492-2.658,5.477l-2.692-1.382c0.542-0.907,1.814-3.311,2.87-5.369l4.814-9.377
			c0.637-1.24,1.399-2.799,1.912-3.949l-2.088-1.071c-2.056-1.056-4.266-2.114-5.234-2.535l1.149-2.238
			c0.907,0.542,3.07,1.69,5.127,2.746L239.934,20.027z"/>
		<path style="fill:#FFFFFF;" d="M247.123,52.21c0.278-1.006,0.58-2.407,0.911-4.034l0.887-4.298l-7.319-5.02l-3.624,2.338
			c-1.636,1.063-2.701,1.775-3.445,2.378l-2.58-1.769c1.471-0.763,3.22-1.749,4.942-2.877l17.117-10.77l0.645,0.442l-3.799,19.906
			c-0.376,2.051-0.677,4.113-0.82,5.704L247.123,52.21z M251.384,32.414l-7.735,5.085l5.776,3.962L251.384,32.414z"/>
		<path style="fill:#FFFFFF;" d="M273.035,43.869c1.753,1.56,3.63,3.184,4.463,3.834l-1.672,1.88
			c-0.743-0.752-2.552-2.452-4.305-4.012l-1.778-1.582c-0.862,0.918-2.015,2.213-2.942,3.255l-7.006,7.875
			c-1.537,1.727-3.32,3.783-3.944,4.638l-2.262-2.011c0.752-0.742,2.586-2.752,4.122-4.48l7.006-7.876
			c0.927-1.042,2.054-2.36,2.84-3.345l-1.753-1.56c-1.727-1.537-3.602-3.114-4.434-3.763l1.672-1.88
			c0.743,0.752,2.548,2.404,4.276,3.941L273.035,43.869z"/>
		<path style="fill:#FFFFFF;" d="M282.817,53.812c-0.816,0.616-2.97,2.388-4.667,3.857l-1.492,1.291l2.07,2.392
			c3.292,3.807,2.471,8.159-0.667,10.873c-3.112,2.692-7.722,2.768-10.904-0.91l-3.96-4.578c0.864-0.613,2.967-2.341,4.716-3.854
			l8.385-7.252c1.749-1.513,3.813-3.388,4.54-4.107L282.817,53.812z M266.858,67.434l1.803,2.083
			c2.001,2.315,5.322,2.411,7.482,0.542c2.212-1.913,2.704-5.036,0.568-7.505l-1.803-2.083L266.858,67.434z"/>
		<path style="fill:#FFFFFF;" d="M293.53,89.746l-0.76-1.406c-6.596-1.264-11.465-1.762-13.613-1.876l-1.796-3.319
			c2.578,0.693,8.863,1.237,15.367,2.474c2.835-6.982,4.851-10.971,5.474-12.892l1.682,3.11c-0.85,1.503-2.507,4.37-5.36,11.672
			l0.711,1.316l3.678-1.989c2.033-1.1,4.44-2.439,5.304-2.984l1.423,2.632c-0.929,0.425-3.384,1.675-5.417,2.775l-3.678,1.989
			l0.76,1.406c6.771,1.517,10.369,1.736,12.734,1.965l1.649,3.05c-2.867-0.73-7.936-1.313-13.754-2.495
			c-3.086,7.659-5.389,11.262-6.374,14.229l-1.828-3.379c1.348-2.583,3.166-5.654,5.901-12.388l-0.793-1.465l-4.396,2.377
			c-2.033,1.099-4.394,2.453-5.287,3.014l-1.424-2.632c0.959-0.442,3.368-1.705,5.401-2.805L293.53,89.746z"/>
		<path style="fill:#FFFFFF;" d="M312.278,106.914l-6.996,2.446l0.887,2.535c0.763,2.181,1.435,4,1.848,4.972l-2.374,0.831
			c-0.285-1.017-0.893-2.858-1.655-5.04l-0.888-2.535l-8.471,2.964l0.988,2.823c0.775,2.214,1.592,4.449,1.993,5.39l-2.374,0.83
			c-0.273-0.985-1.026-3.243-1.801-5.457l-1.943-5.551c1.788-0.553,4.345-1.376,5.789-1.881l10.525-3.682
			c2.215-0.774,4.727-1.725,5.667-2.126l1.853,5.295c0.775,2.214,1.612,4.405,2.026,5.378l-2.408,0.842
			c-0.251-1.029-0.993-3.254-1.768-5.468L312.278,106.914z"/>
		<path style="fill:#FFFFFF;" d="M316.168,130.339c-4.931-1.045-10.455-2.107-15.466-3.031c-1.441-0.262-2.808-0.505-4.016-0.641
			l-0.644-3.165c1.496,0.529,3.604,1.002,5.552,1.369l20.136,4.162l0.122,0.6l-16.912,11.696c-1.637,1.165-3.393,2.424-4.556,3.529
			l-0.724-3.565c0.998-0.549,2.349-1.414,3.853-2.379C307.758,136.073,311.863,133.226,316.168,130.339z"/>
		<path style="fill:#FFFFFF;" d="M301.2,163.466c0.972-0.382,2.272-0.982,3.774-1.692l3.968-1.872l-0.379-8.866l-4.045-1.494
			c-1.833-0.671-3.042-1.095-3.971-1.328l-0.133-3.125c1.495,0.719,3.333,1.525,5.268,2.224l18.891,7.223l0.033,0.782l-18.2,8.911
			c-1.866,0.931-3.696,1.928-5.055,2.769L301.2,163.466z M319.589,154.989l-8.71-3.133l0.3,6.998L319.589,154.989z"/>
		<path style="fill:#FFFFFF;" d="M321.614,173.731l-7.384-0.662l-0.24,2.676c-0.207,2.303-0.346,4.237-0.372,5.293l-2.507-0.225
			c0.163-1.044,0.37-2.971,0.576-5.274l0.241-2.676l-8.942-0.802l-0.267,2.98c-0.209,2.337-0.389,4.711-0.411,5.734l-2.507-0.225
			c0.159-1.01,0.405-3.378,0.615-5.715l0.526-5.859c1.856,0.235,4.525,0.543,6.05,0.679l11.109,0.997
			c2.336,0.21,5.018,0.383,6.041,0.406l-0.502,5.588c-0.209,2.337-0.351,4.68-0.378,5.736l-2.54-0.228
			c0.197-1.041,0.439-3.374,0.649-5.712L321.614,173.731z"/>
		<path style="fill:#FFFFFF;" d="M299.89,183.55c1.491,0.481,4.113,1.212,5.531,1.57l11.046,2.784
			c2.109,0.532,4.995,1.189,6.009,1.339l-0.707,2.802c-1.096-0.381-3.89-1.12-5.901-1.628l-14.508-3.657l-2.053,8.144l14.475,3.649
			c2.111,0.532,4.996,1.188,6.01,1.339l-0.715,2.835c-1.096-0.381-3.89-1.12-5.901-1.628l-14.508-3.657l-2.037,8.078l14.541,3.665
			c2.243,0.565,4.938,1.139,5.935,1.356l-0.706,2.802c-0.972-0.315-3.619-1.087-5.86-1.652l-10.782-2.717
			c-1.979-0.499-4.007-0.94-5.935-1.356L299.89,183.55z"/>
		<path style="fill:#FFFFFF;" d="M311.966,223.887c-0.905-0.475-3.427-1.666-5.479-2.575l-1.804-0.798l-1.279,2.891
			c-2.037,4.603-6.324,5.717-10.118,4.038c-3.762-1.666-5.799-5.803-3.831-10.249l2.45-5.534c0.923,0.52,3.383,1.683,5.497,2.619
			l10.138,4.487c2.114,0.936,4.691,2.002,5.651,2.353L311.966,223.887z M292.835,215.269l-1.114,2.519
			c-1.239,2.798,0.091,5.842,2.702,6.998c2.674,1.184,5.708,0.296,7.03-2.69l1.115-2.518L292.835,215.269z"/>
		<path style="fill:#FFFFFF;" d="M293.777,256.355c-1.331,1.932-2.711,3.997-3.252,4.904l-2.072-1.427
			c0.653-0.83,2.117-2.836,3.447-4.769l1.35-1.96c-1.018-0.742-2.445-1.726-3.595-2.515l-8.683-5.978
			c-1.905-1.311-4.165-2.825-5.092-3.339l1.716-2.493c0.83,0.653,3.052,2.224,4.956,3.535l8.684,5.977
			c1.149,0.791,2.596,1.745,3.672,2.402l1.33-1.932c1.312-1.904,2.643-3.96,3.185-4.868l2.074,1.427
			c-0.654,0.83-2.07,2.827-3.381,4.733L293.777,256.355z"/>
		<path style="fill:#FFFFFF;" d="M261.959,266.994c-1.688-1.58-3.721-3.388-4.536-4.058l1.974-2.11
			c0.724,0.769,2.687,2.652,4.375,4.232l8.117,7.595c1.688,1.58,3.722,3.436,4.514,4.083l-1.975,2.11
			c-0.699-0.746-2.662-2.678-4.35-4.257L261.959,266.994z M285.044,267.501c-0.699-0.746-2.688-2.7-4.326-4.233l-1.44-1.348
			l-1.742,1.862c-3.438,3.674-7.851,3.316-10.881,0.482c-3.004-2.81-3.472-7.485-0.243-10.936l3.647-3.897
			c0.7,0.795,2.639,2.702,4.327,4.282l8.094,7.572c1.688,1.579,3.77,3.434,4.561,4.082L285.044,267.501z M269.82,253.07
			l-1.487,1.589c-2.091,2.235-1.813,5.521,0.272,7.472c2.135,1.998,5.244,2.207,7.498-0.201l1.487-1.589L269.82,253.07z"/>
	</g>
	<polygon style="fill:#65DFB0;" points="212.691,135.69 204.881,116.833 161.395,98.821 117.91,116.833 110.099,135.69 
		49.749,135.69 61.316,163.242 103.171,171.866 113.687,193.949 113.829,193.952 117.91,203.803 161.395,221.816 204.881,203.803 
		208.961,193.952 209.103,193.949 219.62,171.866 261.474,163.242 273.042,135.69 	"/>
	<path style="fill:#0A9A85;" d="M199.409,148.152h-21.205l-6.742,12.304h-19.937l-6.742-12.304h-21.891l-4.297-6.941h85.601
		L199.409,148.152z M151.467,170.814l4.544,7.87h10.77l4.544-7.87H151.467z M122.354,160.543l5.675,9.83h17.656l5.675-9.83H122.354z
		 M200.436,160.543l-5.675,9.83h-17.656l-5.675-9.83H200.436z M182.265,186.962l3.225,6.637l-4.066,6.87H139.99l-3.575-6.87
		l3.225-6.637c0,0-29.001-0.143-29.206,0l13.414,30.018h24.766l12.83,6.415l11.848-6.415h26.43l12.635-29.934
		C212.323,187.02,182.265,186.962,182.265,186.962z M54.975,148.169l10.057,23.696H103.1l0.073,0.154
		c0.092-0.048,0.183-0.096,0.279-0.137l-11.208-23.713H54.975z M267.815,148.169l-10.057,23.696H219.69l10.857-23.696H267.815z"/>
</g>
</svg>
