<svg xmlns="http://www.w3.org/2000/svg" width="316.339" height="287.68"><g><g fill="#fff100"><path d="M60.817 155.294l1.802-15.853-3.963.601c1.922 4.804 3.843 9.488 5.885 14.172.24.601 1.081.961 1.802.961.721 0 1.321-.36 1.681-.961 2.642-4.444 4.804-9.008 6.485-13.812h-3.843c.961 5.765 1.802 11.65 2.762 17.415l3.843-1.081-.12-.721c-.24-.961-1.441-1.681-2.522-1.441-1.081.36-1.681 1.441-1.441 2.522l.12.721c.24.961 1.441 1.681 2.522 1.441.48-.12.961-.48 1.201-.961.24-.48.24-.961.24-1.561-.961-5.765-1.802-11.65-2.762-17.415-.12-.36-.36-.841-.721-1.081-.36-.24-.841-.48-1.201-.48-.961 0-1.561.601-1.922 1.561l-.841 2.282.24-.48c-1.561 3.843-3.363 7.446-5.405 11.049h3.483l-.24-.48c0-.12-.24-.48 0 0l-.36-.841-.721-1.681c-.601-1.081-1.081-2.282-1.561-3.363l-2.762-6.846c-.36-.961-1.201-1.561-2.162-1.441-.36.12-.841.24-1.081.601-.36.48-.48.841-.601 1.441-.48 4.324-.961 8.767-1.561 13.091 0-.12 0-.36.12-.48-.12.721-.12 1.441-.24 2.282-.12.48-.12.841.12 1.441.24.48.721.841 1.201.961.48.12 1.081.12 1.561-.24.36-.36.841-.721.961-1.321z"/><path d="M79.673 141.122c0 5.044 0 9.968.12 15.013 0 .841.48 1.561 1.201 1.802.721.24 1.681.12 2.162-.48 3.723-4.083 7.206-8.287 10.569-12.611h-2.882c.12.12.12.12 0-.12-.12-.12-.24-.24-.24-.48.12.36 0-.48 0-.12 0-.12 0-.36.12-.48v.12l3.963.48v-2.042c0 .12 0 .36-.12.48l.24-1.441c-1.321-.36-2.642-.721-3.843-.961-.721 5.405-.961 10.809-.48 16.213.12.961.721 1.802 1.802 1.922.961.12 1.922-.48 2.162-1.441l.24-1.201c.24-1.081-.36-2.162-1.441-2.402-1.081-.24-2.162.36-2.402 1.441l-.24 1.201 3.963.48c-.36-4.804-.24-9.728.24-14.532 0 .12 0 .36-.12.48l.12-1.081c.12-.601.12-1.081-.24-1.561-.24-.48-.721-.841-1.201-.961-1.081-.24-2.162.36-2.402 1.441-.36 1.321-.48 2.642-.36 4.083.12.961.721 1.802 1.802 1.922.961.12 1.922-.48 2.162-1.441.24-.961 0-2.162-.841-2.762-.36-.36-.961-.601-1.441-.601-.48 0-1.081.24-1.441.601-3.363 4.324-6.966 8.527-10.569 12.611 1.201.48 2.282.961 3.483 1.321 0-5.044 0-9.968-.12-15.013 0-1.081-.961-2.042-2.042-1.922-.961 0-1.922.841-1.922 2.042z"/><path d="M100.21 155.534l2.762-6.846-.24.48c1.201-3.003 2.402-5.885 4.083-8.647l-3.723-.961c.721 5.284 1.802 10.569 3.483 15.613.36.961 1.441 1.681 2.522 1.441.961-.36 1.681-1.441 1.441-2.522-.721-2.402-1.441-4.924-2.042-7.446l-.721-3.723c-.12-.601-.24-1.201-.36-1.922 0-.12 0-.36-.12-.48v-.12.12c-.12-.36-.12-.721-.12-1.081-.12-.48-.12-.841-.48-1.201-.24-.36-.601-.601-1.081-.721-.841-.24-1.802.12-2.282.961-1.441 2.402-2.642 5.044-3.723 7.566-1.201 2.762-2.282 5.525-3.363 8.407-.12.48 0 1.081.24 1.561s.721.841 1.201.961c.48.12 1.081.12 1.561-.24.48-.24.721-.601.961-1.201z"/><path d="M116.424 156.375c1.441-2.522 2.522-5.044 3.483-7.807.48-1.321.841-2.522 1.081-3.843l.48-1.922.36-1.441-.24.48c.12-.12.12-.24.24-.48 0-.12.12-.12.12-.12.12-.24-.36.36-.12.12-.36.24-.12.12 0 0-.36.36-.48.12-.24.12h-.24c-.12 0-.36 0-.48-.12h.12l-1.441-1.441c.841 4.324 2.042 8.527 3.603 12.611l1.561 3.843c.24.48.841.841 1.201.961.48.12 1.081 0 1.561-.24s.841-.721.961-1.201c.12-.601 0-.961-.24-1.561l-.36-.721s0-.12-.12-.12c-.12-.24.12.24.12.12l-.12-.36c-.24-.48-.48-1.081-.601-1.561l-1.081-3.003c-.721-2.042-1.321-4.083-1.802-6.245l-.841-3.603c-.12-.601-.841-1.321-1.441-1.441-1.561-.36-2.882.48-3.603 1.802-.601.961-.721 2.042-.961 3.123-.48 2.402-1.201 4.804-2.162 7.086l.24-.48c-.721 1.802-1.561 3.483-2.522 5.164-.48.961-.24 2.282.721 2.762.961.721 2.282.48 2.762-.48z"/><path d="M131.196 139.801c-.36 5.044-.601 10.088-.601 15.253 0 .841.48 1.561 1.201 1.802.721.24 1.681.12 2.162-.48 1.922-2.042 3.963-4.083 6.005-6.005 2.042-1.802 4.204-3.603 5.645-6.005.841-1.441 1.441-3.123 1.321-4.804 0-.961-.721-1.802-1.802-1.922-.961-.12-2.042.48-2.162 1.441-.961 5.645-1.201 11.289-.601 16.934 0 .48.24.961.601 1.441.36.36.961.601 1.441.601.961-.12 2.042-.961 1.922-2.042-.48-4.564-.36-9.248.24-13.812 0 .12 0 .36-.12.48l.36-2.642-3.963-.48v.961c0-.12 0-.36.12-.48-.12.601-.24 1.081-.36 1.561l.24-.48c-.24.48-.48.961-.721 1.321l-.24.36c0 .12-.24.36-.12.12.24-.24 0 .12-.12.12l-.36.36c-.721.841-1.561 1.561-2.282 2.282-1.681 1.561-3.483 3.123-5.164 4.804-.961.961-1.922 1.922-2.762 2.882 1.201.48 2.282.961 3.483 1.321 0-5.044.12-10.209.601-15.253 0-.48-.24-1.081-.601-1.441-.36-.36-.961-.6-1.441-.6-1.081.48-1.802 1.321-1.922 2.402z"/><path d="M160.74 152.772h-.24c.12 0 .36 0 .48.12-.961-.12-1.802-.36-2.642-.721l.48.24c-.48-.12-.841-.36-1.321-.601l-.48-.36c-.12-.12-.841-.601-.24-.12-.36-.24-.721-.601-.961-.841l-.48-.48c-.12-.12-.24-.36.12.12-.12-.12-.12-.24-.24-.24-.24-.36-.48-.721-.721-1.201v.12c0-.12-.12-.24-.12-.24-.12-.24-.12-.48-.24-.601v-1.921c0 .12 0 .36-.12.48.12-.601.24-1.321.48-1.922l-.24.48c.24-.601.48-1.081.841-1.561l-.12.24.12-.12c.12-.12.24-.24.24-.36l.36-.36.12-.12c-.36.24.12 0 .12-.12l.36-.24.36-.24-.24.12c.12 0 .12 0 .24-.12.12 0 .24-.12.48-.12h1.441-.24c-.12 0-.36 0-.48-.12.36 0 .841.12 1.201.24l-.48-.24c.24.12.36.12.48.24l.24.12-.12-.12c.24.24.48.48.841.721l-.12-.12.24.24c.12.12.24.36.24.48.12.12.24.36.24.48l.12.24v-.12c.24.721.48 1.561.721 2.402.12.48 0-.48 0 0v2.162c0-.12 0-.36.12-.48-.12.721-.24 1.321-.48 1.922l.24-.48-.36.841-.24.36.12-.12-.12.12c-.12.24-.36.36-.601.601l-.12.12c-.12.12.36-.24.12-.12l-.36.24c-.12 0-.721.36-.721.36l.24-.12c-.12 0-.12 0-.24.12l-.36.12c-.12 0-.36 0-.36.12 0 0 .601-.12.12 0h-1.081c.12 0 .36 0 .48.12-.36 0-.721-.12-1.081-.24-.48-.12-1.081 0-1.561.24s-.841.721-.961 1.201c-.12.48-.12 1.081.24 1.561s.721.721 1.201.961c1.802.721 3.963.36 5.645-.601 1.802-.961 3.123-2.762 3.723-4.684.601-1.922.48-4.083 0-6.125-.48-1.802-1.321-3.723-2.762-5.044-1.802-1.561-4.083-2.162-6.365-1.561-1.561.36-3.003 1.321-3.963 2.642-1.081 1.321-1.802 2.882-2.042 4.444-.12.841-.12 1.681-.12 2.402.12.961.36 1.922.841 2.882.841 1.802 2.282 3.243 3.843 4.324 1.681 1.081 3.723 1.681 5.765 1.922.48 0 1.081-.24 1.441-.601.36-.36.601-.961.601-1.441 0-.48-.24-1.081-.601-1.441.12-.24-.36-.36-.961-.48z"/><path d="M168.067 141.602c-.24 4.684-.12 9.488 0 14.172 0 1.081.961 2.042 2.042 1.922 1.081-.12 2.042-.961 1.922-2.042-.24-4.684-.24-9.488 0-14.172 0-1.081-.961-2.042-2.042-1.922-1.081 0-1.802.841-1.922 2.042z"/><path d="M173.711 146.166c-.24 0-.48.12-.841.12-.48.12-.961.24-1.441.601-.36.36-.601.961-.601 1.441.12 1.081.961 1.922 2.042 1.922l8.047.24c1.081 0 2.042-.961 1.922-2.042-.12-1.081-.961-1.922-2.042-1.922l-8.047-.24c0 1.321 0 2.642.12 3.963.24 0 .48-.12.841-.12.48-.12.961-.24 1.441-.601.36-.36.601-.961.601-1.441 0-.48-.24-1.081-.601-1.441-.36-.24-.961-.601-1.441-.48z"/><path d="M179.356 139.801c-.48 5.525-.36 11.049.48 16.454.12.601.24.961.601 1.441.36.36.961.601 1.441.601.48 0 1.081-.24 1.441-.601.36-.36.601-.961.601-1.441-.841-5.405-.961-11.049-.48-16.454 0-.48-.24-1.081-.601-1.441-.36-.36-.961-.601-1.441-.601-.48 0-1.081.24-1.441.601-.48.36-.601.841-.601 1.441z"/><path d="M186.202 141.122c0 3.843 0 7.686.12 11.53 0 1.081.961 2.042 2.042 1.922 1.081-.12 1.922-.961 1.922-2.042 0-3.843 0-7.686-.12-11.53 0-1.081-.961-2.042-2.042-1.922-1.081.12-1.922.961-1.922 2.042z"/><path d="M189.685 140.762c3.723 0 7.566 0 11.289-.12 1.081 0 2.042-.961 1.922-2.042-.12-1.081-.961-1.922-2.042-1.922-3.723 0-7.566 0-11.289.12-1.081 0-2.042.961-1.922 2.042 0 1.081.841 1.922 2.042 1.922z"/><path d="M189.565 148.208c1.321-.36 2.642-.601 3.963-.841.36-.12.721-.12 1.081-.12.12 0 .36 0 .48-.12.721-.12 1.441-.12 2.042-.24 1.081-.12 2.042-.961 1.922-2.042-.12-1.081-.961-2.042-2.042-1.922-2.882.24-5.765.721-8.647 1.441-.961.24-1.681 1.441-1.441 2.522.601.961 1.561 1.681 2.642 1.321z"/><path d="M189.444 156.014l.601-.12h.36s-.48.12-.12 0l1.201-.12c.841-.12 1.561-.12 2.402-.12 1.561 0 3.243 0 4.804.24-.12 0-.36 0-.48-.12 1.201.12 2.402.36 3.603.601 1.081.24 2.162-.36 2.402-1.441.24-1.081-.36-2.162-1.441-2.402-4.684-1.081-9.608-1.201-14.292-.36-.48.12-.961.48-1.201.961-.24.48-.36 1.081-.24 1.561s.48.961.961 1.201c.36.12.841.12 1.441.12z"/><path d="M206.499 139.08c-.48 4.564-.721 9.248-.48 13.812 0 1.321.12 2.642.24 3.963.12 1.081.961 2.042 2.042 1.922 1.081-.12 1.922-.961 1.922-2.042v-1.681c0-1.081-.961-2.042-2.042-1.922-1.081.12-1.922.961-1.922 2.042v1.681c1.321 0 2.642 0 3.963-.12-.36-4.564-.48-9.248-.12-13.932.12-1.321.24-2.642.36-3.843 0-.48-.24-1.081-.601-1.441-.36-.36-.961-.601-1.441-.601-.48 0-1.081.24-1.441.601-.36.601-.48.961-.48 1.561z"/><path d="M210.222 141.482l1.441.12c-.12 0-.36 0-.48-.12.961.12 1.922.36 2.882.721l-.48-.24.841.36.36.24.24.12-.24-.12c.24.12.48.36.601.601.36.36-.24-.36 0 0 .12.12.12.24.24.24 0 .12.12.24.12.24.12.12.12.601 0 0l.24.721c0 .12 0 .24.12.36-.12-.601 0-.24 0 0v.721c0-.12 0-.36.12-.48 0 .24-.12.601-.24.841l.24-.48c-.12.12-.12.24-.24.48l-.12.24c.24-.48.24-.24.12-.12l-.12.12.12-.12-.601.36h.12l-.36.12c-.24.12-.36.12-.601.12l-1.321.36-1.321.24h.12-.36c-.24 0-.48 0-.601.12-.961.12-1.802.12-2.762.12-1.081 0-2.042.961-1.922 2.042.12 1.081.961 1.922 2.042 1.922 1.922 0 3.843-.12 5.645-.601 1.802-.36 3.843-.841 5.044-2.282 1.201-1.441 1.441-3.363.961-5.164-.48-1.802-1.681-3.243-3.363-4.204-1.922-1.081-4.083-1.321-6.245-1.441-1.081 0-2.042.961-1.922 2.042-.36.961.48 1.681 1.681 1.802z"/><path d="M230.158 152.652h-.601.601c-.601 0-1.081-.12-1.561-.36l.48.24c-.36-.12-.721-.36-.961-.48l-.24-.12c-.24-.24.36.24.12.12-.12-.12-.24-.24-.48-.36l-.36-.36-.24-.24c0-.12-.24-.36 0 0l-.12-.24c-.12-.12-.24-.36-.24-.48l-.12-.24c-.12-.24 0-.36 0 .12 0-.12-.12-.36-.24-.48-.12-.36-.24-.841-.24-1.201v.12-.24-.721c0-.48 0-.841.12-1.321 0 .12 0 .36-.12.48.12-.961.36-1.922.721-2.882l-.24.48c.24-.721.601-1.321 1.081-1.922l.12-.24c.24-.24 0 .12-.12.12.12 0 .24-.36.36-.48.24-.24.48-.48.841-.721l.24-.12c-.48.36-.24.12-.12.12.12-.12.24-.24.36-.24l.48-.24c.24-.12-.12 0-.12.12.12 0 .24-.12.24-.12l.48-.12c.12 0 .24 0 .24-.12.36-.12-.48 0-.12 0h1.081c-.12 0-.36 0-.48-.12.48 0 .841.12 1.201.36l-.48-.24c.36.12.721.36 1.081.601l.24.12c.24.12-.36-.36-.12-.12.12.12.24.24.48.36.12.12.24.24.36.48l.36.48c.12.12.24.36.24.48v-.12l.12.24.24.601.12.601v.24c.12.841.12 1.681 0 2.522 0-.12 0-.36.12-.48-.12.961-.36 2.042-.721 2.882l.24-.48c-.12.36-.24.601-.48.961l-.12.24.12-.12-.36.36-.24.24c-.24.24.12 0 .12-.12-.12.12-.24.24-.48.24-.12.12-.24.12-.48.24 0 0-.36.12-.12 0h-.12c-.601.24-1.321.48-2.042.601l-.601.12h-.24c-.36.12.36 0 .12 0h-1.081c.12 0 .36 0 .48.12-.24 0-.48-.12-.601-.12l.48.24c-.12 0-.24-.12-.36-.24l.12.12-.12-.12c-.721-.721-2.162-.841-2.882 0-.721.841-.721 2.042 0 2.882 1.802 1.802 4.444 1.441 6.606.721.961-.36 1.922-.601 2.762-1.201.961-.601 1.802-1.441 2.282-2.522.961-1.802 1.441-3.963 1.441-6.125 0-1.922-.48-4.083-1.561-5.645-1.201-1.681-3.003-3.123-5.044-3.483-1.922-.36-3.963.12-5.525 1.201-3.123 2.282-4.924 6.245-4.804 10.088.12 2.402.841 4.564 2.402 6.365 1.561 1.681 3.723 2.762 6.005 2.762 1.081 0 2.042-.961 1.922-2.042.12-1.201-.841-2.042-1.922-2.042z"/><path d="M241.087 153.372c-.36 1.441.841 2.762 2.162 2.762.721 0 1.321-.36 1.802-.841.36-.48.48-1.081.601-1.681l.36-3.843c.24-2.522.48-5.164.721-7.686l.36-4.324-3.963.601c1.201 3.603 2.402 7.206 3.723 10.689.24.601.48 1.081.841 1.561.601.601 1.681.961 2.522.601 1.081-.36 1.681-1.321 2.282-2.162 1.201-1.561 2.402-3.123 3.483-4.684 1.201-1.681 2.402-3.483 3.483-5.164l-3.723-.961c0 5.284 0 10.449-.12 15.733v4.444c0 1.081.961 2.042 2.042 1.922 1.081-.12 1.922-.961 1.922-2.042 0-5.284 0-10.449.12-15.733v-4.444c0-.841-.721-1.681-1.561-1.922-.841-.24-1.802.12-2.282.961-1.201 1.922-2.522 3.843-3.843 5.765l-2.042 2.762c-.12.12-.24.24-.24.36-.12.24-.36.48-.601.721-.12.24-.36.48-.48.601l-.24.24.12-.12c.721-.12.961-.24.601-.24.12 0 .36 0 .48.12h-.12l.48.24c-.12-.12-.12 0 0 0l.36.36c.12.36 0-.12 0-.12l-.12-.36-.48-1.441c-.36-.961-.721-1.922-.961-2.882l-2.042-5.765c-.36-.961-1.201-1.561-2.162-1.441-.36.12-.841.24-1.081.601-.36.48-.48.841-.601 1.441l-.721 7.927-.721 7.927c0-.12 0-.36.12-.48v.24l.24-.48c-.12.36 0 .12.48-.48.36-.12.601-.24.961-.24h-.12c.12 0 .36 0 .48.12h-.12l.48.24.601.601c.12.36.24.601.24.961 0 .12 0 .36-.12.48.24-.961-.36-2.282-1.441-2.402-.841-.721-1.922-.12-2.162.961z"/><path d="M89.281 124.909c-.601-1.441-1.201-3.003-1.561-4.564-.12-.36-.24-.721-.24-1.081l-.12-.601v.12-.24c-.12-.721-.12-1.561 0-2.282 0 .12 0 .36-.12.48.12-.721.24-1.441.601-2.162l-.24.48c.12-.36.36-.841.601-1.201.12-.24.24-.36.36-.48.24-.24-.24.36-.12.12l.24-.36c.24-.36.601-.601.961-.961l.24-.24c.12-.12-.24.24-.24.12l.12-.12.601-.36c.36-.24.721-.48 1.201-.601l.36-.12.12-.12s-.36.12-.24.12l.721-.24 1.321-.36c.24 0 .48-.12.601-.12h.36c1.081-.12 2.162-.12 3.243 0-.12 0-.36 0-.48-.12 1.441.12 2.762.48 4.083 1.081l-.48-.24c.841.36 1.681.721 2.522 1.201l.601.36c.24.12.48.24.601.36 0 0-.36-.24-.24-.12l.12.12.24.24.601.48c.36.36.721.601.961.961.12.12.24.36.48.48l.24.24c.601.841 1.081 1.681 1.561 2.522.961 1.802 1.681 3.723 2.522 5.525.841 1.922 1.922 3.603 3.243 5.284 1.561 1.802 3.603 3.243 5.885 3.843.961.24 2.162-.36 2.402-1.441.24-1.081-.36-2.162-1.441-2.402-.36-.12-.721-.24-1.201-.36l.48.24-1.321-.601-.601-.36.24.12-.12-.12c-.12-.12-.24-.12-.24-.24l-1.081-.961-.48-.601-.24-.24c-.12-.12.12.24.12.24-.12-.12-.12-.12-.12-.24-1.201-1.681-2.042-3.483-2.882-5.284-.841-1.922-1.681-3.843-2.762-5.645-1.201-1.922-2.762-3.483-4.564-4.804-3.243-2.402-7.566-3.723-11.65-3.363-4.083.36-8.167 2.282-10.329 5.765-2.522 3.963-1.561 8.767.12 12.851l.601 1.441c.24.48.48.961.961 1.201.48.24 1.081.36 1.561.24s.961-.48 1.201-.961c.24-.841.36-1.441.12-1.922z"/><path d="M116.063 104.612c-.841-2.042-1.441-4.083-1.802-6.245l-.12-.721c0-.12 0-.24-.12-.36v.24-.24c-.12-.48-.12-1.081-.24-1.681-.12-1.081-.12-2.162-.12-3.243 0-1.201.12-2.402.24-3.723 0 .12 0 .36-.12.48.24-2.282.721-4.564 1.561-6.726l-.24.48c.36-.841.721-1.561 1.201-2.402l.721-1.081.12-.24c-.36.48-.12.24 0 .12l.36-.48c.24-.36.601-.601.841-.841l.24-.24s.12 0 .12-.12c0 0-.36.24-.24.12l.48-.36c.36-.24.721-.48 1.081-.601h.12s-.48.12-.24.12c.12 0 .24-.12.24-.12l.721-.24c.24-.12.48-.12.721-.12h-.24.24.48 1.681c-.12 0-.36 0-.48-.12 1.081.12 2.042.36 3.003.841l-.48-.24c.841.36 1.681.841 2.522 1.321l.601.36c.12.12.24.12.24.24.36.24-.36-.36 0 0l1.081.841 1.802 1.802.36.48.24.24c.24.36-.24-.36 0-.12.24.36.48.721.841 1.081l1.321 2.162.601 1.081c0 .12.12.24.12.24.12.36-.24-.48 0-.12.12.24.24.48.24.721.24.721.601 1.561.721 2.402.12.36.24.841.24 1.201l.12.601v.36c.12.48 0-.36 0 0 .24 1.922.24 3.843.12 5.645 0-.12 0-.36.12-.48-.48 3.963-2.402 7.566-3.363 11.41-.961 3.483-.961 7.206.601 10.569.841 1.681 2.162 3.243 3.843 4.083.961.48 2.282.24 2.762-.721s.24-2.282-.721-2.762l-.601-.36-.36-.24.12.12c-.36-.24-.601-.601-.961-.961s.24.36 0 0l-.12-.24-.36-.601-.36-.601c-.24-.48.12.36 0 0l-.12-.36-.36-1.321-.12-.721v.24-.24-.36c-.12-.961-.12-1.922 0-2.762 0 .12 0 .36-.12.48.36-3.243 1.802-6.365 2.882-9.368.961-2.762 1.441-5.645 1.321-8.527-.12-5.525-2.162-10.929-5.765-15.253-1.802-2.162-3.963-4.083-6.485-5.284-2.882-1.441-6.125-2.042-9.248-1.081-5.405 1.681-8.167 7.206-9.248 12.37-1.321 6.005-.961 12.49.961 18.375l.721 2.042c.24.48.48.961.961 1.201.48.24 1.081.36 1.561.24 1.201.48 2.042-.601 1.561-1.681z"/><path d="M159.78 85.756c0-.48 0-.841.12-1.321 0 .12 0 .36-.12.48.24-1.441.601-2.882 1.081-4.324l-.24.48c.48-1.201 1.201-2.402 1.922-3.603.12-.12.24-.24.24-.36l-.12.12.12-.12.721-.841 1.441-1.441.721-.601c.12-.12.601-.48.12 0l.48-.36 1.681-1.081c.24-.12.601-.24.841-.48.12-.12.24-.12.48-.24.12 0 .48-.12-.12 0 .12 0 .24-.12.24-.12.601-.24 1.321-.48 1.922-.601.36-.12.721-.24 1.201-.24h.48-.24c.24 0 .36 0 .601-.12.841-.12 1.681 0 2.642 0-.12 0-.36 0-.48-.12.961.12 1.802.36 2.762.721l-.48-.24c.601.24 1.201.48 1.681.841.12.12.48.36 0 0l.36.24.721.721c.36.36-.24-.36 0 0 .12.12.24.24.24.36.12.24.36.48.48.841.12.12.12.24.12.36-.24-.601 0-.12 0 0 .12.24.24.601.24.841l.24.841c0 .12 0 .24.12.36v.24c0 .24-.12-.48 0-.12l.24 1.922c.12 1.321.12 2.762.12 4.204 0 1.802 0 3.603-.24 5.284 0-.12 0-.36.12-.48-.24 1.681-.601 3.483-1.201 5.044l.24-.48c-.24.601-.601 1.321-.961 1.922l-.48.721-.24.36-.12.24c.24-.48.12-.24.12-.12-.721.961-1.681 1.802-2.642 2.642l-.721.601s-.48.36-.24.12l-.24.24c-.48.36-.961.721-1.561 1.081l-3.123 2.162c-4.204 2.882-8.407 6.365-9.488 11.65-.601 2.642-.24 5.645 1.321 7.927.36.48.721.841 1.201.961.48.12 1.081 0 1.561-.24.841-.601 1.321-1.802.721-2.762l-.36-.601-.24-.36s0-.12-.12-.12c0 .12.12.24.12.24-.24-.36-.36-.961-.36-1.321 0-.12 0-.24-.12-.36.12.601 0 .24 0 .12v-.721c0-.48 0-.961.12-1.441 0 .12 0 .36-.12.48.12-.961.36-1.922.721-2.882l-.24.48c.24-.601.48-1.201.841-1.681.12-.24.36-.48.48-.841l.12-.24c.24-.36-.24.24-.12.12l.36-.48c.48-.601.961-1.081 1.561-1.561.48-.48 1.081-.961 1.681-1.441l.12-.12c.12-.12.24-.24.36-.24l.961-.721c.601-.48 1.201-.841 1.922-1.321l3.603-2.522c2.642-1.922 5.044-4.324 6.485-7.326 1.561-3.243 1.922-6.846 2.042-10.449v-4.804c0-1.441-.12-2.882-.48-4.324-.601-3.003-2.282-5.765-4.924-7.326-2.762-1.561-6.125-1.802-9.128-1.321-2.522.48-5.044 1.561-7.206 3.003-4.324 3.123-7.686 7.927-8.527 13.211-.12.721-.24 1.561-.24 2.282 0 1.081.961 2.042 2.042 1.922 1.201.601 2.042-.24 2.042-1.441z"/><path d="M200.374 100.048c.721-.601 1.561-1.081 2.402-1.441.12-.12.601-.24 0 0l.36-.12.601-.24 1.321-.36c.24 0 .48-.12.601-.12.12 0 .24 0 .36-.12.48-.12-.36 0 0 0l1.441-.12c.961 0 1.922 0 2.762.12-.12 0-.36 0-.48-.12 1.441.24 2.882.601 4.204 1.081l-.48-.24 2.162 1.081c.36.24.721.48.961.721l.24.12c-.601-.36-.24-.12-.12 0l.48.36c.601.48 1.201 1.081 1.681 1.802.24.24-.36-.36 0-.12.12.12.12.24.24.24l.48.721.36.601.12.36s0 .12.12.12c-.12-.12-.12-.36 0-.12s.24.48.24.721l.12.36v2.042-.12c0-.12 0-.36.12-.48-.12.841-.36 1.681-.601 2.522l.24-.48c-.24.721-.601 1.441-1.081 2.042-.12.12-.24.24-.36.48l-.12.12c.36-.48.12-.24.12-.12l-.721.841c-.48.48-.961 1.081-1.561 1.441l.12-.12-.24.12c-.12.12-.24.24-.36.24l-.961.601c-.601.36-1.201.721-1.922.961-.36.12.36-.12.12 0l-.24.12-.48.24-1.081.36c-.721.24-1.561.48-2.402.601l-1.081.24c.48-.12.12 0 0 0h-.24c-.24 0-.48 0-.721.12-3.363.36-6.726.12-10.088-.12-1.681-.12-3.243-.12-4.924 0-1.802.24-3.483.601-5.164 1.441-3.123 1.441-5.765 3.963-7.686 6.846-.601.841-.24 2.282.721 2.762s2.162.24 2.762-.721c.12-.24.36-.601.601-.841l.24-.36.12-.12c.36-.48.841-.961 1.321-1.441l.721-.601.36-.36c.12-.12.36-.24-.12.12l.24-.24c.48-.36 1.081-.721 1.681-1.081.24-.12.48-.24.841-.36.12-.12.24-.12.48-.24 0 0-.48.24-.12.12.12 0 .24-.12.24-.12l1.802-.601.601-.12h.24c.24 0-.48.12-.12 0l1.081-.12c.721 0 1.561-.12 2.282 0 3.123.12 6.125.36 9.128.36 3.123-.12 6.245-.48 9.128-1.561 2.642-.961 5.284-2.522 7.206-4.564 2.162-2.282 3.843-5.405 3.843-8.647 0-3.123-1.681-6.005-3.843-8.047-1.802-1.802-4.083-3.123-6.485-3.963-4.684-1.561-10.088-1.321-14.412 1.201-.48.24-.961.601-1.441.961-.48.36-.841.721-.961 1.201-.12.48 0 1.081.24 1.561.48.721 1.802 1.321 2.762.601z"/><path d="M112.941 192.405l-1.561.721c-.12.12-.12 0 .24-.12l-.24.12c-.12.12-.24.12-.48.12-.24.12-.48.24-.721.24-1.081.36-2.162.721-3.243.961-.24 0-.48.12-.841.12-.12 0-.24 0-.36.12-.48.12.36 0 0 0-.601.12-1.081.12-1.681.12-1.081.12-2.282 0-3.363-.12.12 0 .36 0 .48.12-1.441-.24-2.882-.601-4.204-1.081l.48.24c-.961-.36-1.922-.841-2.762-1.441-.24-.12-.48-.24-.601-.48l.12.12-.12-.12c-.12-.12-.24-.24-.36-.24l-1.081-1.081c-.12-.12-.36-.36-.48-.601-.24-.24.24.36 0 0l-.24-.36-.721-1.201-.12-.36s-.12-.12-.12-.24c0 0 .12.36.12.24-.12-.24-.24-.48-.24-.721l-.36-1.441c0-.12 0-.24-.12-.36 0-.24 0-.48-.12-.721v-1.681c0 .12 0 .36-.12.48.12-.841.36-1.802.601-2.642l-.24.48.721-1.441.24-.36.12-.12-.12.12c.12-.24.36-.48.601-.721l.601-.601c.12-.12.24-.12.24-.24l.12-.12 1.441-.961c.48-.24.961-.601 1.561-.721 0 0-.48.24-.12.12 0 0 .12 0 .12-.12l.36-.12c.24-.12.601-.24.841-.24.601-.24 1.201-.36 1.802-.48l.961-.24c.12 0 .24 0 .48-.12h-.12.36c1.441-.24 2.882-.24 4.324 0-.12 0-.36 0-.48-.12 5.405.601 10.209 4.083 15.733 3.483 2.762-.36 5.284-1.321 7.566-2.642 2.162-1.201 4.204-2.762 6.005-4.444 2.042-1.922 3.843-4.204 5.284-6.606.601-.841.24-2.282-.721-2.762s-2.162-.24-2.762.721c-.36.721-.841 1.321-1.321 1.922l-.36.36-.12.24-.721.961c-.961 1.201-2.162 2.282-3.363 3.363l-.841.721c-.24.12.36-.36.12-.12l-.24.12-.601.36-1.922 1.321c-.721.36-1.321.841-2.042 1.081l-.48.24c-.12 0-.721.36-.24.12-.36.12-.721.24-1.081.48-.48.12-.961.24-1.321.36l-.601.12c-.12 0-.24 0-.36.12h.24-.24c-.961.12-1.922.12-2.882 0 .12 0 .36 0 .48.12-2.522-.36-4.924-1.321-7.326-2.042-2.522-.841-5.164-1.441-7.807-1.441-2.522 0-5.164.48-7.446 1.441-2.282.841-4.444 2.162-6.125 3.963-.841.841-1.441 1.802-1.922 2.882-.48 1.201-.841 2.402-.961 3.723-.24 2.402.24 4.684 1.201 6.846 1.922 4.444 6.485 7.326 11.049 8.287 5.044 1.081 10.088.12 14.772-1.922.601-.24 1.081-.48 1.561-.721.961-.48 1.321-1.922.721-2.762-.36-.841-1.441-1.081-2.522-.601z"/><path d="M160.02 208.498c-.12.601-.36 1.081-.601 1.561l.24-.48c-.721 1.681-1.561 3.363-2.642 4.804l-.36.601c.36-.48.12-.12 0 0s-.12.24-.24.24l-.841 1.081c-.601.721-1.321 1.321-1.922 1.922-.36.36-.721.601-1.081.841l-.12.12-.721.48c-.721.48-1.561.961-2.402 1.441l-1.201.601-.24.12c.601-.24.12-.12 0 0-.24.12-.48.24-.721.24-.841.36-1.681.601-2.642.841-.48.12-.961.24-1.441.24.601-.12.24 0 .12 0h-.48c-.24 0-.48 0-.841.12-1.081 0-2.042 0-3.123-.12.12 0 .36 0 .48.12-1.321-.12-2.522-.48-3.723-.961l.48.24c-.961-.36-1.802-.841-2.642-1.441l-.601-.36c-.12-.12.24.12.24.12l-.12-.12-.36-.24-1.081-.961-.48-.48c-.12-.12-.12-.24-.24-.24-.12-.12.12.24.12.24s-.12-.12-.12-.24l-.841-1.201-.36-.601c0-.12-.12-.24-.12-.24.24.601.12.12 0 0l-.48-1.441c0-.12 0-.24-.12-.36v-.24c-.12-.48 0 .36 0 .12l-.12-.961c0-.721 0-1.321.12-2.042 0 .12 0 .36-.12.48.24-1.802.721-3.483 1.441-5.164l-.24.48c.721-1.802 1.681-3.603 2.762-5.164l.36-.601c.12-.12.12-.24.24-.24.24-.36.601-.721.961-1.081.721-.721 1.441-1.441 2.162-2.042l-.12.12c.12 0 .24-.12.24-.24.24-.12.36-.24.601-.48l1.321-.841 2.522-1.441c1.681-.961 3.483-1.802 5.044-2.882 5.885-3.963 10.209-10.329 11.89-17.294.961-3.963.961-8.047.12-12.01-.24-1.081-1.441-1.681-2.522-1.441-1.081.36-1.681 1.321-1.441 2.522.12.36.12.721.24.961 0 .12 0 .48.12.48 0 0-.12-.48 0-.24v.36c.12.721.12 1.321.12 2.042 0 1.321 0 2.762-.12 4.083 0-.12 0-.36.12-.48-.24 2.282-.841 4.564-1.802 6.726l.24-.48c-.601 1.321-1.201 2.642-1.922 3.843-.36.601-.721 1.201-1.201 1.802l-.36.36.12-.12c0 .12-.12.12-.24.24l-.721.841c-.961 1.081-1.922 2.162-3.123 3.003l-.36.36c-.12.12-.36.24.12-.12l-.24.12c-.24.24-.601.48-.841.601l-2.042 1.321c-3.123 1.802-6.245 3.123-9.008 5.405-2.642 2.162-4.684 5.164-6.125 8.287-1.561 3.243-2.762 6.966-2.282 10.689.36 3.243 2.042 6.245 4.564 8.407 2.402 2.042 5.405 3.483 8.647 3.843 3.483.48 6.966 0 10.209-1.321 6.365-2.402 11.65-7.446 14.292-13.691.36-.841.721-1.681.961-2.522.36-.961-.48-2.282-1.441-2.402-.601-.12-1.561.48-1.922 1.561z"/><path d="M200.854 194.927c.12.12.24.24.24.36.12.12.24.48 0 0l.48.601c.24.36.601.841.841 1.321.24.36.48.841.601 1.201.12.36-.24-.48 0 0l.12.36.24.721.36 1.441.12.721c.12.36-.12-.48 0 0v.36c.12.961.12 1.922 0 3.003 0-.12 0-.36.12-.48-.12 1.081-.48 2.282-.841 3.363l.24-.48c-.24.601-.48 1.081-.841 1.681-.12.24-.24.48-.48.721l-.24.36-.12.24c-.24.36.12-.12.12-.12s-.48.601-.601.721l-.721.721c-.48.48-.841.841-1.321 1.201l.12-.12-.24.12-.36.24-.841.601c-.48.36-1.081.601-1.681.841-.36.12.36-.12.12 0-.12 0-.12 0-.24.12s-.36.12-.48.12l-.961.36c-.601.12-1.201.36-1.802.36-.36.12.36 0 .12 0h-1.922c-.721 0-1.441 0-2.282-.12.12 0 .36 0 .48.12-1.441-.12-2.762-.48-4.083-1.081l.48.24c-1.081-.48-2.042-.961-3.003-1.681l-.12-.12s.36.24.24.12l-.36-.24c-.24-.24-.48-.36-.601-.601-.12-.12-.36-.36-.48-.601-.12-.12-.24-.24-.24-.36l-.12-.12.12.12-.961-1.441-.36-.721c-.12-.12-.24-.601 0 0l-.12-.36c-.24-.48-.36-1.081-.48-1.561-.12-.24-.12-.601-.12-.841 0-.12 0-.24-.12-.36 0-.24.12.48 0 .24v-.24c-.12-1.321-.12-2.642 0-3.963 0 .12 0 .36-.12.48.24-2.282.961-4.444 1.802-6.606l-.24.48c1.802-4.564 4.804-8.767 5.405-13.691.48-4.083-1.441-7.927-3.723-11.049-1.441-1.802-2.882-3.603-4.564-5.284-.721-.721-2.162-.721-2.882 0-.721.841-.721 2.042 0 2.882.841.841 1.561 1.681 2.282 2.522.36.36.721.841 1.081 1.321.12.12.24.24.24.36l.12.12s-.24-.36-.12-.24l.48.721c.601.841 1.201 1.802 1.802 2.762l.36.721s0 .12.12.12c.12.24-.12-.36-.12-.24s.12.24.12.48c.24.48.36.961.48 1.441.12.24.12.601.12.841v2.522c0-.12 0-.36.12-.48-.12 1.441-.601 2.762-1.201 4.083l.24-.48c-1.081 2.762-2.642 5.284-3.843 8.047-1.201 2.882-2.162 5.885-2.402 9.128-.12 2.402.24 4.924 1.201 7.206.601 1.321 1.321 2.522 2.162 3.723.841 1.081 1.802 1.922 2.882 2.642 2.042 1.441 4.564 2.402 6.966 2.762 2.642.36 5.405.36 8.047-.48 2.522-.721 4.804-2.162 6.846-3.843 1.922-1.681 3.363-3.843 4.204-6.245 1.802-4.804.841-10.329-2.042-14.532-.36-.601-.841-1.201-1.321-1.681-.721-.841-2.162-.721-2.882 0-.48.48-.36 1.561.36 2.402z"/><path d="M198.572 166.823c-.48-.36-.12 0 0 0 .24.12.36.24.48.36.24.24.48.48.841.601l1.441 1.321c.961.841 1.802 1.802 2.522 2.762.12.12.24.24.24.36l.12.24-.12-.12c.24.24.36.48.601.841l1.081 1.561 1.802 3.123c1.081 2.162 2.042 4.444 3.363 6.485 1.561 2.282 3.603 4.204 6.125 5.405 2.642 1.321 5.525 2.042 8.407 2.282 2.882.24 5.765-.24 8.167-1.922 2.282-1.561 3.843-3.723 5.405-6.005 1.561-2.402 2.762-5.284 2.642-8.287-.36-4.924-3.963-9.008-7.446-12.01l-1.321-1.081c-.48-.36-.841-.601-1.441-.601-.48 0-1.081.24-1.441.601-.721.721-.841 2.162 0 2.882 1.681 1.441 3.363 2.882 4.804 4.564l.48.601-.12-.12.12.12c.12.12.24.24.24.36.36.48.601.841.841 1.321.24.36.601.841.721 1.321l-.12-.24v.12l.12.36.24.721.24.841v2.281-.24c0-.12 0-.36.12-.48-.12.841-.36 1.802-.721 2.522l.24-.48c-.48 1.201-1.201 2.402-1.922 3.483l-1.081 1.441c-.24.36.24-.24 0 0-.12.12-.12.24-.24.24l-.601.721c-.36.36-.721.841-1.201 1.201-.12.12-.24.12-.24.24-.12.12-.48.36 0 0l-.721.48-.721.36-.36.12.24-.12-.24.12c-.601.24-1.201.36-1.802.48h.24-.36-.48-1.081c-.721 0-1.441 0-2.162-.12.12 0 .36 0 .48.12-1.802-.24-3.483-.601-5.164-1.321l.48.24c-.961-.36-1.922-.841-2.762-1.441-.24-.12-.36-.24-.601-.48l-.12-.12c-.12-.12.24.12.24.12-.12-.12-.24-.24-.36-.24l-1.081-.961c-.12-.12-.36-.36-.48-.601l-.24-.24-.841-1.201-1.441-2.522c-.841-1.802-1.681-3.603-2.642-5.284-1.081-1.922-2.402-3.723-3.843-5.284-1.681-1.922-3.603-3.603-5.525-5.164-.36-.24-1.081-.36-1.561-.24s-.961.48-1.201.961c-.24.48-.36 1.081-.24 1.561.24.36.48.721.961 1.081z"/><path d="M68.744 123.107c.48-1.681.961-3.243 1.681-4.804l-.24.48 1.201-2.762c.48-.961.24-2.162-.721-2.762-.961-.48-2.282-.24-2.762.721-1.201 2.522-2.282 5.284-3.003 8.047-.24.961.36 2.282 1.441 2.402 1.081.36 2.162-.24 2.402-1.321z"/><path d="M63.339 119.744l2.762.12c-.12 0-.36 0-.48-.12 2.042.24 3.963.721 5.885 1.441.48.12 1.081 0 1.561-.24s.841-.721.961-1.201c.12-.48.12-1.081-.24-1.561s-.721-.721-1.201-.961c-3.003-.961-6.125-1.441-9.248-1.441-1.081 0-2.042.961-1.922 2.042 0 1.081.841 1.922 1.922 1.922z"/><path d="M65.261 177.633l-.841.721c-.36.36-.601.961-.601 1.441 0 .48.12.841.48 1.201.601.721 1.681 1.081 2.642.48 1.681-.961 3.243-1.922 5.044-2.762l2.522-1.201c.12 0 .24-.12.24-.12s.12 0 .12-.12c.12 0 .12 0-.12.12l.601-.24c.48-.24.961-.36 1.321-.601.48-.24.961-.48 1.201-.961.24-.48.36-1.081.24-1.561-.36-.961-1.441-1.802-2.522-1.441-3.723 1.441-7.326 3.243-10.809 5.284.841 1.081 1.681 2.042 2.402 3.123l.841-.721c.841-.721.721-2.162 0-2.882-.841-.601-1.922-.48-2.762.24z"/><path d="M66.702 173.669l5.765 8.167c.36.48.721.841 1.201.961.48.12 1.081 0 1.561-.24.841-.601 1.321-1.802.721-2.762l-5.765-8.167c-.36-.48-.721-.841-1.201-.961-.48-.12-1.081 0-1.561.24-.841.48-1.321 1.802-.721 2.762z"/><path d="M249.254 179.074c1.802-2.882 3.603-5.765 5.525-8.647.601-.841.24-2.282-.721-2.762s-2.162-.24-2.762.721c-1.802 2.882-3.603 5.765-5.525 8.647-.601.841-.24 2.282.721 2.762s2.162.12 2.762-.721z"/><path d="M245.771 170.667l10.689 3.963c.48.12 1.081 0 1.561-.24s.841-.721.961-1.201c.12-.48.12-1.081-.24-1.561s-.721-.721-1.201-.961l-10.689-3.963c-.48-.12-1.081 0-1.561.24s-.841.721-.961 1.201c-.12.48-.12 1.081.24 1.561.24.48.601.721 1.201.961z"/><path d="M242.168 123.347l7.686-2.282c.961-.24 1.681-1.441 1.441-2.522-.36-1.081-1.441-1.681-2.522-1.441l-7.686 2.282c-.961.24-1.681 1.441-1.441 2.522.36 1.081 1.441 1.802 2.522 1.441z"/><path d="M242.649 116.381l2.042 7.686c.24.961 1.441 1.681 2.522 1.441 1.081-.36 1.681-1.441 1.441-2.522l-2.042-7.686c-.24-.961-1.441-1.681-2.522-1.441-1.081.48-1.681 1.441-1.441 2.522z"/><path d="M71.987 97.286c-.36 1.201.48 2.162 1.321 2.762l2.642 1.441c1.802.961 3.603 2.042 5.525 3.003l-.601-1.441c0-.12.12-.24.36-.36.12-.24.36-.24.721-.24-.721-.12-1.441.24-1.681.961-.12.721.24 1.441.961 1.681.961.24 1.922-.36 2.282-1.321.12-.601-.12-1.201-.601-1.441l-4.924-2.642-2.402-1.321-.601-.36c-.12-.24-.24-.24-.24-.24s-.24-.12-.12 0l-.12-.12-.12-.12s0 .12.12.12v.24c.12-.721-.24-1.441-.961-1.681-.721 0-1.441.36-1.561 1.081z"/><path d="M79.913 101.129l1.081-9.008c0-.36 0-.721-.12-.961s-.48-.601-.841-.601c-.601-.12-1.561.24-1.681.961l-1.081 9.008c0 .36 0 .721.12.961s.48.601.841.601c.601.12 1.561-.24 1.681-.961z"/><path d="M79.673 99.447l.48-.24.36-.12c.36-.12.721-.36 1.201-.48.721-.24 1.561-.48 2.282-.601.36-.12.721-.12 1.201-.24h.36c.24 0 .36 0 .601-.12.841-.12 1.681-.12 2.522-.12.721 0 1.321-.721 1.321-1.321 0-.721-.601-1.321-1.321-1.321-3.603-.12-7.086.721-10.329 2.282-.601.36-.841 1.201-.48 1.802.36.721 1.081.841 1.802.48z"/><path d="M85.198 88.158c2.402-3.243 4.804-6.485 7.326-9.728.48-.601.12-1.561-.48-1.802-.721-.36-1.321-.12-1.802.48-2.402 3.243-4.804 6.485-7.326 9.728-.48.601-.12 1.561.48 1.802.601.48 1.321.12 1.802-.48z"/><path d="M87.239 86.116c1.922 1.081 3.843 2.282 5.645 3.483.601.36 1.561.12 1.802-.48.36-.721.12-1.441-.48-1.802-1.802-1.321-3.723-2.402-5.645-3.483-.601-.36-1.441-.12-1.802.48-.36.601-.12 1.441.48 1.802z"/><path d="M102.012 78.07c-.24.12-.48.12-.841.12h-1.561c-.12 0-.24 0-.48-.12l-.36-.12h-.12l-.721-.36-.12-.12-.24-.24s-.12-.24-.24-.24c0 0 .12.24.12.12l-.12-.24-.12-.24s-.24-.36-.12-.24 0-.12-.12-.24l-.12-.36c0-.12 0-.24-.12-.36v.12-.24-.721-.24-.24c0-.24.12-.48.24-.721v.12l.12-.12.12-.24c0-.12.12-.24.24-.24l.12-.12c-.12.12-.12.12 0 .12l.12-.12.48-.48.12-.12c.12-.12.24-.12.24-.24l.601-.36c.12-.12-.12 0-.12 0 .12 0 .12 0 .24-.12l.36-.12c.12 0 .24 0 .36-.12h1.2000000000000002l.721.12s.36.12.24.12c-.12-.12.12.12.24.12l.721.36c.12 0 .36.24.12.12l.24.24c.24.12.36.36.601.601l.12.12.24.36.36.721v.12l.12.36.24.841v1.32-.12c0 .12-.12.24-.12.48v.12c0 .24.12-.24 0 0l-.24.36s0 .12-.12.12v.12-.12l-.24.24-.12.12h-.12l-.12.12-.36.24c-.12.12.24-.12 0 0-.12 0-.12 0-.24.12l-.36.12h.12-.24-.24c-.721-.12-1.441.24-1.681.961-.12.601.24 1.561.961 1.681 1.441.24 2.882-.24 3.963-1.201 1.081-.961 1.681-2.402 1.802-3.843.24-2.762-1.561-5.525-3.963-6.846-2.402-1.321-5.405-.961-7.566.721-1.922 1.561-2.642 4.444-1.681 6.846.601 1.561 1.802 2.642 3.363 3.243s3.243.48 4.804.12c.721-.24 1.201-.961.961-1.681-.24-.36-.961-.841-1.681-.601z"/><path d="M117.024 70.143l3.123-6.846c.48-1.081.961-2.282 1.561-3.363.12-.601.36-1.201.601-1.802l.36-.721c0-.12.24-.36 0 0 .12-.12.12-.12-.12 0s-.24.12-.12 0c.721-.12 1.081-.961.961-1.681-.24-.721-.961-1.081-1.681-.961-1.321.36-1.802 1.802-2.282 2.882l-1.681 3.603-3.243 7.206c-.24.601-.24 1.441.48 1.802.841.601 1.681.48 2.042-.12z"/><path d="M112.22 62.216l6.726 3.003 3.003 1.321.601.36.24.12.12.12c.12.12.24.12.24.24.24.24-.12-.24 0 0l.12.24c.12.12 0 .12 0 0v.24c.24.721.961 1.201 1.681.961.721-.24 1.081-.961.961-1.681-.721-2.282-3.243-3.123-5.284-3.963-2.402-1.081-4.804-2.162-7.086-3.243-.601-.24-1.441-.24-1.802.48-.36.601-.24 1.561.48 1.802z"/><path d="M132.037 60.895c-.601 0-1.201.12-1.681.12h-1.081l-.48-.12-.36-.12h-.12.12l-.24-.12c-.24-.12-.36-.24-.48-.36l-.24-.12s.24.12.12 0l-.12-.12-.24-.24-.12-.12c.12.12-.12-.12-.12-.24l-.12-.24s.12.24 0 .12v-.12s-.12-.36-.12-.24v-.48c0-.12 0-.24.12-.36v-.12c0-.24-.12.12 0 0l.36-.601s0-.12.12-.12l.24-.24c.12-.12.24-.24.48-.36l.12-.12s-.24.12-.12 0l.36-.24c.12-.12.36-.24.48-.24l.12-.12s-.24.12-.12 0l.36-.12c.24-.12.36-.12.601-.12h1.321l.601.12h-.12s.12 0 .12.12l.36.12.48.36.24.24c.12.12.24.24.36.48s-.12-.12 0 0c.36.24.48.36.48.48.12.12.24.36.24.48l.12.36c.12.24.12.36.12.601v.84c.12 0-.12.601-.12.721v.12l-.24.36s0 .12-.12.12c.12 0 .12-.12 0 0l-.12.12s-.24.12 0 .12l-.12.12h-.48s.24.12.12 0h-.24l-.12-.12s.24.24.12 0c.12.12 0-.12 0-.12-.36-.601-1.201-.841-1.802-.48-.601.36-.841 1.201-.48 1.802.721 1.321 2.282 1.681 3.603 1.441 1.441-.36 2.282-1.561 2.762-2.882.721-2.282-.24-4.924-2.042-6.606-1.802-1.681-4.444-2.162-6.846-1.201-2.402.961-4.684 3.603-3.723 6.365.48 1.321 1.561 2.402 2.762 3.003 1.561.721 3.363.721 5.044.601.721 0 1.321-.601 1.321-1.321-.12-.601-.721-1.201-1.441-1.201z"/><path d="M140.324 52.969v-.24l-2.642.36c.24 1.201.48 2.402.841 3.603l.601 1.802c.24.721.601 1.441 1.441 1.681.841.36 1.561 0 2.282-.24l1.922-.721c1.321-.48 2.642-.961 3.843-1.441.601-.24 1.201-.961.961-1.681-.24-.601-.961-1.201-1.681-.961l-3.483 1.201c-.601.24-1.201.36-1.681.601l-.961.36-.36.12c-.12 0-.12 0-.24.12.12 0 .24 0 .48.12.12 0 .12.12.24.24l-.12-.24c.12.12.12.12 0 .12 0 0 0-.12-.12-.12l-.12-.36c-.24-.48-.36-1.081-.48-1.561-.36-1.081-.601-2.162-.721-3.243-.12-.601-.841-1.081-1.441-.961-.601.12-1.201.721-1.201 1.321v.24c.12.721.601 1.321 1.321 1.321.601-.12 1.321-.721 1.321-1.441z"/><path d="M145.728 50.326c-.601 3.483-.12 6.846 1.201 9.968.24.601 1.321.841 1.802.48.721-.48.721-1.201.48-1.802v-.12c0-.12 0-.12-.12-.24l-.24-.48-.36-1.081-.24-1.081-.12-.48c-.12-.36 0 .12 0-.12v-3.723c0-.24 0-.36.12-.601.12-.721-.24-1.441-.961-1.681-.601-.24-1.441.12-1.561.961z"/><path d="M153.174 50.567c.12 2.642.36 5.284.841 7.927.12.601 1.081 1.081 1.681.841.721-.24 1.081-.961.961-1.681-.36-2.282-.601-4.684-.721-7.206 0-.721-.601-1.321-1.321-1.321-.841.12-1.441.721-1.441 1.441z"/><path d="M155.336 51.167l6.726 1.441c.721.12 1.441-.24 1.681-.961.12-.721-.24-1.441-.961-1.681l-6.726-1.441c-.721-.12-1.441.24-1.681.961-.12.721.24 1.561.961 1.681z"/><path d="M156.297 56.091h.48c.24 0 .48 0 .601-.12.48 0 .961-.12 1.321-.12h2.642c.721 0 1.321-.721 1.321-1.321 0-.721-.601-1.321-1.321-1.321-1.922-.12-3.963 0-5.885.36-.721.12-1.081.961-.961 1.681.48.601 1.081.961 1.802.841z"/><path d="M155.456 60.655l7.206-.961c.721-.12 1.321-.601 1.321-1.321 0-.601-.601-1.441-1.321-1.321l-7.206.961c-.721.12-1.441.601-1.321 1.321 0 .721.601 1.441 1.321 1.321z"/><path d="M167.947 52.608c.12 0 .24 0 .36-.12h.12c.24 0 .48 0 .721-.12l1.441-.12c.961 0 1.802 0 2.762.12h.48l.601.12c.48.12.961.12 1.321.24.48.12.961.24 1.321.36 0 0 .24.12.12 0 0 0-.12 0-.12-.12-.24-.48-.24-1.081.48-1.321-.721.12-1.201.961-.961 1.681.24.721.961 1.081 1.681.961.841-.24 1.321-.961 1.321-1.802 0-.961-.721-1.561-1.561-1.922-1.081-.24-2.282-.48-3.363-.6-2.522-.36-5.044-.36-7.446.12-.721.12-1.081.961-.961 1.681.24.601.961.961 1.681.841z"/><path d="M171.189 52.128l-.841 9.848c-.12.721.721 1.321 1.321 1.321.841 0 1.201-.601 1.321-1.321.36-3.243.601-6.605.841-9.848.12-.721-.721-1.321-1.321-1.321-.721 0-1.201.601-1.321 1.321z"/><path d="M196.29 58.373c-.12-.961-.48-1.681-1.201-2.282-.841-.601-1.681-.961-2.762-1.081-.961-.12-1.922 0-2.762.12-.961.24-1.802.841-2.282 1.681-1.922 2.642-1.321 6.606 1.081 8.767 1.441 1.201 3.243 1.922 5.044 1.681.721 0 1.321-.601 1.321-1.321 0-.721-.601-1.321-1.321-1.321h-1.081l-.48-.12-.36-.12c-.12 0-.12 0-.24-.12-.24-.12-.48-.24-.841-.48-.12 0-.36-.24-.12-.12l-.36-.24-.24-.24-.12-.12c-.24-.24.12.24 0-.12l-.48-.721c0-.12 0-.12-.12-.24l-.12-.36-.12-.36v-1.441c0-.12 0-.24.12-.36l.12-.36c0-.12 0-.12.12-.24.12-.24-.12.12 0 0l.36-.721.12-.24.12-.12.12-.12.24-.12c.12 0 .48-.12.24-.12.36 0 .721 0 1.081-.12h1.201c.12 0 .24 0 .36.12.12 0 .12 0 .24.12.12 0-.24-.12 0 0l.12.12s.24.12.12 0c.12 0 .12.12.12.12l.12.24c0 .12.12.36 0 0 .12.721.601 1.321 1.321 1.321.721.36 1.441-.24 1.321-.961z"/><path d="M202.175 61.496c.36.12.841.24 1.201.48l.36.12h.12l.601.24c.841.36 1.561.721 2.402 1.201 1.561.841 3.123 1.802 4.444 2.882.601.48 1.561.12 1.802-.48.36-.721.12-1.321-.48-1.802-3.003-2.282-6.245-3.963-9.848-5.164-.721-.24-1.441.24-1.681.961 0 .721.48 1.321 1.081 1.561z"/><path d="M201.454 69.422c1.802-2.042 3.723-4.083 5.525-6.005.48-.48.601-1.441 0-1.922-.48-.48-1.441-.601-1.922 0-1.802 2.042-3.723 4.083-5.525 6.005-.48.48-.601 1.441 0 1.922.48.48 1.441.601 1.922 0z"/><path d="M209.501 75.668l.721-.36h.12l.36-.12 1.321-.48 2.642-.961c1.802-.601 3.603-.961 5.525-1.321l-1.681-1.561c-.48 1.561-.961 3.123-1.561 4.564l-.24.48-.12.36c-.12.24.12-.12 0 0-.12.36-.24.721-.48 1.081l-1.081 2.282c-.36.601-.12 1.441.48 1.802.601.36 1.441.12 1.802-.48l.36-.721c.36-.601.12-1.441-.48-1.802-.601-.36-1.441-.12-1.802.48l-.36.721 2.282 1.321c1.441-3.003 2.762-6.245 3.603-9.488.12-.48 0-.961-.36-1.321s-.841-.48-1.321-.36c-3.843.721-7.686 1.922-11.289 3.483-.601.24-.841 1.321-.48 1.802.721.841 1.441.961 2.042.601z"/><path d="M213.104 74.827c1.201 1.561 2.762 2.642 4.684 3.123.721.12 1.441-.24 1.681-.961.12-.721-.24-1.441-.961-1.681l-.48-.12c-.12 0-.24-.12-.24-.12-.36-.12-.721-.36-.961-.48l-.24-.12-.36-.36-.36-.36-.12-.12s-.24-.36-.12-.12c-.24-.24-.48-.48-.841-.601-.36-.12-.721 0-.961.12-.841.36-1.201 1.201-.721 1.802z"/><path d="M224.754 79.15l1.081.721.12.12.12.12.48.36 1.922 1.681c.24.24.601.601.841.961.12.12.24.24.36.48.12.12.12.24.24.24l.12.12.12.12c.12.12.12.24.24.24l.36.48.721 1.081c.36.601 1.201.841 1.802.48.601-.36.841-1.201.48-1.802-1.922-3.123-4.564-5.765-7.566-7.807-.601-.36-1.561-.12-1.802.48-.48.721-.24 1.441.36 1.922z"/><path d="M222.112 87.558c-.24.12 0-.12 0 0l.36-.24.48-.36 1.081-.721c.721-.48 1.441-.961 2.282-1.321l2.282-1.201s.36-.12.12-.12l.12-.12c.24-.12.48-.24.721-.24l1.201-.48c.601-.24 1.201-.961.961-1.681-.24-.601-.961-1.201-1.681-.961-3.603 1.201-6.966 3.123-9.968 5.405-.601.48-.48 1.441 0 1.922.721.601 1.441.601 2.042.12z"/><path d="M230.158 96.085l9.968-6.365c.601-.36.841-1.201.48-1.802-.36-.601-1.201-.841-1.802-.48l-9.968 6.365c-.601.36-.841 1.201-.48 1.802.36.601 1.201.841 1.802.48z"/><path d="M228.357 96.805l3.723 2.762c1.201.961 2.522 1.922 3.963 2.162 1.561.24 3.123-.36 3.963-1.681.36-.721.48-1.561.24-2.282-.24-.721-.601-1.321-1.081-1.922-1.081-1.321-2.162-2.522-3.363-3.843-.48-.48-1.441-.48-1.922 0-.48.601-.48 1.321 0 1.922l2.642 3.003.601.721.24.36.24.36v.36c0 .12.12-.24 0-.12 0 0 0 .12-.12.12l-.12.12-.36.24h-.84c-.12 0-.24-.12-.48-.12 0 0-.24-.12-.12 0s-.12 0-.12-.12l-.841-.48-1.561-1.081-3.723-2.762c-.601-.36-1.561-.12-1.802.48 0 .721.24 1.441.841 1.802z"/><path d="M74.629 198.53l.48-.48c.24-.12.48-.12.601-.24l.721.36.36.601v.721c-.24.36-.36.48-.12.24l.12-.12.24-.12.601-.48.48-.36.24-.24s.36-.24.12-.12c.721-.601 1.441-1.081 2.162-1.561 1.441-1.081 3.003-2.042 4.564-2.882.601-.36.841-1.201.48-1.802-.36-.601-1.201-.841-1.802-.48-2.042 1.201-3.963 2.402-5.765 3.843-.961.721-1.922 1.441-2.882 2.282-.24.24-.601.48-.721.721-.24.48-.24 1.081 0 1.441.601.961 2.042 1.081 2.522 0 .36-.601.12-1.441-.48-1.802-.721-.24-1.561-.12-1.922.48z"/><path d="M78.472 198.29c.24.12-.36-.12 0 0 .24.12.24.12.36.24l.48.36.24.24.24.24.12.12c-.12-.12.12.12.12.24l.12.24c.12.12.24.36.24.48v.12c0 .12.12.24.12.24 0 .12 0 .24.12.36v1.081l-.36 1.441c-.24 1.081-.48 2.162-.12 3.363.24.721.961 1.201 1.681.961.721-.24 1.201-.961.961-1.681 0-.12-.12-.48-.12-.24v-.96l.36-1.561c.24-1.081.36-2.162.12-3.243-.48-2.162-2.042-3.843-4.083-4.564-.601-.24-1.441.36-1.681.961-.12.721.36 1.321 1.081 1.561z"/><path d="M81.835 201.412c1.922.721 4.083 1.201 6.125 1.441.721.12 1.321-.721 1.321-1.321 0-.841-.601-1.201-1.321-1.321-.721-.12-1.681-.24-2.642-.48-.961-.24-1.922-.48-2.762-.841-.601-.24-1.441.36-1.681.961s.24 1.201.961 1.561z"/><path d="M89.641 206.577l1.802 1.201.961.721c.12.12.24.24.48.36l.24.12s.24.24.24.12l.12.12.24.12c.12.12.24.24.48.36l.841.721c.601.48 1.201.961 1.681 1.441.48.48 1.441.601 1.922 0 .48-.48.601-1.441 0-1.922-2.402-2.042-4.924-3.963-7.446-5.765-.601-.36-1.561-.12-1.802.48-.601.841-.36 1.561.24 1.922z"/><path d="M87.84 216.545c.961-1.081 2.042-2.042 3.243-3.003l.36-.36.24-.24c.24-.24.601-.48.841-.601.601-.48 1.201-.841 1.922-1.201.601-.36.841-1.201.48-1.802-.36-.601-1.201-.841-1.802-.48-2.642 1.681-5.044 3.603-7.086 5.885-.48.48-.48 1.441 0 1.922.48.36 1.321.48 1.802-.12z"/><path d="M104.053 223.751l-1.802-.36-.841-.24c-.12 0-.12 0-.24-.12l-.36-.24c-.12 0-.24-.12-.24-.12l-.12-.12c-.24-.12-.36-.36-.48-.48l-.12-.12-.12-.24s-.12-.24 0-.12l-.12-.36v-.6.12c0-.12.12-.24.12-.48l.12-.24.12-.36.24-.36.12-.12.48-.48c.24-.12-.12.12 0 0l.36-.24.601-.36c.12-.12-.12 0-.12 0s.12 0 .24-.12l.36-.12c.24-.12.36-.12.601-.12h1.201-.12c.12 0 .24 0 .36.12l.36.12h.12s-.24-.12-.12 0l.601.36.24.24.24.24.12.12.12.12.12.12c.12.12.12.24.12.24l.12.24.12.12c0-.12-.12-.24 0 0l.24.601s0 .36.12.36v-.24.24.601.12c0 .12 0 .24-.12.36l-.12.36c0 .12-.24.48-.36.601l-.12.12-.24.24-.12.12c.12-.12-.12.12-.24.12l-.36.24s-.12 0-.12.12c-.12.12-.48.24-.721.24 0 0-.36.12-.24 0h-.72.12c0 .12-.601-.12-.721-.12s-.12-.12 0 0l-.36-.24c-.601-.36-1.561-.12-1.802.48-.36.721-.12 1.441.48 1.802 2.042 1.321 4.924.841 6.726-.841 1.922-1.802 2.042-4.684.841-6.846-.601-1.081-1.561-2.042-2.642-2.522-1.201-.601-2.522-.721-3.843-.48-2.642.48-4.924 2.522-5.284 5.284-.24 1.681.721 3.123 1.922 4.083 1.321 1.081 3.003 1.441 4.684 1.681.721.12 1.441-.24 1.681-.961 0-.601-.36-1.441-1.081-1.561z"/><path d="M111.86 235.281l3.243-1.681c.24-.12.48-.24.841-.36l.36-.12.24-.12 1.681-.721c2.282-.841 4.564-1.561 6.846-2.282.721-.12 1.201-.961.961-1.681-.24-.721-.961-1.081-1.681-.961-4.804 1.201-9.488 3.123-13.812 5.405-.601.36-.841 1.201-.48 1.802.36.961 1.081 1.081 1.802.721z"/><path d="M115.943 226.513c1.802 3.483 3.843 6.846 6.125 10.088.36.601 1.201.841 1.802.48.601-.36.841-1.201.48-1.802-2.282-3.243-4.324-6.606-6.125-10.088-.36-.601-1.201-.841-1.802-.48-.721.36-.841 1.081-.48 1.802z"/><path d="M132.637 238.283l-.48-.48c-.12-.24.12.12 0 0l-.24-.36c-.12-.12-.24-.36-.24-.601v-.12l-.12-.36-.12-.601v.24-.12-.36-.601-.12c0-.12 0-.24.12-.36l.12-.601s-.12.24 0 .12c0-.12 0-.12.12-.24l.12-.36.12-.24c.12-.12.24-.24 0-.12.12-.12.24-.36.48-.48l.12-.12.12-.12.24-.12s.12 0 .12-.12c.12-.12-.24.12 0 0l.601-.12h-.12.12.36.24s-.36-.12-.12 0h.12l.601.12s-.24-.12-.12 0h.12l.24.12.24.12s.12 0 .12.12l.48.36.24.24s-.12-.24-.12-.12l.12.12.24.48c.12.12 0-.12 0-.12v.12l.12.36v1.081-.12c0 .12 0 .24-.12.24 0 .12 0 .24-.12.24v.24-.12s-.24.48-.24.601l-.12.24s0 .12-.12.12l-.36.48-.24.24s-.24.12-.12 0h-.12l-.601.36h.12c-.12 0-.12 0-.24.12l-.36.12-.36.12h-1.3210000000000002l-.721-.12-.36-.12h-.12l-.721-.36c-.601-.36-1.441-.12-1.802.48-.36.601-.12 1.441.48 1.802 2.162 1.321 4.804 1.441 7.086.36 2.042-1.081 3.483-3.483 3.243-5.885-.24-2.282-1.922-4.324-4.324-4.804-2.522-.48-4.924.961-5.885 3.243-1.081 2.522-.601 5.645 1.441 7.566.48.48 1.441.48 1.922 0 .601-.36.601-1.201.12-1.681z"/><path d="M141.404 234.08c-.12 2.522-.12 5.405 1.922 7.086 1.081.961 2.402 1.201 3.843 1.081 1.441-.24 2.762-.48 4.204-.841.721-.12 1.081-.961.961-1.681-.24-.721-.961-1.081-1.681-.961l-3.603.721c-.36.12.24 0-.12 0h-.96c-.36 0 .24.12-.12 0l-.36-.12h.12c-.12 0-.12 0-.24-.12l-.24-.12c-.24-.12.12.12-.12-.12l-.24-.24s-.24-.36-.12 0l-.36-.601v-.12c0-.12-.12-.24-.12-.24-.12-.24-.12-.48-.24-.841-.12-.36 0 .12 0-.12v-1.201c0-.601 0-1.201.12-1.681 0-.721-.721-1.321-1.321-1.321-.841.12-1.321.601-1.321 1.441z"/><path d="M148.37 235.04c-.721 3.483-.601 7.086.48 10.569.24.721.961 1.201 1.681.961.721-.24 1.201-.961.961-1.681-.24-.841-.48-1.561-.601-2.402v-1.08l-.12-1.201v-3.363c0-.36.12-.841.24-1.201.12-.721-.24-1.441-.961-1.681-.721 0-1.441.36-1.681 1.081z"/><path d="M155.937 235.281c-.24 1.561-.36 3.243-.24 4.924 0 .841.12 1.681.36 2.402.12.48.48.961.961 1.201.601.36 1.441.24 1.922-.24.48-.48.601-1.321 0-1.922-.48-.48-1.441-.601-1.922 0l.12-.12c.24-.12.48-.12.601-.24.48 0 .601.24.841.48v-.24c-.12-.36 0 .24 0-.12v-.36c-.12-.601-.12-1.201-.12-1.802v-1.681c0-.24 0-.601.12-.841v-.12c0-.12 0-.36.12-.48.12-.721-.24-1.441-.961-1.681s-1.681.12-1.802.841z"/><path d="M157.378 236.722l1.561-.36h.6c.24 0 .48 0 .841-.12h2.762s.601.12.24 0l-.961-.961c.12.24 0-.24 0 0 0-.12.12-.48 0-.24-.36.601-.12 1.561.48 1.802.721.36 1.441.12 1.802-.48.36-.48.48-1.321.24-1.922-.12-.36-.48-.841-.961-.961-2.522-.36-4.924-.12-7.446.48-.721.12-1.201.961-.961 1.681.48.841 1.081 1.321 1.802 1.081z"/><path d="M156.897 241.766l5.765-.841c.721-.12 1.321-.601 1.321-1.321 0-.601-.601-1.441-1.321-1.321l-5.765.841c-.721.12-1.321.601-1.321 1.321 0 .721.48 1.441 1.321 1.321z"/><path d="M157.498 245.969c3.003-.48 6.005-1.081 8.887-1.561.721-.12 1.081-.961.961-1.681-.24-.721-.961-1.081-1.681-.961-3.003.48-6.005 1.081-8.887 1.561-.721.12-1.081.961-.961 1.681.24.721.961 1.081 1.681.961z"/><path d="M167.586 237.202c3.363-1.201 6.846-2.282 10.329-3.123.721-.12 1.201-.961.961-1.681-.24-.721-.961-1.081-1.681-.961-3.483.841-6.966 1.922-10.329 3.123-.601.24-1.201.961-.961 1.681.24.721.961 1.201 1.681.961z"/><path d="M171.069 236.722c.48 2.162 1.441 4.324 2.762 6.125.36.601 1.201.841 1.802.48.601-.36.841-1.201.48-1.802-.601-.841-1.081-1.802-1.561-2.762 0 0 0-.12-.12-.12l-.12-.36-.24-.721c-.12-.48-.36-.961-.48-1.561-.12-.721-.961-1.201-1.681-.961-.601.36-.961.961-.841 1.681z"/><path d="M194.248 227.594c-1.441.24-3.003.721-4.204 1.561-1.441 1.081-2.402 2.642-2.402 4.444 0 3.243 3.243 5.164 6.125 5.284 1.802 0 3.603-.601 5.405-1.081.601-.24 1.201-.961.961-1.681-.24-.601-.961-1.201-1.681-.961-.721.24-1.321.48-2.042.601l-.961.24-.48.12h-2.0410000000000004c-.24 0-.48-.12-.721-.24h.12s-.12 0-.12-.12c-.12-.12-.24-.12-.48-.24l-.36-.24c-.12 0-.24-.12 0 0l-.12-.12c-.12-.12-.24-.12-.24-.24l-.12-.12-.12-.12-.12-.12-.24-.36v.12s0-.12-.12-.12l-.12-.48v-.48c0-.12 0-.24.12-.48 0-.12 0-.12.12-.24.12-.24-.12.12 0 0 .12-.24.24-.48.48-.721l.12-.12.36-.36.12-.12c-.24.24.12 0 .12 0 .12-.12.24-.24.48-.24l.48-.24.36-.12c.721-.24 1.441-.36 2.162-.48.721-.12 1.081-1.081.961-1.681-.36-.601-1.081-.961-1.802-.841z"/><path d="M199.773 227.954l4.204-2.642 2.042-1.321.961-.601.24-.12c-.12 0-.36-.12-.48-.24.601.48 1.321.601 1.922 0 .48-.48.601-1.441 0-1.922-.48-.36-.961-.601-1.561-.601-.48 0-.961.24-1.441.48l-2.402 1.441-4.804 3.003c-.601.36-.841 1.201-.48 1.802.24.841 1.081 1.201 1.802.721z"/><path d="M201.454 226.753c.961.841 1.922 1.802 2.762 2.762l.601.721.12.24c.12.12.24.24.24.36.36.48.721 1.081 1.081 1.681.36.601 1.201.841 1.802.48.601-.36.841-1.201.48-1.802-1.441-2.282-3.243-4.444-5.284-6.245-.48-.48-1.441-.601-1.922 0-.36.36-.48 1.321.12 1.802z"/><path d="M215.626 227.114c0-3.123-.24-6.365-.48-9.488-.24.36-.48.841-.601 1.201.24-.12-.24 0 0 0h.36c.12 0 .48.12.601.24.12 0 .24.12.24.12.961.48 1.922.961 3.003 1.441l6.005 3.003c.601.36 1.441.12 1.802-.48.36-.601.12-1.441-.48-1.802l-6.485-3.243-3.003-1.561c-1.201-.48-2.282-.721-3.483-.12-.36.24-.721.721-.601 1.201.36 3.123.48 6.365.48 9.488 0 .721.601 1.321 1.321 1.321.721 0 1.321-.601 1.321-1.321z"/><path d="M216.467 223.511l.601-.48c.12-.12.24-.12.24-.24l.12-.12c.36-.36.841-.601 1.201-.841.841-.48 1.681-.961 2.642-1.441.601-.24.841-1.321.48-1.802-.48-.721-1.201-.721-1.802-.48-1.922.841-3.723 2.042-5.405 3.483-.48.48-.48 1.441 0 1.922.48.48 1.321.48 1.922 0z"/><path d="M220.67 212.582c3.003-2.402 5.765-5.044 8.407-7.807.48-.48.601-1.441 0-1.922-.48-.48-1.441-.601-1.922 0-2.522 2.882-5.405 5.405-8.407 7.807-.601.48-.48 1.441 0 1.922.601.48 1.321.48 1.922 0z"/><path d="M222.952 209.939c1.081.48 2.162 1.081 3.243 1.802l1.561.961.721.48.12.12.36.36c.601.48 1.321.601 1.922 0 .48-.48.601-1.441 0-1.922-2.042-1.681-4.324-3.123-6.726-4.204-.601-.24-1.441-.24-1.802.48-.12.721 0 1.681.601 1.922z"/><path d="M228.717 200.452c.721.48 1.441 1.081 2.162 1.681l.24.24.48.36 1.081.841c1.441 1.081 2.762 2.282 4.083 3.483.48.48 1.441.601 1.922 0 .48-.48.601-1.441 0-1.922-2.882-2.402-5.765-4.804-8.767-6.966-.601-.36-1.561-.12-1.802.48-.36.721-.12 1.441.601 1.802z"/><path d="M234.722 203.454l.601-.961.24-.36.12-.12.24-.24 1.441-1.561c.12-.12.24-.24.48-.36l.24-.12c.24-.24.601-.48.961-.601l.841-.48.48-.24.24-.12s.12 0 .12-.12c.12-.12.36-.12.48-.12 0 0 .36-.12.12 0h.12c-.24-.12-.12 0-.12 0-.12 0-.12 0-.24-.12l-.12-.12v.12c-.12-.12-.12-.24 0-.12v.72-.12-.12l-.12.48-.12.36v.12l-.12.24-.48 1.081c-.12.36-.36.601-.601.961-.12.12-.24.24-.24.48l-.12.24s-.24.36-.12.12c-.48.601-1.081 1.321-1.681 1.802-.12.12-.36.24-.48.48l-.24.24s-.36.24-.24.12l-.12.12c-.12.12-.24.12-.24.24l-.601.36c-.601.36-.841 1.201-.48 1.802.36.601 1.201.841 1.802.48 1.561-.961 2.882-2.162 3.963-3.603.601-.721 1.081-1.441 1.561-2.282.48-.721.841-1.561 1.081-2.522.24-.721.24-1.681 0-2.402-.36-.961-1.201-1.681-2.402-1.681-.961 0-1.922.48-2.762.961-.721.36-1.441.841-2.162 1.321-1.561 1.201-3.003 2.762-3.963 4.444-.36.601-.12 1.441.48 1.802.961.24 1.802 0 2.162-.601z"/></g><g fill="#939ea3"><path d="M161.812 29.658l-1.236-29.039c-.035-.827-1.326-.831-1.29 0l1.236 29.039c.035.827 1.325.831 1.29 0z"/><path d="M179.031 29.206c1.075-5.929 2.742-11.7 4.994-17.289.31-.77-.937-1.104-1.244-.343-2.252 5.589-3.919 11.36-4.995 17.289-.147.811 1.096 1.159 1.245.343z"/><path d="M197.598 36.812l17.878-27.216c.457-.696-.66-1.343-1.114-.651-5.959 9.072-11.919 18.144-17.878 27.217-.457.695.66 1.342 1.114.651z"/><path d="M220.321 43.09l8.654-10.504c.524-.636-.384-1.554-.912-.912l-8.654 10.504c-.524.636.384 1.554.912.912z"/><path d="M237.183 61.675c-1.111 1.693 1.128 2.407 2.382 1.613 1.287-.815 2.442-2.461 3.504-3.561l4.739-4.908c6.121-6.339 12.243-12.679 18.364-19.019.577-.597-.335-1.511-.912-.912l-13.329 13.804-6.516 6.749-3.259 3.374-1.777 1.84-.592.614c-.372.523-.868.875-1.49 1.057.457-.696-.66-1.343-1.114-.651z"/><path d="M256.622 72.637l11.664-3.945c.782-.264.447-1.511-.343-1.244l-11.664 3.945c-.782.265-.446 1.511.343 1.244z"/><path d="M268.902 90.983c9.19-2.022 18.246-4.568 27.142-7.632.78-.269.445-1.515-.343-1.244-8.896 3.064-17.953 5.61-27.142 7.632-.811.178-.468 1.422.343 1.244z"/><path d="M275.904 113.171c3.541 1.324 7.242 1.492 10.894.531.802-.211.462-1.456-.343-1.244-3.449.906-6.873.716-10.209-.531-.778-.291-1.115.955-.343 1.244z"/><path d="M281.075 131.777l34.57-3.532c.818-.083.826-1.374 0-1.29l-34.57 3.532c-.818.083-.827 1.374 0 1.29z"/><path d="M282.914 149.548h13.599c.83 0 .832-1.29 0-1.29h-13.599c-.83 0-.832 1.29 0 1.29z"/><path d="M279.615 166.349l26.703 6.944c.804.209 1.147-1.035.343-1.244l-26.703-6.944c-.804-.209-1.147 1.034-.343 1.244z"/><path d="M273.859 181.103l7.471 4.231c.724.41 1.375-.704.651-1.114-2.491-1.41-4.981-2.82-7.471-4.231-.724-.409-1.375.704-.651 1.114z"/><path d="M265.016 197.067c7.277 7.269 15.021 14.034 23.191 20.284.659.504 1.302-.615.651-1.114-8.081-6.182-15.732-12.893-22.929-20.083-.588-.587-1.501.325-.912.912z"/><path d="M260.266 216.657l2.461 3.098c.516.65 1.424-.268.912-.912l-2.461-3.098c-.516-.65-1.424.268-.912.912z"/><path d="M246.4 229.843c4.728 5.96 9.765 11.655 15.103 17.077.583.592 1.496-.32.912-.912-5.338-5.421-10.375-11.117-15.103-17.077-.516-.65-1.423.268-.912.912z"/><path d="M225.588 245.746c1.869 1.605 3.292 3.584 4.166 5.891.291.769 1.539.436 1.244-.343-.953-2.516-2.453-4.704-4.497-6.459-.627-.539-1.544.369-.913.912z"/><path d="M200.137 257.796l8.01 22.252c.279.775 1.526.441 1.244-.343l-8.01-22.252c-.28-.775-1.526-.441-1.244.343z"/><path d="M173.474 266.475l1.242 3.705c.263.783 1.509.447 1.244-.343l-1.242-3.705c-.262-.783-1.508-.447-1.244.343z"/><path d="M140.36 287.059c.59.829 1.43.703 2.105-.036.58-.636.644-1.481.79-2.294.272-1.511.532-3.024.779-4.539.952-5.843 1.707-11.715 2.29-17.606.082-.825-1.209-.82-1.29 0-.407 4.11-.893 8.21-1.482 12.298-.279 1.934-.578 3.865-.898 5.792-.137.826-.278 1.652-.423 2.476-.063.36-.848 3.13-.757 3.259-.478-.671-1.598-.028-1.115.651z"/><path d="M122.001 268.895l2.187-10.434c.17-.81-1.074-1.156-1.244-.343l-2.187 10.434c-.17.81 1.074 1.156 1.244.343z"/><path d="M83.787 277.331c5.864-5.716 10.838-12.229 14.808-19.39.403-.726-.711-1.378-1.114-.651-3.919 7.07-8.817 13.486-14.606 19.129-.596.581.317 1.493.912.912z"/><path d="M79.869 248.31c1.011-.672 1.621-1.797 1.548-3.02-.049-.825-1.34-.831-1.29 0 .046.762-.263 1.478-.909 1.907-.688.457-.043 1.575.651 1.113z"/><path d="M48.268 243.626c7.9-6.296 15.8-12.593 23.699-18.889.649-.517-.269-1.425-.912-.912l-23.7 18.889c-.649.517.27 1.425.913.912z"/><path d="M52.667 213.079c2.544-1.106 4.858-2.575 6.961-4.381.631-.542-.286-1.45-.912-.912-2.02 1.735-4.258 3.118-6.699 4.179-.76.331-.104 1.442.651 1.114z"/><path d="M24.695 208.811c7.852-2.664 15.539-5.761 23.047-9.279.752-.352.097-1.464-.651-1.114-7.407 3.471-14.992 6.521-22.739 9.148-.782.265-.447 1.511.343 1.244z"/><path d="M34.659 185.791l3.875-2.865c.66-.488.018-1.608-.651-1.114l-3.875 2.865c-.66.488-.017 1.608.651 1.114z"/><path d="M4.136 165.363c11.107-.079 22.143-1.459 32.927-4.114.806-.198.464-1.443-.343-1.244-10.676 2.629-21.589 3.99-32.584 4.068-.83.006-.832 1.296 0 1.29z"/><path d="M20.053 139.554c4.635.922 9.284.982 13.943.19.817-.139.47-1.382-.343-1.244-4.431.754-8.848.688-13.257-.19-.811-.161-1.158 1.081-.343 1.244z"/><path d="M.296 97.192c13.102 6.957 26.203 13.914 39.305 20.87.733.389 1.385-.724.651-1.114-13.102-6.957-26.203-13.914-39.305-20.87-.733-.389-1.386.724-.651 1.114z"/><path d="M36.899 96.995c3.962.372 7.803 1.207 11.569 2.489.788.268 1.126-.977.343-1.244-3.874-1.319-7.838-2.153-11.911-2.535-.827-.077-.822 1.213 0 1.29z"/><path d="M34.427 56.671l-.713-1.82-.948.728c9.799 6.164 18.51 13.842 25.871 22.774.528.641 1.437-.276.912-.912-7.429-9.014-16.245-16.755-26.132-22.975-.446-.281-1.157.195-.948.728l.713 1.82c.299.764 1.547.432 1.244-.343z"/><path d="M70.337 60.259l2.473 4.325c.412.721 1.527.072 1.114-.651l-2.473-4.325c-.412-.72-1.527-.071-1.114.651z"/><path d="M73.972 24.466c4.766 8.428 9.532 16.857 14.298 25.286.408.722 1.524.073 1.114-.651l-14.298-25.286c-.408-.722-1.524-.073-1.114.651z"/><path d="M101.243 32.456l3.091 4.943c.439.702 1.556.055 1.114-.651l-3.091-4.943c-.439-.702-1.556-.055-1.114.651z"/><path d="M110.179 3.54c2.574 1.423 4.018 3.885 5.281 6.448 1.413 2.866 2.688 5.804 3.857 8.777 2.205 5.61 3.977 11.376 5.36 17.241.19.808 1.435.466 1.244-.343-1.564-6.631-3.631-13.132-6.243-19.427-1.989-4.794-4.018-11.14-8.849-13.811-.727-.402-1.379.712-.651 1.114z"/><path d="M140.7 22.427l1.865 6.794c.219.799 1.465.46 1.244-.343l-1.865-6.794c-.22-.8-1.465-.461-1.244.343z"/></g></g></svg>