<?xml version="1.0" encoding="utf-8"?>
<!-- Generator: Adobe Illustrator 16.0.4, SVG Export Plug-In . SVG Version: 6.00 Build 0)  -->
<!DOCTYPE svg PUBLIC "-//W3C//DTD SVG 1.1//EN" "http://www.w3.org/Graphics/SVG/1.1/DTD/svg11.dtd">
<svg version="1.1" id="Layer_1" xmlns="http://www.w3.org/2000/svg" xmlns:xlink="http://www.w3.org/1999/xlink" x="0px" y="0px"
	 width="203.431px" height="117.774px" viewBox="0 0 203.431 117.774" enable-background="new 0 0 203.431 117.774"
	 xml:space="preserve">
<polygon fill="#FFF100" points="203.432,0 40.436,37.591 59.024,117.774 203.432,84.281 "/>
<polygon fill="#FFF100" points="0,92.068 65.94,101.32 40.611,38.092 70.322,19.127 0,9.875 "/>
<g>
	<defs>
		<rect id="SVGID_1_" width="203.431" height="117.774"/>
	</defs>
	<clipPath id="SVGID_2_">
		<use xlink:href="#SVGID_1_"  overflow="visible"/>
	</clipPath>
	<path clip-path="url(#SVGID_2_)" fill="#2E3191" d="M162.232,51.636l-0.201-1.5c-0.081-0.606-0.644-1.036-1.25-0.954l-1.193,0.16
		c-0.074,0.01-0.146,0.027-0.215,0.051l-0.935,0.125c-0.591-2.463-2.319-4.527-4.885-5.738c-1.054-0.497-2.192-0.777-3.344-0.947
		c-3.312-0.488-7.144-0.555-10.601-0.201l2.709-6.824c0.292-0.598,0.043-1.32-0.555-1.611c-0.599-0.292-1.32-0.044-1.612,0.555
		l-4.541,7.336l-7.85-4.171c-0.643-0.29-1.413-0.247-1.752,0.401c-0.341,0.647,0.009,1.516,0.521,1.944l6.263,4.637
		c-2.084,1.607-3.275,3.929-3.275,6.535v1.96l-2.634,0.353c-0.073-0.005-0.146-0.003-0.222,0.007l-1.192,0.16
		c-0.606,0.081-1.036,0.644-0.954,1.25l0.201,1.499c0.081,0.606,0.643,1.036,1.249,0.954l0.906-0.121l1.834,5.012
		c0.187,0.511,0.466,0.968,0.812,1.361v2.16c0,8.041,6.518,14.56,14.558,14.56c8.041,0,14.56-6.519,14.56-14.56l0.008-4.989
		c0.718-0.709,1.192-1.662,1.279-2.716l0.449-5.317l0.907-0.122C161.885,52.804,162.313,52.242,162.232,51.636 M155.626,51.951
		c0.687-0.092,1.367,0.129,1.868,0.605c0.502,0.476,0.758,1.144,0.702,1.834l-0.307,3.769c-0.086,1.059-0.912,1.929-1.965,2.071
		l-5.122,0.687c-0.992,0.133-1.971-0.412-2.379-1.325l-1.574-3.517c-0.297-0.662-0.265-1.404,0.089-2.037
		c0.352-0.633,0.966-1.051,1.684-1.147L155.626,51.951z M129.528,56.304c0.359-0.592,0.958-0.984,1.644-1.076l7.004-0.938
		c0.718-0.096,1.421,0.145,1.928,0.663s0.732,1.225,0.622,1.941l-0.593,3.809c-0.154,0.988-0.954,1.771-1.946,1.904l-5.123,0.687
		c-1.052,0.141-2.079-0.481-2.44-1.48l-1.288-3.555C129.1,57.607,129.17,56.895,129.528,56.304 M151.857,71.904h-5.824
		c-0.523,0-0.954-0.429-0.954-0.953c0-0.525,0.431-0.954,0.954-0.954h5.824c0.524,0,0.954,0.429,0.954,0.954
		C152.812,71.475,152.382,71.904,151.857,71.904 M150.2,67.235h-12.123c-1.614,0-3.048-0.805-3.924-2.03l4.304-0.577
		c1.88-0.252,3.397-1.737,3.688-3.611l0.594-3.808c0.211-1.357-0.219-2.699-1.18-3.681c-0.961-0.981-2.293-1.44-3.655-1.257
		l-4.646,0.623v-0.98c0-2.651,2.169-4.819,4.819-4.819H150.2c1.912,0,3.569,1.131,4.347,2.755c0.021,0.065,0.046,0.124,0.069,0.181
		l-6.264,0.84c-1.362,0.182-2.526,0.975-3.195,2.175c-0.669,1.2-0.729,2.608-0.169,3.862l1.575,3.517
		c0.774,1.73,2.629,2.764,4.509,2.512l3.947-0.529v0.01C155.02,65.066,152.852,67.235,150.2,67.235"/>
	<polygon clip-path="url(#SVGID_2_)" fill="#2E3191" points="61.634,53.142 65.443,53.142 71.505,60.928 71.505,53.142 
		75.545,53.142 75.545,67.874 71.989,67.874 65.675,59.792 65.675,67.874 61.634,67.874 	"/>
	<polygon clip-path="url(#SVGID_2_)" fill="#2E3191" points="78.154,53.142 90.003,53.142 90.003,56.593 82.195,56.593 
		82.195,58.845 89.266,58.845 89.266,62.065 82.195,62.065 82.195,64.401 90.108,64.401 90.108,67.874 78.154,67.874 	"/>
	<path clip-path="url(#SVGID_2_)" fill="#2E3191" d="M92.212,53.142h6.966c2.252,0,3.81,0.589,4.799,1.578
		c0.862,0.863,1.305,1.978,1.305,3.43v0.043c0,2.273-1.2,3.768-3.031,4.546l3.516,5.136h-4.693l-2.968-4.463h-1.81v4.463h-4.083
		V53.142z M99.01,60.213c1.368,0,2.189-0.673,2.189-1.748v-0.042c0-1.178-0.863-1.768-2.21-1.768h-2.694v3.557H99.01z"/>
	<path clip-path="url(#SVGID_2_)" fill="#2E3191" d="M107.344,53.142h5.704c5.24,0,8.292,3.031,8.292,7.282v0.042
		c0,4.251-3.094,7.408-8.377,7.408h-5.619V53.142z M111.427,56.741v7.513h1.663c2.462,0,4.083-1.347,4.083-3.725v-0.042
		c0-2.357-1.621-3.746-4.083-3.746H111.427z"/>
	<path clip-path="url(#SVGID_2_)" fill="#2E3191" d="M165.371,66.707c0-0.356,0.064-0.729,0.178-1.15l0.859-3.259h-1.037
		l0.664-2.465h1.037l0.601-2.22h3.08l-0.601,2.22h2.043l-0.665,2.465h-2.042l-0.746,2.772c-0.049,0.21-0.081,0.405-0.081,0.535
		c0,0.355,0.212,0.551,0.697,0.551c0.34,0,0.713-0.081,1.167-0.243l-0.681,2.545c-0.551,0.211-1.184,0.324-1.815,0.324
		C166.246,68.782,165.371,68.003,165.371,66.707"/>
	<polygon clip-path="url(#SVGID_2_)" fill="#2E3191" points="172.779,59.833 175.924,59.833 176.248,64.94 179.28,59.833 
		182.554,59.833 176.702,68.668 173.898,68.668 	"/>
</g>
</svg>
